<svg xmlns="http://www.w3.org/2000/svg" width="2140" height="1500" viewBox="0 0 2140 1500">
  <defs>
    <marker id="ah" markerWidth="12" markerHeight="10" refX="10" refY="5" orient="auto"><path d="M0,0 L11,5 L0,10 z" fill="#111"/></marker>
    <marker id="ahg" markerWidth="12" markerHeight="10" refX="10" refY="5" orient="auto"><path d="M0,0 L11,5 L0,10 z" fill="#15803d"/></marker>
    <marker id="ahr" markerWidth="12" markerHeight="10" refX="10" refY="5" orient="auto"><path d="M0,0 L11,5 L0,10 z" fill="#dc2626"/></marker>
    <marker id="ahb" markerWidth="12" markerHeight="10" refX="10" refY="5" orient="auto"><path d="M0,0 L11,5 L0,10 z" fill="#2563eb"/></marker>
    <marker id="aho" markerWidth="12" markerHeight="10" refX="10" refY="5" orient="auto"><path d="M0,0 L11,5 L0,10 z" fill="#ea580c"/></marker>
    <marker id="ahv" markerWidth="12" markerHeight="10" refX="10" refY="5" orient="auto"><path d="M0,0 L11,5 L0,10 z" fill="#7e22ce"/></marker>
    <marker id="ahd" markerWidth="12" markerHeight="10" refX="10" refY="5" orient="auto"><path d="M0,0 L11,5 L0,10 z" fill="#6b7280"/></marker>
    <marker id="trio" markerWidth="17" markerHeight="15" refX="15" refY="7.5" orient="auto"><path d="M1,1 L15,7.5 L1,14 z" fill="#fff" stroke="#ea580c" stroke-width="2"/></marker>
    <marker id="triv" markerWidth="17" markerHeight="15" refX="15" refY="7.5" orient="auto"><path d="M1,1 L15,7.5 L1,14 z" fill="#fff" stroke="#7e22ce" stroke-width="2"/></marker>
  </defs>
  <rect width="2140" height="1500" fill="#ffffff"/>

  <!-- TITLE -->
  <text x="1070" y="52" font-family="Marker Felt" font-size="44" fill="#1e40af" text-anchor="middle" font-weight="bold">CHESS — MOVE PIPELINE + CLASS DESIGN</text>
  <path d="M540,68 Q1070,84 1600,66" stroke="#1e40af" stroke-width="3.5" fill="none" stroke-linecap="round"/>

  <!-- ===== ROW 1: TEMPLATE METHOD PIPELINE ===== -->
  <text x="120" y="104" font-family="Marker Felt" font-size="20" fill="#1e40af" font-weight="bold">makeMove() — TEMPLATE METHOD (one fixed, final pipeline)</text>

  <!-- stage boxes -->
  <g>
    <rect x="120" y="132" width="290" height="92" rx="11" fill="none" stroke="#2563eb" stroke-width="3"/>
    <circle cx="146" cy="118" r="14" fill="none" stroke="#2563eb" stroke-width="2.4"/><text x="146" y="124" font-family="Chalkboard SE" font-size="14" fill="#2563eb" text-anchor="middle" font-weight="bold">1</text>
    <text x="265" y="166" font-family="Chalkboard SE" font-size="15.5" fill="#111" text-anchor="middle" font-weight="bold">validate turn</text>
    <text x="265" y="194" font-family="Chalkboard SE" font-size="12" fill="#6b7280" text-anchor="middle">piece exists &#183; side to move</text>

    <rect x="450" y="132" width="290" height="92" rx="11" fill="none" stroke="#2563eb" stroke-width="3"/>
    <circle cx="476" cy="118" r="14" fill="none" stroke="#2563eb" stroke-width="2.4"/><text x="476" y="124" font-family="Chalkboard SE" font-size="14" fill="#2563eb" text-anchor="middle" font-weight="bold">2</text>
    <text x="595" y="166" font-family="Chalkboard SE" font-size="15.5" fill="#111" text-anchor="middle" font-weight="bold">strategy.canMove</text>
    <text x="595" y="194" font-family="Chalkboard SE" font-size="12" fill="#6b7280" text-anchor="middle">piece's own rule (Strategy)</text>

    <rect x="780" y="132" width="290" height="92" rx="11" fill="none" stroke="#2563eb" stroke-width="3"/>
    <circle cx="806" cy="118" r="14" fill="none" stroke="#2563eb" stroke-width="2.4"/><text x="806" y="124" font-family="Chalkboard SE" font-size="14" fill="#2563eb" text-anchor="middle" font-weight="bold">3</text>
    <text x="925" y="166" font-family="Chalkboard SE" font-size="15.5" fill="#111" text-anchor="middle" font-weight="bold">path clear?</text>
    <text x="925" y="194" font-family="Chalkboard SE" font-size="12" fill="#6b7280" text-anchor="middle">sliding: no blockers between</text>

    <rect x="1110" y="132" width="290" height="92" rx="11" fill="none" stroke="#2563eb" stroke-width="3"/>
    <circle cx="1136" cy="118" r="14" fill="none" stroke="#2563eb" stroke-width="2.4"/><text x="1136" y="124" font-family="Chalkboard SE" font-size="14" fill="#2563eb" text-anchor="middle" font-weight="bold">4</text>
    <text x="1255" y="166" font-family="Chalkboard SE" font-size="15" fill="#111" text-anchor="middle" font-weight="bold">wouldLeaveInCheck?</text>
    <text x="1255" y="194" font-family="Chalkboard SE" font-size="12" fill="#6b7280" text-anchor="middle">simulate on board.withMove()</text>

    <rect x="1440" y="132" width="290" height="92" rx="11" fill="none" stroke="#2563eb" stroke-width="3"/>
    <circle cx="1466" cy="118" r="14" fill="none" stroke="#2563eb" stroke-width="2.4"/><text x="1466" y="124" font-family="Chalkboard SE" font-size="14" fill="#2563eb" text-anchor="middle" font-weight="bold">5</text>
    <text x="1585" y="166" font-family="Chalkboard SE" font-size="15.5" fill="#111" text-anchor="middle" font-weight="bold">apply + switch</text>
    <text x="1585" y="194" font-family="Chalkboard SE" font-size="12" fill="#6b7280" text-anchor="middle">commit move, flip color</text>

    <rect x="1770" y="132" width="290" height="92" rx="11" fill="none" stroke="#16a34a" stroke-width="3"/>
    <circle cx="1796" cy="118" r="14" fill="none" stroke="#16a34a" stroke-width="2.4"/><text x="1796" y="124" font-family="Chalkboard SE" font-size="14" fill="#16a34a" text-anchor="middle" font-weight="bold">6</text>
    <text x="1915" y="166" font-family="Chalkboard SE" font-size="15.5" fill="#111" text-anchor="middle" font-weight="bold">evaluate status</text>
    <text x="1915" y="194" font-family="Chalkboard SE" font-size="12" fill="#6b7280" text-anchor="middle">check / mate / stalemate</text>
  </g>

  <!-- flow arrows -->
  <path d="M410,178 L446,178" stroke="#15803d" stroke-width="3" fill="none" marker-end="url(#ahg)"/>
  <path d="M740,178 L776,178" stroke="#15803d" stroke-width="3" fill="none" marker-end="url(#ahg)"/>
  <path d="M1070,178 L1106,178" stroke="#15803d" stroke-width="3" fill="none" marker-end="url(#ahg)"/>
  <path d="M1400,178 L1436,178" stroke="#15803d" stroke-width="3" fill="none" marker-end="url(#ahg)"/>
  <path d="M1730,178 L1766,178" stroke="#15803d" stroke-width="3" fill="none" marker-end="url(#ahg)"/>

  <!-- failure rail -->
  <path d="M265,224 L265,262" stroke="#dc2626" stroke-width="2.2" stroke-dasharray="7,5" fill="none"/>
  <path d="M595,224 L595,262" stroke="#dc2626" stroke-width="2.2" stroke-dasharray="7,5" fill="none"/>
  <path d="M925,224 L925,262" stroke="#dc2626" stroke-width="2.2" stroke-dasharray="7,5" fill="none"/>
  <path d="M1255,224 L1255,262" stroke="#dc2626" stroke-width="2.2" stroke-dasharray="7,5" fill="none"/>
  <path d="M265,262 L1494,262" stroke="#dc2626" stroke-width="2.4" stroke-dasharray="7,5" fill="none" marker-end="url(#ahr)"/>
  <rect x="1500" y="234" width="560" height="56" rx="10" fill="none" stroke="#dc2626" stroke-width="3"/>
  <text x="1780" y="269" font-family="Chalkboard SE" font-size="14.5" fill="#dc2626" text-anchor="middle" font-weight="bold">any guard fails &#8594; MoveResult.error() &#183; board NEVER mutated</text>

  <!-- ===== ROW 2 LEFT: STRATEGY cluster ===== -->
  <rect x="120" y="330" width="1000" height="420" rx="16" fill="none" stroke="#ea580c" stroke-width="3" stroke-dasharray="14,9"/>
  <text x="150" y="362" font-family="Marker Felt" font-size="20" fill="#ea580c" font-weight="bold">STRATEGY — one move rule per piece (+ Factory)</text>

  <rect x="250" y="384" width="440" height="118" rx="10" fill="none" stroke="#ea580c" stroke-width="3"/>
  <text x="470" y="414" font-family="Chalkboard SE" font-size="16.5" fill="#111" text-anchor="middle" font-weight="bold">&#171;interface&#187; MoveStrategy</text>
  <path d="M264,426 L676,426" stroke="#ea580c" stroke-width="2"/>
  <text x="272" y="452" font-family="Chalkboard SE" font-size="14" fill="#111">canMove(board, from, to): boolean</text>
  <text x="272" y="482" font-family="Chalkboard SE" font-size="12.5" fill="#6b7280">no giant switch in the game — add a piece = add a class</text>

  <rect x="760" y="384" width="310" height="118" rx="10" fill="none" stroke="#ea580c" stroke-width="3"/>
  <text x="915" y="414" font-family="Chalkboard SE" font-size="15.5" fill="#111" text-anchor="middle" font-weight="bold">MoveStrategyFactory</text>
  <path d="M774,426 L1056,426" stroke="#ea580c" stroke-width="2"/>
  <text x="782" y="452" font-family="Chalkboard SE" font-size="14" fill="#111">PieceType &#8594; MoveStrategy</text>
  <text x="782" y="482" font-family="Chalkboard SE" font-size="12.5" fill="#6b7280">cached, stateless, shared</text>
  <path d="M760,462 L694,462" stroke="#ea580c" stroke-width="2.4" fill="none" marker-end="url(#aho)"/>
  <text x="700" y="452" font-family="Chalkboard SE" font-size="11.5" fill="#ea580c">returns</text>

  <!-- 6 concrete strategies -->
  <g>
    <rect x="150" y="612" width="140" height="92" rx="9" fill="none" stroke="#ea580c" stroke-width="2.5"/>
    <text x="220" y="652" font-family="Chalkboard SE" font-size="14.5" fill="#111" text-anchor="middle" font-weight="bold">Pawn</text>
    <text x="220" y="678" font-family="Chalkboard SE" font-size="11.5" fill="#6b7280" text-anchor="middle">fwd / diag cap</text>

    <rect x="306" y="612" width="140" height="92" rx="9" fill="none" stroke="#ea580c" stroke-width="2.5"/>
    <text x="376" y="652" font-family="Chalkboard SE" font-size="14.5" fill="#111" text-anchor="middle" font-weight="bold">Rook</text>
    <text x="376" y="678" font-family="Chalkboard SE" font-size="11.5" fill="#6b7280" text-anchor="middle">rank &amp; file</text>

    <rect x="462" y="612" width="140" height="92" rx="9" fill="none" stroke="#ea580c" stroke-width="2.5"/>
    <text x="532" y="652" font-family="Chalkboard SE" font-size="14.5" fill="#111" text-anchor="middle" font-weight="bold">Knight</text>
    <text x="532" y="678" font-family="Chalkboard SE" font-size="11.5" fill="#6b7280" text-anchor="middle">L-jump</text>

    <rect x="618" y="612" width="140" height="92" rx="9" fill="none" stroke="#ea580c" stroke-width="2.5"/>
    <text x="688" y="652" font-family="Chalkboard SE" font-size="14.5" fill="#111" text-anchor="middle" font-weight="bold">Bishop</text>
    <text x="688" y="678" font-family="Chalkboard SE" font-size="11.5" fill="#6b7280" text-anchor="middle">diagonals</text>

    <rect x="774" y="612" width="140" height="92" rx="9" fill="none" stroke="#ea580c" stroke-width="2.5"/>
    <text x="844" y="652" font-family="Chalkboard SE" font-size="14.5" fill="#111" text-anchor="middle" font-weight="bold">Queen</text>
    <text x="844" y="678" font-family="Chalkboard SE" font-size="11.5" fill="#6b7280" text-anchor="middle">R + B</text>

    <rect x="930" y="612" width="140" height="92" rx="9" fill="none" stroke="#ea580c" stroke-width="2.5"/>
    <text x="1000" y="652" font-family="Chalkboard SE" font-size="14.5" fill="#111" text-anchor="middle" font-weight="bold">King</text>
    <text x="1000" y="678" font-family="Chalkboard SE" font-size="11.5" fill="#6b7280" text-anchor="middle">1 square</text>
  </g>
  <!-- implements arrows -->
  <path d="M220,612 L400,504" stroke="#ea580c" stroke-width="2.1" stroke-dasharray="8,6" fill="none" marker-end="url(#trio)"/>
  <path d="M376,612 L445,504" stroke="#ea580c" stroke-width="2.1" stroke-dasharray="8,6" fill="none" marker-end="url(#trio)"/>
  <path d="M532,612 L490,504" stroke="#ea580c" stroke-width="2.1" stroke-dasharray="8,6" fill="none" marker-end="url(#trio)"/>
  <path d="M688,612 L535,504" stroke="#ea580c" stroke-width="2.1" stroke-dasharray="8,6" fill="none" marker-end="url(#trio)"/>
  <path d="M844,612 L580,504" stroke="#ea580c" stroke-width="2.1" stroke-dasharray="8,6" fill="none" marker-end="url(#trio)"/>
  <path d="M1000,612 L625,504" stroke="#ea580c" stroke-width="2.1" stroke-dasharray="8,6" fill="none" marker-end="url(#trio)"/>
  <text x="470" y="580" font-family="Chalkboard SE" font-size="12.5" fill="#ea580c" text-anchor="middle" font-weight="bold">each piece implements MoveStrategy</text>

  <!-- ===== ROW 2 RIGHT: CORE CLASSES cluster ===== -->
  <rect x="1150" y="330" width="910" height="420" rx="16" fill="none" stroke="#2563eb" stroke-width="3" stroke-dasharray="14,9"/>
  <text x="1180" y="362" font-family="Marker Felt" font-size="20" fill="#2563eb" font-weight="bold">CORE CLASSES — Facade &#183; Template Method &#183; immutable Board</text>

  <!-- layering chain -->
  <rect x="1180" y="384" width="380" height="72" rx="10" fill="none" stroke="#7e22ce" stroke-width="3"/>
  <text x="1370" y="412" font-family="Chalkboard SE" font-size="16" fill="#7e22ce" text-anchor="middle" font-weight="bold">Chess — FACADE</text>
  <text x="1370" y="438" font-family="Chalkboard SE" font-size="13" fill="#111" text-anchor="middle">move(from,to) &#183; board() &#183; interview entry</text>

  <rect x="1180" y="486" width="380" height="64" rx="10" fill="none" stroke="#7e22ce" stroke-width="3"/>
  <text x="1370" y="513" font-family="Chalkboard SE" font-size="15" fill="#111" text-anchor="middle" font-weight="bold">&#171;interface&#187; ChessGame</text>
  <text x="1370" y="536" font-family="Chalkboard SE" font-size="12.5" fill="#6b7280" text-anchor="middle">makeMove &#183; status</text>

  <rect x="1180" y="580" width="380" height="88" rx="10" fill="none" stroke="#7e22ce" stroke-width="3"/>
  <text x="1370" y="608" font-family="Chalkboard SE" font-size="14.5" fill="#111" text-anchor="middle" font-weight="bold">AbstractChessGame — TEMPLATE</text>
  <text x="1370" y="632" font-family="Chalkboard SE" font-size="13" fill="#111" text-anchor="middle">final makeMove() = the pipeline above</text>
  <text x="1370" y="656" font-family="Chalkboard SE" font-size="12" fill="#6b7280" text-anchor="middle">hook: evaluateAfterMove()</text>

  <rect x="1180" y="694" width="380" height="56" rx="10" fill="none" stroke="#7e22ce" stroke-width="3"/>
  <text x="1370" y="720" font-family="Chalkboard SE" font-size="14.5" fill="#111" text-anchor="middle" font-weight="bold">ChessGameImpl</text>
  <text x="1370" y="740" font-family="Chalkboard SE" font-size="12" fill="#6b7280" text-anchor="middle">customises check / mate messaging</text>

  <path d="M1370,456 L1370,482" stroke="#7e22ce" stroke-width="2.6" fill="none" marker-end="url(#ahv)"/>
  <text x="1382" y="475" font-family="Chalkboard SE" font-size="11.5" fill="#7e22ce">delegates</text>
  <path d="M1370,580 L1370,554" stroke="#7e22ce" stroke-width="2.4" stroke-dasharray="8,6" fill="none" marker-end="url(#triv)"/>
  <path d="M1370,694 L1370,672" stroke="#7e22ce" stroke-width="2.4" stroke-dasharray="8,6" fill="none" marker-end="url(#triv)"/>

  <!-- immutable board -->
  <rect x="1600" y="414" width="440" height="188" rx="10" fill="none" stroke="#2563eb" stroke-width="3"/>
  <text x="1820" y="444" font-family="Chalkboard SE" font-size="16.5" fill="#2563eb" text-anchor="middle" font-weight="bold">IMMUTABLE BOARD</text>
  <path d="M1614,456 L2026,456" stroke="#2563eb" stroke-width="2"/>
  <text x="1620" y="482" font-family="Chalkboard SE" font-size="14" fill="#111">withMove(from,to) &#8594; a NEW Board</text>
  <text x="1620" y="506" font-family="Chalkboard SE" font-size="14" fill="#111">isPathClear(from,to)</text>
  <text x="1620" y="534" font-family="Chalkboard SE" font-size="13.5" fill="#111">check sim runs on a copy — no</text>
  <text x="1620" y="558" font-family="Chalkboard SE" font-size="13.5" fill="#111">mutate-and-undo, no undo stack</text>
  <text x="1620" y="586" font-family="Chalkboard SE" font-size="12" fill="#6b7280">each sim allocates; correct &amp; simple</text>
  <path d="M1560,616 L1600,556" stroke="#2563eb" stroke-width="2.4" fill="none" marker-end="url(#ahb)"/>

  <!-- piece / model box -->
  <rect x="1600" y="620" width="440" height="112" rx="10" fill="none" stroke="#2563eb" stroke-width="3"/>
  <text x="1820" y="650" font-family="Chalkboard SE" font-size="15.5" fill="#2563eb" text-anchor="middle" font-weight="bold">MODEL</text>
  <text x="1620" y="678" font-family="Chalkboard SE" font-size="14" fill="#111">Piece &#183; Color &#183; PieceType &#183; Position</text>
  <text x="1620" y="702" font-family="Chalkboard SE" font-size="14" fill="#111">Position: 'e2' &#8594; (row, col) algebraic</text>
  <text x="1620" y="724" font-family="Chalkboard SE" font-size="12" fill="#6b7280">read-only board view exposed to the UI</text>

  <!-- ===== ROW 3: CHECK / CHECKMATE / STALEMATE ===== -->
  <text x="120" y="818" font-family="Marker Felt" font-size="20" fill="#1e40af" font-weight="bold">CHECK / CHECKMATE / STALEMATE — evaluated after every move</text>

  <circle cx="150" cy="920" r="13" fill="#111"/>
  <path d="M164,920 L206,920" stroke="#111" stroke-width="3" fill="none" marker-end="url(#ah)"/>

  <rect x="210" y="860" width="320" height="120" rx="12" fill="none" stroke="#2563eb" stroke-width="3.2"/>
  <text x="370" y="906" font-family="Chalkboard SE" font-size="18" fill="#2563eb" text-anchor="middle" font-weight="bold">ACTIVE</text>
  <path d="M224,920 L516,920" stroke="#2563eb" stroke-width="2"/>
  <text x="370" y="948" font-family="Chalkboard SE" font-size="14" fill="#111" text-anchor="middle">normal play, king not attacked</text>

  <rect x="710" y="860" width="320" height="120" rx="12" fill="none" stroke="#ea580c" stroke-width="3.2"/>
  <text x="870" y="906" font-family="Chalkboard SE" font-size="18" fill="#ea580c" text-anchor="middle" font-weight="bold">CHECK</text>
  <path d="M724,920 L1016,920" stroke="#ea580c" stroke-width="2"/>
  <text x="870" y="948" font-family="Chalkboard SE" font-size="14" fill="#111" text-anchor="middle">king attacked — must escape now</text>

  <rect x="1190" y="855" width="340" height="110" rx="12" fill="none" stroke="#dc2626" stroke-width="3.2"/>
  <text x="1360" y="898" font-family="Chalkboard SE" font-size="18" fill="#dc2626" text-anchor="middle" font-weight="bold">CHECKMATE</text>
  <path d="M1204,910 L1516,910" stroke="#dc2626" stroke-width="2"/>
  <text x="1360" y="938" font-family="Chalkboard SE" font-size="13.5" fill="#111" text-anchor="middle">in check + no legal move &#8594; game over</text>

  <rect x="210" y="1010" width="320" height="104" rx="12" fill="none" stroke="#6b7280" stroke-width="3.2"/>
  <text x="370" y="1048" font-family="Chalkboard SE" font-size="18" fill="#6b7280" text-anchor="middle" font-weight="bold">STALEMATE</text>
  <path d="M224,1060 L516,1060" stroke="#6b7280" stroke-width="2"/>
  <text x="370" y="1088" font-family="Chalkboard SE" font-size="13" fill="#111" text-anchor="middle">no legal move, not in check &#8594; draw</text>

  <!-- state transitions -->
  <path d="M530,904 L706,904" stroke="#111" stroke-width="3" fill="none" marker-end="url(#ah)"/>
  <text x="540" y="892" font-family="Chalkboard SE" font-size="13" fill="#111">opponent attacks king</text>
  <path d="M760,980 C760,1024 590,1024 550,982" stroke="#6b7280" stroke-width="2.4" stroke-dasharray="8,5" fill="none" marker-end="url(#ahd)"/>
  <text x="600" y="1044" font-family="Chalkboard SE" font-size="12.5" fill="#6b7280" font-weight="bold">escape check</text>
  <path d="M1030,910 L1186,910" stroke="#dc2626" stroke-width="3" fill="none" marker-end="url(#ahr)"/>
  <text x="1044" y="898" font-family="Chalkboard SE" font-size="12.5" fill="#dc2626" font-weight="bold">no legal moves</text>
  <path d="M320,980 L320,1006" stroke="#6b7280" stroke-width="3" fill="none" marker-end="url(#ahd)"/>
  <text x="332" y="1000" font-family="Chalkboard SE" font-size="12.5" fill="#6b7280">no legal move (not in check)</text>

  <!-- CHECK DETECTION box -->
  <rect x="1580" y="855" width="480" height="260" rx="12" fill="none" stroke="#15803d" stroke-width="3.2"/>
  <text x="1600" y="887" font-family="Marker Felt" font-size="18" fill="#15803d" font-weight="bold">CHECK DETECTION — O(n), n &#8804; 16</text>
  <path d="M1594,899 L2046,899" stroke="#15803d" stroke-width="2"/>
  <text x="1600" y="927" font-family="Chalkboard SE" font-size="14" fill="#111">findKing(color)</text>
  <text x="1600" y="951" font-family="Chalkboard SE" font-size="14" fill="#111">&#8594; isSquareAttackedBy(opponent)</text>
  <text x="1600" y="983" font-family="Chalkboard SE" font-size="14" fill="#111">checkmate = in check AND every legal</text>
  <text x="1600" y="1007" font-family="Chalkboard SE" font-size="14" fill="#111">move still leaves the king attacked</text>
  <text x="1600" y="1039" font-family="Chalkboard SE" font-size="14" fill="#111">stalemate = not in check AND no legal move</text>
  <text x="1600" y="1071" font-family="Chalkboard SE" font-size="12.5" fill="#6b7280">full scan is fine on 8×8; bitboards are for engines</text>
  <text x="1600" y="1097" font-family="Chalkboard SE" font-size="12.5" fill="#dc2626" font-weight="bold">a move that leaves your own king in check is illegal</text>

  <!-- ===== STICKIES ===== -->
  <g transform="rotate(-2 400 1245)">
    <rect x="120" y="1160" width="560" height="170" fill="#fef9c3" stroke="#eab308" stroke-width="2.5" rx="4"/>
    <text x="142" y="1194" font-family="Chalkboard SE" font-size="15.5" fill="#7f1d1d" font-weight="bold">IMMUTABLE BOARD = clean check sim</text>
    <text x="142" y="1224" font-family="Chalkboard SE" font-size="14" fill="#713f12">wouldLeaveInCheck copies via withMove()</text>
    <text x="142" y="1248" font-family="Chalkboard SE" font-size="14" fill="#713f12">instead of mutate-try-undo. No half-applied</text>
    <text x="142" y="1272" font-family="Chalkboard SE" font-size="14" fill="#713f12">state to unwind, safe to share &amp; thread.</text>
    <text x="142" y="1298" font-family="Chalkboard SE" font-size="13.5" fill="#713f12">cost: an allocation per simulated move.</text>
  </g>
  <circle cx="400" cy="1164" r="7" fill="#dc2626"/>

  <g transform="rotate(1.5 1000 1245)">
    <rect x="720" y="1160" width="560" height="170" fill="#fef9c3" stroke="#eab308" stroke-width="2.5" rx="4"/>
    <text x="742" y="1194" font-family="Chalkboard SE" font-size="15.5" fill="#7f1d1d" font-weight="bold">STRATEGY vs 500-line switch</text>
    <text x="742" y="1224" font-family="Chalkboard SE" font-size="14" fill="#713f12">each piece owns its move rule; the game</text>
    <text x="742" y="1248" font-family="Chalkboard SE" font-size="14" fill="#713f12">never branches on PieceType.</text>
    <text x="742" y="1272" font-family="Chalkboard SE" font-size="14" fill="#713f12">castling / en passant = extend the King /</text>
    <text x="742" y="1296" font-family="Chalkboard SE" font-size="14" fill="#713f12">Pawn strategy, not the game class.</text>
  </g>
  <circle cx="1000" cy="1164" r="7" fill="#dc2626"/>

  <g transform="rotate(-1.5 1690 1245)">
    <rect x="1360" y="1160" width="700" height="170" fill="#fef9c3" stroke="#eab308" stroke-width="2.5" rx="4"/>
    <text x="1382" y="1194" font-family="Chalkboard SE" font-size="15.5" fill="#7f1d1d" font-weight="bold">PATTERNS TO NAME + FOLLOW-UPS:</text>
    <text x="1382" y="1224" font-family="Chalkboard SE" font-size="14" fill="#14532d">Strategy (piece rules) &#183; Template Method (makeMove) &#183; Facade</text>
    <text x="1382" y="1250" font-family="Chalkboard SE" font-size="14" fill="#713f12">castling / en passant / promotion = strategy + board metadata</text>
    <text x="1382" y="1276" font-family="Chalkboard SE" font-size="14" fill="#713f12">AI move-gen reuses the same validators for every piece</text>
    <text x="1382" y="1302" font-family="Chalkboard SE" font-size="14" fill="#713f12">online play &#8594; synchronized makeMove on the game instance</text>
  </g>
  <circle cx="1690" cy="1164" r="7" fill="#dc2626"/>

  <!-- WHITEBOARD ORDER -->
  <text x="60" y="1386" font-family="Marker Felt" font-size="19" fill="#1e40af" font-weight="bold">WHITEBOARD ORDER:</text>
  <text x="270" y="1386" font-family="Chalkboard SE" font-size="15.5" fill="#111">&#9312;-&#9317; the makeMove() pipeline (Template Method) &#8594; Strategy supplies each piece's rule &#8594; immutable Board powers check sim &#8594; status = check / checkmate / stalemate</text>

  <!-- LEGEND -->
  <rect x="60" y="1412" width="2020" height="76" rx="14" fill="none" stroke="#2563eb" stroke-width="2.6" stroke-dasharray="10,8"/>
  <text x="88" y="1458" font-family="Marker Felt" font-size="22" fill="#1e40af" font-weight="bold">LEGEND</text>
  <g font-family="Chalkboard SE" font-size="13.5" fill="#111">
    <rect x="240" y="1438" width="22" height="22" rx="5" fill="none" stroke="#2563eb" stroke-width="3"/><text x="272" y="1455">pipeline / board / model</text>
    <rect x="510" y="1438" width="22" height="22" rx="5" fill="none" stroke="#ea580c" stroke-width="3"/><text x="542" y="1455">Strategy (piece rules)</text>
    <rect x="770" y="1438" width="22" height="22" rx="5" fill="none" stroke="#7e22ce" stroke-width="3"/><text x="802" y="1455">Facade / Template class</text>
    <rect x="1040" y="1438" width="22" height="22" rx="5" fill="none" stroke="#dc2626" stroke-width="3"/><text x="1072" y="1455">checkmate / illegal</text>
    <path d="M1270,1449 L1330,1449" stroke="#15803d" stroke-width="2.8" fill="none" marker-end="url(#ahg)"/><text x="1344" y="1455">valid step</text>
    <path d="M1470,1449 L1530,1449" stroke="#dc2626" stroke-width="2.6" stroke-dasharray="7,5" fill="none" marker-end="url(#ahr)"/><text x="1544" y="1455">reject path</text>
    <path d="M1680,1449 L1740,1449" stroke="#ea580c" stroke-width="2.4" stroke-dasharray="8,6" fill="none" marker-end="url(#trio)"/><text x="1754" y="1455">implements</text>
    <rect x="1900" y="1438" width="22" height="22" rx="5" fill="#fef9c3" stroke="#eab308" stroke-width="2.4"/><text x="1932" y="1455">insight</text>
  </g>
</svg>
