<svg xmlns="http://www.w3.org/2000/svg" width="2140" height="1210" viewBox="0 0 2140 1210">
  <defs>
    <marker id="ah" markerWidth="12" markerHeight="10" refX="10" refY="5" orient="auto"><path d="M0,0 L11,5 L0,10 z" fill="#111"/></marker>
    <marker id="ahb" markerWidth="12" markerHeight="10" refX="10" refY="5" orient="auto"><path d="M0,0 L11,5 L0,10 z" fill="#2563eb"/></marker>
    <marker id="aho" markerWidth="12" markerHeight="10" refX="10" refY="5" orient="auto"><path d="M0,0 L11,5 L0,10 z" fill="#ea580c"/></marker>
    <marker id="ahg" markerWidth="12" markerHeight="10" refX="10" refY="5" orient="auto"><path d="M0,0 L11,5 L0,10 z" fill="#15803d"/></marker>
    <marker id="ahp" markerWidth="12" markerHeight="10" refX="10" refY="5" orient="auto"><path d="M0,0 L11,5 L0,10 z" fill="#db2777"/></marker>
    <marker id="ahv" markerWidth="12" markerHeight="10" refX="10" refY="5" orient="auto"><path d="M0,0 L11,5 L0,10 z" fill="#7e22ce"/></marker>
    <marker id="ahr" markerWidth="12" markerHeight="10" refX="10" refY="5" orient="auto"><path d="M0,0 L11,5 L0,10 z" fill="#dc2626"/></marker>
    <marker id="trib" markerWidth="17" markerHeight="15" refX="15" refY="7.5" orient="auto"><path d="M1,1 L15,7.5 L1,14 z" fill="#fff" stroke="#2563eb" stroke-width="2"/></marker>
    <marker id="trig" markerWidth="17" markerHeight="15" refX="15" refY="7.5" orient="auto"><path d="M1,1 L15,7.5 L1,14 z" fill="#fff" stroke="#16a34a" stroke-width="2"/></marker>
    <marker id="trio" markerWidth="17" markerHeight="15" refX="15" refY="7.5" orient="auto"><path d="M1,1 L15,7.5 L1,14 z" fill="#fff" stroke="#ea580c" stroke-width="2"/></marker>
  </defs>

  <rect width="2140" height="1210" fill="#ffffff"/>

  <!-- ═════════ TITLE ═════════ -->
  <text x="1070" y="52" font-family="Marker Felt" font-size="46" fill="#1e40af" text-anchor="middle" font-weight="bold">KV STORE — CLASS DESIGN (LLD)</text>
  <path d="M640,68 Q1070,84 1500,66" stroke="#1e40af" stroke-width="3.5" fill="none" stroke-linecap="round"/>

  <!-- ═════════ 1: FACADE + SEAM ═════════ -->
  <circle cx="80" cy="112" r="14" fill="none" stroke="#7e22ce" stroke-width="2.6"/>
  <text x="80" y="119" font-family="Chalkboard SE" font-size="16" fill="#7e22ce" text-anchor="middle" font-weight="bold">1</text>
  <text x="108" y="119" font-family="Marker Felt" font-size="20" fill="#7e22ce" font-weight="bold">THE FACADE + SEAM</text>

  <!-- Facade -->
  <rect x="62" y="134" width="470" height="104" rx="12" fill="none" stroke="#7e22ce" stroke-width="3.2"/>
  <text x="297" y="164" font-family="Chalkboard SE" font-size="18" fill="#7e22ce" text-anchor="middle" font-weight="bold">KVStore — FACADE</text>
  <path d="M76,176 L518,176" stroke="#7e22ce" stroke-width="2"/>
  <text x="80" y="202" font-family="Chalkboard SE" font-size="14" fill="#111">service(): KVStoreService</text>
  <text x="80" y="228" font-family="Chalkboard SE" font-size="12.5" fill="#6b7280">interview entry point — wraps ONE service</text>

  <!-- facade -> interface -->
  <path d="M297,238 L297,278" stroke="#7e22ce" stroke-width="2.8" fill="none" marker-end="url(#ahv)"/>
  <text x="309" y="264" font-family="Chalkboard SE" font-size="12" fill="#7e22ce">delegates to</text>

  <!-- Seam interface -->
  <rect x="62" y="280" width="470" height="360" rx="12" fill="none" stroke="#16a34a" stroke-width="3"/>
  <text x="297" y="310" font-family="Chalkboard SE" font-size="16.5" fill="#111" text-anchor="middle" font-weight="bold">&#171;interface&#187; KVStoreService</text>
  <path d="M76,322 L518,322" stroke="#16a34a" stroke-width="2"/>
  <text x="80" y="348" font-family="Chalkboard SE" font-size="13.5" fill="#111">put(k,v) &#183; put(k,v, ttlSeconds)</text>
  <text x="80" y="371" font-family="Chalkboard SE" font-size="13.5" fill="#111">get(k): String&#160;&#160;&#183;&#160;&#160;delete(k)</text>
  <text x="80" y="394" font-family="Chalkboard SE" font-size="13.5" fill="#111">exists(k): boolean</text>
  <text x="80" y="417" font-family="Chalkboard SE" font-size="13.5" fill="#111">keys(pattern): List&lt;String&gt;</text>
  <text x="80" y="440" font-family="Chalkboard SE" font-size="13.5" fill="#111">beginTransaction(): String</text>
  <text x="80" y="463" font-family="Chalkboard SE" font-size="13.5" fill="#111">commitTransaction(id) &#183; rollbackTransaction(id)</text>
  <text x="80" y="486" font-family="Chalkboard SE" font-size="13.5" fill="#111">createSnapshot(): String</text>
  <text x="80" y="509" font-family="Chalkboard SE" font-size="13.5" fill="#111">restoreSnapshot(id)</text>
  <text x="80" y="532" font-family="Chalkboard SE" font-size="13.5" fill="#111">walSize(): int &#183; shutdown()</text>
  <path d="M76,548 L518,548" stroke="#16a34a" stroke-width="1.4"/>
  <text x="80" y="573" font-family="Chalkboard SE" font-size="12.5" fill="#6b7280">errors as return values — get() ⇒ null = MISS</text>
  <text x="80" y="596" font-family="Chalkboard SE" font-size="12.5" fill="#6b7280">no checked exceptions on the hot path</text>
  <text x="80" y="622" font-family="Chalkboard SE" font-size="12.5" fill="#15803d" font-weight="bold">the seam — swap impls behind this interface ✓</text>

  <!-- ═════════ 2: THE CORE ═════════ -->
  <circle cx="602" cy="112" r="14" fill="none" stroke="#2563eb" stroke-width="2.6"/>
  <text x="602" y="119" font-family="Chalkboard SE" font-size="16" fill="#2563eb" text-anchor="middle" font-weight="bold">2</text>
  <text x="630" y="119" font-family="Marker Felt" font-size="20" fill="#2563eb" font-weight="bold">THE CORE — the god object</text>

  <rect x="584" y="134" width="616" height="506" rx="12" fill="none" stroke="#2563eb" stroke-width="3.4"/>
  <text x="892" y="164" font-family="Chalkboard SE" font-size="18" fill="#111" text-anchor="middle" font-weight="bold">InMemoryKVStore</text>
  <text x="892" y="184" font-family="Chalkboard SE" font-size="12.5" fill="#6b7280" text-anchor="middle">implements KVStoreService</text>
  <path d="M598,196 L1186,196" stroke="#2563eb" stroke-width="2"/>
  <text x="602" y="222" font-family="Chalkboard SE" font-size="13.5" fill="#111">store: ConcurrentHashMap&lt;String, KeyValue&gt;</text>
  <text x="602" y="245" font-family="Chalkboard SE" font-size="13.5" fill="#111">transactions: ConcurrentHashMap&lt;String, Transaction&gt;</text>
  <text x="602" y="268" font-family="Chalkboard SE" font-size="13.5" fill="#111">snapshots: ConcurrentHashMap&lt;String, Snapshot&gt;</text>
  <text x="602" y="291" font-family="Chalkboard SE" font-size="13.5" fill="#111">wal: WriteAheadLog</text>
  <text x="602" y="314" font-family="Chalkboard SE" font-size="13.5" fill="#111">evictionPolicy: EvictionPolicy</text>
  <text x="602" y="337" font-family="Chalkboard SE" font-size="13.5" fill="#111">storeLock: ReadWriteLock (ReentrantRWLock)</text>
  <text x="602" y="360" font-family="Chalkboard SE" font-size="13.5" fill="#111">ttlCleanupScheduler: ScheduledExecutorService</text>
  <path d="M598,374 L1186,374" stroke="#2563eb" stroke-width="1.4"/>
  <text x="602" y="400" font-family="Chalkboard SE" font-size="13.5" fill="#111">putInternal(k,v,ttl) — WAL first, then write-lock</text>
  <text x="602" y="423" font-family="Chalkboard SE" font-size="13.5" fill="#111">get(k) — read-lock, lazy-expire, recordAccess</text>
  <text x="602" y="446" font-family="Chalkboard SE" font-size="13.5" fill="#111">delete(k) &#183; exists(k) &#183; keys(pattern)</text>
  <text x="602" y="469" font-family="Chalkboard SE" font-size="13.5" fill="#111">begin / commit / rollbackTransaction(id)</text>
  <text x="602" y="492" font-family="Chalkboard SE" font-size="13.5" fill="#111">createSnapshot() &#183; restoreSnapshot(id)</text>
  <text x="602" y="515" font-family="Chalkboard SE" font-size="13.5" fill="#111">cleanupExpiredKeys() — the 30s background sweeper</text>
  <path d="M598,530 L1186,530" stroke="#2563eb" stroke-width="1.4"/>
  <text x="602" y="556" font-family="Chalkboard SE" font-size="12.5" fill="#dc2626" font-weight="bold">WAL append happens BEFORE the write lock — durability first</text>
  <text x="602" y="579" font-family="Chalkboard SE" font-size="12.5" fill="#15803d" font-weight="bold">ONE lock guards store + evictionPolicy so they never diverge ✓</text>
  <text x="602" y="602" font-family="Chalkboard SE" font-size="12.5" fill="#15803d" font-weight="bold">store = ConcurrentHashMap ⇒ lock-free point reads</text>
  <text x="602" y="626" font-family="Chalkboard SE" font-size="12.5" fill="#6b7280">the class the interviewer reads first</text>

  <!-- implements arrow core -> interface -->
  <path d="M584,300 L536,300" stroke="#2563eb" stroke-width="2.4" stroke-dasharray="8,6" fill="none" marker-end="url(#trig)"/>

  <!-- ═════════ 3: COLLABORATORS cluster ═════════ -->
  <rect x="1234" y="128" width="856" height="512" rx="16" fill="none" stroke="#ea580c" stroke-width="3" stroke-dasharray="14,9"/>
  <circle cx="1264" cy="112" r="14" fill="none" stroke="#ea580c" stroke-width="2.6"/>
  <text x="1264" y="119" font-family="Chalkboard SE" font-size="16" fill="#ea580c" text-anchor="middle" font-weight="bold">3</text>
  <text x="1292" y="119" font-family="Marker Felt" font-size="20" fill="#ea580c" font-weight="bold">COLLABORATORS — persistence, eviction, TTL</text>

  <!-- WAL -->
  <rect x="1254" y="150" width="404" height="192" rx="10" fill="none" stroke="#ea580c" stroke-width="3"/>
  <text x="1272" y="178" font-family="Chalkboard SE" font-size="17" fill="#111" font-weight="bold">WriteAheadLog</text>
  <ellipse cx="1618" cy="168" rx="20" ry="8" fill="none" stroke="#ea580c" stroke-width="2.2"/>
  <path d="M1598,168 L1598,188 M1638,168 L1638,188 M1598,188 A20,8 0 0 0 1638,188" stroke="#ea580c" stroke-width="2.2" fill="none"/>
  <path d="M1268,188 L1646,188" stroke="#ea580c" stroke-width="1.8"/>
  <text x="1272" y="213" font-family="Chalkboard SE" font-size="13.5" fill="#111">entries: List&lt;String&gt; (synchronized)</text>
  <text x="1272" y="236" font-family="Chalkboard SE" font-size="13.5" fill="#111">appendPut(k,v) &#8594; "PUT|k|v"</text>
  <text x="1272" y="259" font-family="Chalkboard SE" font-size="13.5" fill="#111">appendDelete(k) &#8594; "DELETE|k"</text>
  <text x="1272" y="282" font-family="Chalkboard SE" font-size="13.5" fill="#111">replay(): List&lt;String&gt; &#183; size(): int</text>
  <text x="1272" y="308" font-family="Chalkboard SE" font-size="12.5" fill="#dc2626" font-weight="bold">append-only — never edited in place</text>
  <text x="1272" y="331" font-family="Chalkboard SE" font-size="12" fill="#6b7280">in-memory list here (FileChannel + fsync in prod)</text>

  <!-- EvictionPolicy interface -->
  <rect x="1686" y="150" width="384" height="150" rx="10" fill="none" stroke="#16a34a" stroke-width="3"/>
  <text x="1878" y="178" font-family="Chalkboard SE" font-size="15.5" fill="#111" text-anchor="middle" font-weight="bold">&#171;interface&#187; EvictionPolicy</text>
  <path d="M1700,190 L2058,190" stroke="#16a34a" stroke-width="2"/>
  <text x="1706" y="215" font-family="Chalkboard SE" font-size="13.5" fill="#111">recordAccess(k) &#183; recordInsert(k)</text>
  <text x="1706" y="238" font-family="Chalkboard SE" font-size="13.5" fill="#111">remove(k) &#183; evictIfNeeded(): String</text>
  <text x="1706" y="261" font-family="Chalkboard SE" font-size="13.5" fill="#111">size(): int</text>
  <text x="1706" y="288" font-family="Chalkboard SE" font-size="12.5" fill="#7e22ce" font-weight="bold">STRATEGY knob — swap LRU / LFU / FIFO</text>

  <!-- LruEvictionPolicy -->
  <rect x="1686" y="360" width="384" height="152" rx="10" fill="none" stroke="#ea580c" stroke-width="3"/>
  <text x="1878" y="388" font-family="Chalkboard SE" font-size="16" fill="#111" text-anchor="middle" font-weight="bold">LruEvictionPolicy</text>
  <path d="M1700,400 L2058,400" stroke="#ea580c" stroke-width="1.8"/>
  <text x="1706" y="426" font-family="Chalkboard SE" font-size="13" fill="#111">accessOrder: LinkedHashMap(cap, .75f, true)</text>
  <text x="1706" y="449" font-family="Chalkboard SE" font-size="13.5" fill="#111">evictIfNeeded ⇒ eldest = first key</text>
  <text x="1706" y="472" font-family="Chalkboard SE" font-size="13" fill="#111">all methods synchronized</text>
  <text x="1706" y="498" font-family="Chalkboard SE" font-size="12.5" fill="#15803d" font-weight="bold">access-order map = O(1) LRU, no hand-rolled DLL</text>

  <!-- Lru implements EvictionPolicy -->
  <path d="M1878,360 L1878,304" stroke="#ea580c" stroke-width="2.4" stroke-dasharray="8,6" fill="none" marker-end="url(#trig)"/>
  <text x="1890" y="336" font-family="Chalkboard SE" font-size="11.5" fill="#16a34a">implements</text>

  <!-- TTL scheduler -->
  <rect x="1254" y="360" width="404" height="152" rx="10" fill="none" stroke="#6b7280" stroke-width="2.8"/>
  <text x="1456" y="388" font-family="Chalkboard SE" font-size="15.5" fill="#111" text-anchor="middle" font-weight="bold">ScheduledExecutorService (TTL)</text>
  <path d="M1268,400 L1644,400" stroke="#6b7280" stroke-width="1.8"/>
  <text x="1272" y="426" font-family="Chalkboard SE" font-size="13.5" fill="#111">single daemon thread "kvstore-ttl-cleanup"</text>
  <text x="1272" y="449" font-family="Chalkboard SE" font-size="13.5" fill="#111">scheduleAtFixedRate(cleanup, 30s, 30s)</text>
  <text x="1272" y="472" font-family="Chalkboard SE" font-size="13.5" fill="#111">sweeps expired keys under the write lock</text>
  <text x="1272" y="498" font-family="Chalkboard SE" font-size="12.5" fill="#15803d" font-weight="bold">lazy expire on GET + active background sweep</text>

  <!-- ═════════ 4: MODEL cluster ═════════ -->
  <rect x="50" y="690" width="1340" height="270" rx="16" fill="none" stroke="#2563eb" stroke-width="3" stroke-dasharray="14,9"/>
  <circle cx="80" cy="674" r="14" fill="none" stroke="#2563eb" stroke-width="2.6"/>
  <text x="80" y="681" font-family="Chalkboard SE" font-size="16" fill="#2563eb" text-anchor="middle" font-weight="bold">4</text>
  <text x="108" y="681" font-family="Marker Felt" font-size="20" fill="#2563eb" font-weight="bold">THE MODEL — what the store holds</text>

  <!-- KeyValue -->
  <rect x="70" y="712" width="410" height="228" rx="10" fill="none" stroke="#2563eb" stroke-width="3"/>
  <text x="275" y="740" font-family="Chalkboard SE" font-size="16" fill="#111" text-anchor="middle" font-weight="bold">KeyValue</text>
  <path d="M84,752 L466,752" stroke="#2563eb" stroke-width="2"/>
  <text x="90" y="778" font-family="Chalkboard SE" font-size="14" fill="#111">key: String (final)</text>
  <text x="90" y="801" font-family="Chalkboard SE" font-size="14" fill="#111">value: String</text>
  <text x="90" y="824" font-family="Chalkboard SE" font-size="14" fill="#111">timestamp: LocalDateTime</text>
  <text x="90" y="847" font-family="Chalkboard SE" font-size="14" fill="#111">ttl: Long (nullable)</text>
  <path d="M84,860 L466,860" stroke="#2563eb" stroke-width="1.4"/>
  <text x="90" y="885" font-family="Chalkboard SE" font-size="13.5" fill="#111">isExpired() ⇒ now &gt; timestamp + ttl</text>
  <text x="90" y="910" font-family="Chalkboard SE" font-size="12.5" fill="#dc2626" font-weight="bold">no version field — CAS is aspirational, not built</text>
  <text x="90" y="932" font-family="Chalkboard SE" font-size="12" fill="#6b7280">the stored cell (value + TTL metadata)</text>

  <!-- Transaction -->
  <rect x="500" y="712" width="410" height="228" rx="10" fill="none" stroke="#7e22ce" stroke-width="3"/>
  <text x="705" y="740" font-family="Chalkboard SE" font-size="16" fill="#111" text-anchor="middle" font-weight="bold">Transaction</text>
  <path d="M514,752 L896,752" stroke="#7e22ce" stroke-width="2"/>
  <text x="520" y="778" font-family="Chalkboard SE" font-size="14" fill="#111">id: String</text>
  <text x="520" y="801" font-family="Chalkboard SE" font-size="14" fill="#111">changes: Map&lt;String,String&gt; — write buffer</text>
  <text x="520" y="824" font-family="Chalkboard SE" font-size="14" fill="#111">committed: boolean</text>
  <path d="M514,838 L896,838" stroke="#7e22ce" stroke-width="1.4"/>
  <text x="520" y="864" font-family="Chalkboard SE" font-size="13.5" fill="#111">put ⇒ buffer &#183; commit ⇒ flush &#183; rollback ⇒ clear</text>
  <text x="520" y="889" font-family="Chalkboard SE" font-size="12.5" fill="#15803d" font-weight="bold">staging buffer — commit replays each via put()</text>
  <text x="520" y="912" font-family="Chalkboard SE" font-size="12.5" fill="#dc2626" font-weight="bold">no version validation / isolation in this impl</text>
  <text x="520" y="933" font-family="Chalkboard SE" font-size="12" fill="#6b7280">atomic-ish batch, not full ACID</text>

  <!-- Snapshot -->
  <rect x="930" y="712" width="440" height="228" rx="10" fill="none" stroke="#7e22ce" stroke-width="3"/>
  <text x="1150" y="740" font-family="Chalkboard SE" font-size="16" fill="#111" text-anchor="middle" font-weight="bold">Snapshot</text>
  <path d="M944,752 L1356,752" stroke="#7e22ce" stroke-width="2"/>
  <text x="950" y="778" font-family="Chalkboard SE" font-size="14" fill="#111">id: String</text>
  <text x="950" y="801" font-family="Chalkboard SE" font-size="14" fill="#111">data: Map&lt;String,String&gt;</text>
  <text x="950" y="824" font-family="Chalkboard SE" font-size="14" fill="#111">timestamp: LocalDateTime</text>
  <path d="M944,838 L1356,838" stroke="#7e22ce" stroke-width="1.4"/>
  <text x="950" y="864" font-family="Chalkboard SE" font-size="13.5" fill="#111">ctor + getData() both defensive-copy the map</text>
  <text x="950" y="889" font-family="Chalkboard SE" font-size="12.5" fill="#15803d" font-weight="bold">immutable snapshot ⇒ safe to restore later</text>
  <text x="950" y="912" font-family="Chalkboard SE" font-size="12" fill="#6b7280">point-in-time copy taken under the read lock</text>

  <!-- ═════════ relationship arrows: core -> collaborators & model ═════════ -->
  <!-- core -> WAL -->
  <path d="M1200,290 L1250,270" stroke="#111" stroke-width="2.6" fill="none" marker-end="url(#ah)"/>
  <path d="M1194,292 L1204,286 L1214,292 L1204,298 z" fill="#2563eb"/>
  <text x="1206" y="262" font-family="Chalkboard SE" font-size="12" fill="#111">wal</text>
  <!-- core -> TTL scheduler -->
  <path d="M1200,420 L1250,428" stroke="#111" stroke-width="2.6" fill="none" marker-end="url(#ah)"/>
  <path d="M1194,418 L1204,412 L1214,418 L1204,424 z" fill="#2563eb"/>
  <text x="1206" y="410" font-family="Chalkboard SE" font-size="12" fill="#111">schedules</text>
  <!-- core -> EvictionPolicy (routed through the mid corridor, avoids WAL) -->
  <path d="M1200,330 L1250,351 L1662,351 L1662,242 L1684,242" stroke="#111" stroke-width="2.6" fill="none" marker-end="url(#ah)"/>
  <path d="M1194,332 L1204,326 L1214,332 L1204,338 z" fill="#2563eb"/>
  <text x="1250" y="368" font-family="Chalkboard SE" font-size="12" fill="#111">evictionPolicy</text>
  <!-- core -> model (down) -->
  <path d="M760,640 L760,708" stroke="#111" stroke-width="2.6" fill="none" marker-end="url(#ah)"/>
  <path d="M754,646 L764,640 L774,646 L764,652 z" fill="#2563eb"/>
  <text x="772" y="682" font-family="Chalkboard SE" font-size="12" fill="#111">holds &#8594; KeyValue / Transaction / Snapshot (all "1..*")</text>

  <!-- ═════════ STICKY A: WAL-FIRST ═════════ -->
  <g transform="rotate(-2 1585 780)">
    <rect x="1420" y="695" width="340" height="176" fill="#fef9c3" stroke="#eab308" stroke-width="2.5" rx="4"/>
    <text x="1438" y="727" font-family="Chalkboard SE" font-size="15" fill="#7f1d1d" font-weight="bold">WHY WAL-FIRST?</text>
    <text x="1438" y="755" font-family="Chalkboard SE" font-size="13.5" fill="#713f12">Append to the log BEFORE touching</text>
    <text x="1438" y="778" font-family="Chalkboard SE" font-size="13.5" fill="#713f12">memory. Crash AFTER append ⇒ replay</text>
    <text x="1438" y="801" font-family="Chalkboard SE" font-size="13.5" fill="#713f12">recovers the write. Crash BEFORE ⇒</text>
    <text x="1438" y="824" font-family="Chalkboard SE" font-size="13.5" fill="#713f12">write is simply lost, store stays</text>
    <text x="1438" y="847" font-family="Chalkboard SE" font-size="13.5" fill="#713f12">consistent. Never a torn state.</text>
  </g>
  <circle cx="1585" cy="699" r="7" fill="#dc2626"/>

  <!-- ═════════ STICKY B: RWLock ═════════ -->
  <g transform="rotate(2 1930 800)">
    <rect x="1770" y="695" width="320" height="200" fill="#fef9c3" stroke="#eab308" stroke-width="2.5" rx="4"/>
    <text x="1788" y="727" font-family="Chalkboard SE" font-size="15" fill="#7f1d1d" font-weight="bold">ReadWriteLock:</text>
    <text x="1788" y="755" font-family="Chalkboard SE" font-size="13.5" fill="#713f12">many readers OR one writer. get()</text>
    <text x="1788" y="778" font-family="Chalkboard SE" font-size="13.5" fill="#713f12">takes the read lock; put / delete /</text>
    <text x="1788" y="801" font-family="Chalkboard SE" font-size="13.5" fill="#713f12">evict take the write lock — so the</text>
    <text x="1788" y="824" font-family="Chalkboard SE" font-size="13.5" fill="#713f12">store &amp; LRU order stay in sync.</text>
    <text x="1788" y="851" font-family="Chalkboard SE" font-size="13" fill="#92710c">get() briefly upgrades read&#8594;write ONLY</text>
    <text x="1788" y="874" font-family="Chalkboard SE" font-size="13" fill="#92710c">to purge a key it found expired.</text>
  </g>
  <circle cx="1930" cy="699" r="7" fill="#dc2626"/>

  <!-- ═════════ WHITEBOARD ORDER ═════════ -->
  <text x="60" y="1010" font-family="Marker Felt" font-size="19" fill="#1e40af" font-weight="bold">WHITEBOARD ORDER:</text>
  <text x="272" y="1010" font-family="Chalkboard SE" font-size="15.5" fill="#111">&#9312; KVStore facade &#8594; KVStoreService seam &#8594; &#9313; InMemoryKVStore (map + WAL + lock + scheduler) &#8594; &#9314; collaborators: WAL, EvictionPolicy Strategy, TTL sweeper &#8594; &#9315; model (KeyValue / Transaction / Snapshot)</text>

  <!-- ═════════ LEGEND ═════════ -->
  <rect x="50" y="1040" width="2040" height="150" rx="14" fill="none" stroke="#2563eb" stroke-width="2.6" stroke-dasharray="10,8"/>
  <text x="80" y="1100" font-family="Marker Felt" font-size="22" fill="#1e40af" font-weight="bold">LEGEND</text>
  <g font-family="Chalkboard SE" font-size="13.5" fill="#111">
    <rect x="230" y="1075" width="24" height="24" rx="5" fill="none" stroke="#7e22ce" stroke-width="3"/>
    <text x="264" y="1093">facade / model</text>
    <rect x="230" y="1120" width="24" height="24" rx="5" fill="none" stroke="#16a34a" stroke-width="3"/>
    <text x="264" y="1138">interfaces (seams)</text>
    <rect x="470" y="1075" width="24" height="24" rx="5" fill="none" stroke="#2563eb" stroke-width="3"/>
    <text x="504" y="1093">core / model</text>
    <rect x="470" y="1120" width="24" height="24" rx="5" fill="none" stroke="#ea580c" stroke-width="3"/>
    <text x="504" y="1138">collaborators</text>
    <rect x="700" y="1075" width="24" height="24" rx="5" fill="none" stroke="#6b7280" stroke-width="3"/>
    <text x="734" y="1093">TTL scheduler</text>
    <rect x="700" y="1120" width="24" height="24" rx="5" fill="#fef9c3" stroke="#eab308" stroke-width="2.5"/>
    <text x="734" y="1138">interview insight</text>
    <path d="M930,1087 L1000,1087" stroke="#111" stroke-width="2.8" fill="none" marker-end="url(#ah)"/>
    <text x="1014" y="1093">uses / holds</text>
    <path d="M930,1132 L1000,1132" stroke="#16a34a" stroke-width="2.4" stroke-dasharray="8,6" fill="none" marker-end="url(#trig)"/>
    <text x="1014" y="1138">implements</text>
    <path d="M1200,1132 L1212,1126 L1224,1132 L1212,1138 z" fill="#2563eb"/>
    <text x="1238" y="1138">composition (owns)</text>
    <circle cx="1212" cy="1087" r="12" fill="none" stroke="#2563eb" stroke-width="2.4"/>
    <text x="1212" y="1093" text-anchor="middle" fill="#2563eb" font-weight="bold" font-size="13">n</text>
    <text x="1238" y="1093">story step (read &#9312;&#8594;&#9315;)</text>
    <text x="1480" y="1093" fill="#6b7280">Patterns: Facade &#183; Strategy (eviction) &#183; WAL &#183; ReadWriteLock &#183; write-buffer txn</text>
    <text x="1480" y="1138" fill="#6b7280">In-memory KV store — WAL durability, TTL, LRU eviction, snapshots — LLD</text>
  </g>
</svg>
