<svg xmlns="http://www.w3.org/2000/svg" width="2140" height="1300" viewBox="0 0 2140 1300">
  <defs>
    <marker id="ah" markerWidth="12" markerHeight="10" refX="10" refY="5" orient="auto"><path d="M0,0 L11,5 L0,10 z" fill="#111"/></marker>
    <marker id="ahb" markerWidth="12" markerHeight="10" refX="10" refY="5" orient="auto"><path d="M0,0 L11,5 L0,10 z" fill="#2563eb"/></marker>
    <marker id="aho" markerWidth="12" markerHeight="10" refX="10" refY="5" orient="auto"><path d="M0,0 L11,5 L0,10 z" fill="#ea580c"/></marker>
    <marker id="ahg" markerWidth="12" markerHeight="10" refX="10" refY="5" orient="auto"><path d="M0,0 L11,5 L0,10 z" fill="#15803d"/></marker>
    <marker id="ahp" markerWidth="12" markerHeight="10" refX="10" refY="5" orient="auto"><path d="M0,0 L11,5 L0,10 z" fill="#db2777"/></marker>
    <marker id="ahr" markerWidth="12" markerHeight="10" refX="10" refY="5" orient="auto"><path d="M0,0 L11,5 L0,10 z" fill="#dc2626"/></marker>
    <marker id="ahd" markerWidth="12" markerHeight="10" refX="10" refY="5" orient="auto"><path d="M0,0 L11,5 L0,10 z" fill="#6b7280"/></marker>
    <marker id="ahv" markerWidth="12" markerHeight="10" refX="10" refY="5" orient="auto"><path d="M0,0 L11,5 L0,10 z" fill="#7e22ce"/></marker>
  </defs>

  <rect width="2140" height="1300" fill="#ffffff"/>

  <!-- ═════════ TITLE ═════════ -->
  <text x="1070" y="52" font-family="Marker Felt" font-size="45" fill="#1e40af" text-anchor="middle" font-weight="bold">KV STORE — WRITE PATH + CRASH RECOVERY</text>
  <path d="M540,68 Q1070,84 1600,66" stroke="#1e40af" stroke-width="3.5" fill="none" stroke-linecap="round"/>

  <!-- ═════════════════════ LANE A ═════════════════════ -->
  <text x="60" y="112" font-family="Marker Felt" font-size="21" fill="#1e40af" font-weight="bold">LANE A — WRITE PATH (steady state): log FIRST, then mutate under the lock</text>

  <!-- CALLER -->
  <rect x="60" y="150" width="240" height="150" rx="10" fill="none" stroke="#111" stroke-width="3"/>
  <text x="180" y="180" font-family="Chalkboard SE" font-size="17" fill="#111" text-anchor="middle" font-weight="bold">CALLER</text>
  <path d="M72,192 L288,192" stroke="#111" stroke-width="2"/>
  <text x="80" y="218" font-family="Chalkboard SE" font-size="13.5" fill="#111">put(key, value)</text>
  <text x="80" y="242" font-family="Chalkboard SE" font-size="13.5" fill="#111">put(key, value, ttl)</text>
  <text x="80" y="270" font-family="Chalkboard SE" font-size="13" fill="#6b7280">returns void — no result</text>
  <text x="80" y="291" font-family="Chalkboard SE" font-size="13" fill="#6b7280">to publish back</text>

  <!-- 1 -->
  <path d="M300,225 L376,225" stroke="#111" stroke-width="3" fill="none" marker-end="url(#ah)"/>
  <circle cx="338" cy="196" r="14" fill="none" stroke="#ea580c" stroke-width="2.6"/>
  <text x="338" y="203" font-family="Chalkboard SE" font-size="16" fill="#ea580c" text-anchor="middle" font-weight="bold">1</text>

  <!-- WAL -->
  <rect x="380" y="150" width="380" height="210" rx="10" fill="none" stroke="#ea580c" stroke-width="3.2"/>
  <text x="556" y="180" font-family="Chalkboard SE" font-size="16" fill="#ea580c" text-anchor="middle" font-weight="bold">WriteAheadLog</text>
  <ellipse cx="712" cy="170" rx="18" ry="7" fill="none" stroke="#ea580c" stroke-width="2.2"/>
  <path d="M694,170 L694,188 M730,170 L730,188 M694,188 A18,7 0 0 0 730,188" stroke="#ea580c" stroke-width="2.2" fill="none"/>
  <path d="M392,192 L748,192" stroke="#ea580c" stroke-width="2"/>
  <text x="400" y="218" font-family="Chalkboard SE" font-size="13.5" fill="#111" font-weight="bold">append BEFORE acquiring any lock</text>
  <text x="400" y="243" font-family="Chalkboard SE" font-size="13.5" fill="#111">appendPut(k,v) &#8594; "PUT|key|value"</text>
  <text x="400" y="267" font-family="Chalkboard SE" font-size="13.5" fill="#111">appendDelete(k) &#8594; "DELETE|key"</text>
  <text x="400" y="295" font-family="Chalkboard SE" font-size="12.5" fill="#dc2626" font-weight="bold">durability boundary — the log is the truth</text>
  <text x="400" y="318" font-family="Chalkboard SE" font-size="12" fill="#6b7280">append-only List&lt;String&gt; (FileChannel + fsync in prod)</text>
  <text x="400" y="341" font-family="Chalkboard SE" font-size="12" fill="#6b7280">O(1) sequential append — cheap</text>

  <!-- 2 -->
  <path d="M760,225 L836,225" stroke="#111" stroke-width="3" fill="none" marker-end="url(#ah)"/>
  <circle cx="798" cy="196" r="14" fill="none" stroke="#7e22ce" stroke-width="2.6"/>
  <text x="798" y="203" font-family="Chalkboard SE" font-size="16" fill="#7e22ce" text-anchor="middle" font-weight="bold">2</text>

  <!-- CRITICAL SECTION cluster -->
  <rect x="840" y="140" width="700" height="258" rx="14" fill="none" stroke="#7e22ce" stroke-width="3" stroke-dasharray="14,9"/>
  <text x="857" y="168" font-family="Marker Felt" font-size="17" fill="#7e22ce" font-weight="bold">CRITICAL SECTION — storeLock.writeLock() held</text>

  <!-- store.put -->
  <rect x="858" y="190" width="322" height="96" rx="10" fill="none" stroke="#2563eb" stroke-width="3"/>
  <text x="1019" y="218" font-family="Chalkboard SE" font-size="15.5" fill="#111" text-anchor="middle" font-weight="bold">store.put(key, new KeyValue)</text>
  <path d="M870,230 L1168,230" stroke="#2563eb" stroke-width="1.6"/>
  <text x="872" y="256" font-family="Chalkboard SE" font-size="13" fill="#111">ConcurrentHashMap put</text>
  <text x="872" y="278" font-family="Chalkboard SE" font-size="13" fill="#111">+ evictionPolicy.recordInsert(key)</text>
  <circle cx="880" cy="196" r="13" fill="#fff" stroke="#2563eb" stroke-width="2.6"/>
  <text x="880" y="202" font-family="Chalkboard SE" font-size="15" fill="#2563eb" text-anchor="middle" font-weight="bold">3</text>

  <!-- evictIfNeeded -->
  <rect x="1206" y="190" width="316" height="96" rx="10" fill="none" stroke="#2563eb" stroke-width="3"/>
  <text x="1364" y="218" font-family="Chalkboard SE" font-size="15.5" fill="#111" text-anchor="middle" font-weight="bold">evictIfNeeded()</text>
  <path d="M1218,230 L1510,230" stroke="#2563eb" stroke-width="1.6"/>
  <text x="1220" y="256" font-family="Chalkboard SE" font-size="13" fill="#111">accessOrder.size &gt; maxEntries?</text>
  <text x="1220" y="278" font-family="Chalkboard SE" font-size="13" fill="#111">under cap ⇒ return null, done</text>
  <circle cx="1228" cy="196" r="13" fill="#fff" stroke="#2563eb" stroke-width="2.6"/>
  <text x="1228" y="202" font-family="Chalkboard SE" font-size="15" fill="#2563eb" text-anchor="middle" font-weight="bold">4</text>

  <!-- store.put -> evictIfNeeded -->
  <path d="M1180,238 L1202,238" stroke="#2563eb" stroke-width="2.8" fill="none" marker-end="url(#ahb)"/>

  <!-- evict victim -->
  <rect x="1206" y="304" width="316" height="82" rx="10" fill="none" stroke="#dc2626" stroke-width="3"/>
  <text x="1364" y="330" font-family="Chalkboard SE" font-size="14" fill="#dc2626" text-anchor="middle" font-weight="bold">over cap ⇒ evict LRU victim</text>
  <text x="1220" y="354" font-family="Chalkboard SE" font-size="12.5" fill="#111">victim = eldest key (accessOrder head)</text>
  <text x="1220" y="374" font-family="Chalkboard SE" font-size="12.5" fill="#111">store.remove(victim) + wal.appendDelete(victim)</text>
  <circle cx="1228" cy="310" r="13" fill="#fff" stroke="#dc2626" stroke-width="2.6"/>
  <text x="1228" y="316" font-family="Chalkboard SE" font-size="15" fill="#dc2626" text-anchor="middle" font-weight="bold">5</text>

  <!-- evictIfNeeded -> evict victim -->
  <path d="M1364,286 L1364,300" stroke="#dc2626" stroke-width="2.8" fill="none" marker-end="url(#ahr)"/>
  <text x="1376" y="298" font-family="Chalkboard SE" font-size="12" fill="#dc2626">yes</text>

  <!-- appendDelete loop back to WAL -->
  <path d="M1206,356 L620,356 L620,362" stroke="#dc2626" stroke-width="2.4" stroke-dasharray="9,6" fill="none" marker-end="url(#ahr)"/>
  <text x="770" y="330" font-family="Chalkboard SE" font-size="12.5" fill="#dc2626" font-weight="bold">the eviction is logged too — "DELETE|victim"</text>

  <!-- ═════════ READ PATH strip ═════════ -->
  <text x="60" y="452" font-family="Marker Felt" font-size="19" fill="#15803d" font-weight="bold">READ PATH — get(key): read lock, lazy TTL check</text>

  <rect x="60" y="470" width="220" height="80" rx="9" fill="none" stroke="#111" stroke-width="2.8"/>
  <text x="170" y="502" font-family="Chalkboard SE" font-size="14.5" fill="#111" text-anchor="middle" font-weight="bold">get(key)</text>
  <text x="170" y="526" font-family="Chalkboard SE" font-size="12.5" fill="#6b7280" text-anchor="middle">read lock (shared)</text>

  <path d="M280,510 L356,510" stroke="#15803d" stroke-width="2.8" fill="none" marker-end="url(#ahg)"/>

  <rect x="360" y="470" width="250" height="80" rx="9" fill="none" stroke="#2563eb" stroke-width="2.8"/>
  <text x="485" y="502" font-family="Chalkboard SE" font-size="14.5" fill="#111" text-anchor="middle" font-weight="bold">store.get(key)</text>
  <text x="485" y="526" font-family="Chalkboard SE" font-size="12.5" fill="#6b7280" text-anchor="middle">O(1) hash lookup</text>

  <path d="M610,510 L686,510" stroke="#15803d" stroke-width="2.8" fill="none" marker-end="url(#ahg)"/>

  <!-- branch box -->
  <rect x="690" y="450" width="470" height="120" rx="10" fill="none" stroke="#15803d" stroke-width="2.8"/>
  <text x="925" y="478" font-family="Chalkboard SE" font-size="14.5" fill="#15803d" text-anchor="middle" font-weight="bold">three outcomes</text>
  <path d="M704,490 L1148,490" stroke="#15803d" stroke-width="1.6"/>
  <text x="710" y="514" font-family="Chalkboard SE" font-size="13" fill="#111">null&#160;&#160;&#8594; MISS (return null)</text>
  <text x="710" y="536" font-family="Chalkboard SE" font-size="13" fill="#dc2626">isExpired ⇒ purge (upgrade to write lock) &#8594; MISS</text>
  <text x="710" y="558" font-family="Chalkboard SE" font-size="13" fill="#15803d">live ⇒ evictionPolicy.recordAccess(key) &#8594; value</text>

  <!-- lazy TTL note -->
  <text x="1270" y="500" font-family="Chalkboard SE" font-size="13" fill="#6b7280">lazy expiry is checked on the read;</text>
  <text x="1270" y="522" font-family="Chalkboard SE" font-size="13" fill="#6b7280">a 30s background sweeper reclaims</text>
  <text x="1270" y="544" font-family="Chalkboard SE" font-size="13" fill="#6b7280">keys that are never read again.</text>

  <!-- ═════════ WAL -> Replay convergence (routed in clear corridors, avoids read boxes) ═════════ -->
  <path d="M745,360 L745,415 L1210,415 L1210,688" stroke="#6b7280" stroke-width="2.6" stroke-dasharray="9,7" fill="none" marker-end="url(#ahd)"/>
  <text x="880" y="408" font-family="Chalkboard SE" font-size="13.5" fill="#6b7280" font-weight="bold">the same durable log feeds recovery &#8594;</text>

  <!-- ═════════════════════ LANE B ═════════════════════ -->
  <text x="60" y="676" font-family="Marker Felt" font-size="21" fill="#ea580c" font-weight="bold">LANE B — CRASH RECOVERY (startup): rebuild state from a snapshot base + WAL tail</text>

  <!-- Startup -->
  <rect x="60" y="702" width="210" height="110" rx="10" fill="none" stroke="#111" stroke-width="3"/>
  <text x="165" y="742" font-family="Chalkboard SE" font-size="16" fill="#111" text-anchor="middle" font-weight="bold">STARTUP</text>
  <text x="165" y="768" font-family="Chalkboard SE" font-size="12.5" fill="#6b7280" text-anchor="middle">process (re)starts</text>
  <text x="165" y="790" font-family="Chalkboard SE" font-size="12.5" fill="#6b7280" text-anchor="middle">or restore requested</text>
  <circle cx="252" cy="716" r="14" fill="#fff" stroke="#ea580c" stroke-width="2.6"/>
  <text x="252" y="723" font-family="Chalkboard SE" font-size="16" fill="#ea580c" text-anchor="middle" font-weight="bold">6</text>

  <!-- Startup -> diamond -->
  <path d="M270,757 L316,757" stroke="#111" stroke-width="3" fill="none" marker-end="url(#ah)"/>

  <!-- decision diamond -->
  <path d="M420,700 L520,757 L420,814 L320,757 Z" fill="none" stroke="#7e22ce" stroke-width="3"/>
  <text x="420" y="752" font-family="Chalkboard SE" font-size="14" fill="#7e22ce" text-anchor="middle" font-weight="bold">Snapshot</text>
  <text x="420" y="772" font-family="Chalkboard SE" font-size="14" fill="#7e22ce" text-anchor="middle" font-weight="bold">exists?</text>

  <!-- yes -> load snapshot -->
  <path d="M470,728 L560,706" stroke="#7e22ce" stroke-width="2.8" fill="none" marker-end="url(#ahv)"/>
  <text x="486" y="704" font-family="Chalkboard SE" font-size="12.5" fill="#15803d" font-weight="bold">yes</text>
  <!-- no -> empty store -->
  <path d="M470,786 L560,822" stroke="#7e22ce" stroke-width="2.8" fill="none" marker-end="url(#ahv)"/>
  <text x="486" y="822" font-family="Chalkboard SE" font-size="12.5" fill="#dc2626" font-weight="bold">no</text>

  <!-- Load Snapshot -->
  <rect x="560" y="672" width="320" height="86" rx="10" fill="none" stroke="#7e22ce" stroke-width="3"/>
  <text x="720" y="700" font-family="Chalkboard SE" font-size="15" fill="#111" text-anchor="middle" font-weight="bold">LOAD SNAPSHOT (base)</text>
  <text x="574" y="724" font-family="Chalkboard SE" font-size="13" fill="#111">copy Snapshot.data &#8594; store</text>
  <text x="574" y="746" font-family="Chalkboard SE" font-size="12.5" fill="#6b7280">point-in-time checkpoint</text>

  <!-- Empty Store -->
  <rect x="560" y="792" width="320" height="66" rx="10" fill="none" stroke="#6b7280" stroke-width="2.8"/>
  <text x="720" y="820" font-family="Chalkboard SE" font-size="15" fill="#111" text-anchor="middle" font-weight="bold">EMPTY STORE</text>
  <text x="720" y="842" font-family="Chalkboard SE" font-size="12.5" fill="#6b7280" text-anchor="middle">start from an empty map</text>

  <!-- both -> Replay WAL -->
  <path d="M880,712 L940,730" stroke="#7e22ce" stroke-width="2.8" fill="none" marker-end="url(#ahv)"/>
  <path d="M880,822 L920,822 L920,780 L940,780" stroke="#6b7280" stroke-width="2.8" fill="none" marker-end="url(#ahd)"/>

  <!-- Replay WAL -->
  <rect x="944" y="690" width="396" height="150" rx="10" fill="none" stroke="#ea580c" stroke-width="3.2"/>
  <text x="1142" y="720" font-family="Chalkboard SE" font-size="16" fill="#ea580c" text-anchor="middle" font-weight="bold">REPLAY WAL (tail)</text>
  <path d="M956,732 L1328,732" stroke="#ea580c" stroke-width="2"/>
  <text x="964" y="758" font-family="Chalkboard SE" font-size="13.5" fill="#111">wal.replay() &#8594; List&lt;String&gt;</text>
  <text x="964" y="782" font-family="Chalkboard SE" font-size="13.5" fill="#111">for each line, in ORDER:</text>
  <text x="984" y="805" font-family="Chalkboard SE" font-size="13" fill="#111">"PUT|k|v" ⇒ put(k,v)&#160;&#160;&#183;&#160;&#160;"DELETE|k" ⇒ remove(k)</text>
  <text x="964" y="830" font-family="Chalkboard SE" font-size="12.5" fill="#15803d" font-weight="bold">idempotent — reapply rebuilds exact state</text>
  <circle cx="964" cy="696" r="14" fill="#fff" stroke="#ea580c" stroke-width="2.6"/>
  <text x="964" y="703" font-family="Chalkboard SE" font-size="16" fill="#ea580c" text-anchor="middle" font-weight="bold">7</text>

  <!-- Replay -> Ready -->
  <path d="M1340,760 L1416,760" stroke="#111" stroke-width="3" fill="none" marker-end="url(#ah)"/>
  <circle cx="1378" cy="730" r="14" fill="#fff" stroke="#15803d" stroke-width="2.6"/>
  <text x="1378" y="737" font-family="Chalkboard SE" font-size="16" fill="#15803d" text-anchor="middle" font-weight="bold">8</text>

  <!-- Store Ready -->
  <rect x="1420" y="700" width="300" height="120" rx="10" fill="none" stroke="#15803d" stroke-width="3.2"/>
  <text x="1570" y="740" font-family="Chalkboard SE" font-size="17" fill="#15803d" text-anchor="middle" font-weight="bold">STORE READY</text>
  <text x="1434" y="768" font-family="Chalkboard SE" font-size="13" fill="#111">state == pre-crash state</text>
  <text x="1434" y="791" font-family="Chalkboard SE" font-size="13" fill="#111">serving reads &amp; writes again</text>
  <text x="1434" y="812" font-family="Chalkboard SE" font-size="12.5" fill="#6b7280">back to Lane A</text>

  <!-- ═════════ STICKY A: SNAPSHOT = COMPACTION ═════════ -->
  <g transform="rotate(-2 1900 790)">
    <rect x="1745" y="700" width="330" height="190" fill="#fef9c3" stroke="#eab308" stroke-width="2.5" rx="4"/>
    <text x="1763" y="732" font-family="Chalkboard SE" font-size="15" fill="#7f1d1d" font-weight="bold">SNAPSHOT = COMPACTION</text>
    <text x="1763" y="760" font-family="Chalkboard SE" font-size="13.5" fill="#713f12">Without a checkpoint, replay must</text>
    <text x="1763" y="783" font-family="Chalkboard SE" font-size="13.5" fill="#713f12">re-apply the ENTIRE history. A</text>
    <text x="1763" y="806" font-family="Chalkboard SE" font-size="13.5" fill="#713f12">snapshot is a point-in-time base,</text>
    <text x="1763" y="829" font-family="Chalkboard SE" font-size="13.5" fill="#713f12">so you only replay the WAL tail</text>
    <text x="1763" y="852" font-family="Chalkboard SE" font-size="13.5" fill="#713f12">written after it — bounded work.</text>
    <text x="1763" y="878" font-family="Chalkboard SE" font-size="13" fill="#92710c">recovery time stays predictable.</text>
  </g>
  <circle cx="1900" cy="704" r="7" fill="#dc2626"/>

  <!-- ═════════ STICKY B: ORDER MATTERS ═════════ -->
  <g transform="rotate(1.5 500 1000)">
    <rect x="340" y="912" width="330" height="176" fill="#fef9c3" stroke="#eab308" stroke-width="2.5" rx="4"/>
    <text x="358" y="944" font-family="Chalkboard SE" font-size="15" fill="#7f1d1d" font-weight="bold">WHY WAL-FIRST WORKS</text>
    <text x="358" y="972" font-family="Chalkboard SE" font-size="13.5" fill="#713f12">Crash AFTER append, before the map</text>
    <text x="358" y="995" font-family="Chalkboard SE" font-size="13.5" fill="#713f12">update ⇒ replay re-applies it. Crash</text>
    <text x="358" y="1018" font-family="Chalkboard SE" font-size="13.5" fill="#713f12">BEFORE append ⇒ write never existed,</text>
    <text x="358" y="1041" font-family="Chalkboard SE" font-size="13.5" fill="#713f12">no harm. There is no window where</text>
    <text x="358" y="1064" font-family="Chalkboard SE" font-size="13.5" fill="#713f12">memory is ahead of the durable log.</text>
  </g>
  <circle cx="500" cy="916" r="7" fill="#dc2626"/>

  <!-- ═════════ STICKY C: THIS IMPL ═════════ -->
  <g transform="rotate(-1.5 900 1000)">
    <rect x="720" y="912" width="360" height="176" fill="#fef9c3" stroke="#eab308" stroke-width="2.5" rx="4"/>
    <text x="738" y="944" font-family="Chalkboard SE" font-size="15" fill="#7f1d1d" font-weight="bold">WHAT THIS IMPL ACTUALLY DOES</text>
    <text x="738" y="972" font-family="Chalkboard SE" font-size="13.5" fill="#713f12">WAL is an in-memory List and replay()</text>
    <text x="738" y="995" font-family="Chalkboard SE" font-size="13.5" fill="#713f12">exists but isn't wired to startup yet;</text>
    <text x="738" y="1018" font-family="Chalkboard SE" font-size="13.5" fill="#713f12">restoreSnapshot() is the live restore</text>
    <text x="738" y="1041" font-family="Chalkboard SE" font-size="13.5" fill="#713f12">path. On real disk you'd read the log</text>
    <text x="738" y="1064" font-family="Chalkboard SE" font-size="13.5" fill="#713f12">file + fsync. The SHAPE is the point.</text>
  </g>
  <circle cx="900" cy="916" r="7" fill="#dc2626"/>

  <!-- ═════════ WHITEBOARD ORDER ═════════ -->
  <text x="60" y="1150" font-family="Marker Felt" font-size="19" fill="#1e40af" font-weight="bold">WHITEBOARD ORDER:</text>
  <text x="272" y="1150" font-family="Chalkboard SE" font-size="15" fill="#111">WRITE: &#9312; put &#8594; &#9313; append to WAL FIRST &#8594; take write lock &#8594; &#9314; store.put + recordInsert &#8594; &#9315; evictIfNeeded &#8594; &#9316; evict LRU + log it&#160;&#160;&#183;&#160;&#160;RECOVERY: &#9317; startup &#8594; snapshot? load base &#8594; &#9318; replay WAL tail in order &#8594; &#9319; ready</text>

  <!-- ═════════ LEGEND ═════════ -->
  <rect x="50" y="1185" width="2040" height="100" rx="14" fill="none" stroke="#2563eb" stroke-width="2.6" stroke-dasharray="10,8"/>
  <text x="80" y="1230" font-family="Marker Felt" font-size="20" fill="#1e40af" font-weight="bold">LEGEND</text>
  <g font-family="Chalkboard SE" font-size="13" fill="#111">
    <rect x="230" y="1211" width="22" height="22" rx="5" fill="none" stroke="#ea580c" stroke-width="3"/><text x="262" y="1228">WAL / recovery</text>
    <rect x="420" y="1211" width="22" height="22" rx="5" fill="none" stroke="#2563eb" stroke-width="3"/><text x="452" y="1228">store / map</text>
    <rect x="600" y="1211" width="22" height="22" rx="5" fill="none" stroke="#7e22ce" stroke-width="3"/><text x="632" y="1228">lock / snapshot</text>
    <rect x="800" y="1211" width="22" height="22" rx="5" fill="none" stroke="#111" stroke-width="3"/><text x="832" y="1228">caller</text>
    <rect x="940" y="1211" width="22" height="22" rx="5" fill="#fef9c3" stroke="#eab308" stroke-width="2.5"/><text x="972" y="1228">interview insight</text>
    <path d="M1180,1222 L1246,1222" stroke="#111" stroke-width="2.8" fill="none" marker-end="url(#ah)"/><text x="1258" y="1228">flow</text>
    <path d="M1360,1222 L1426,1222" stroke="#dc2626" stroke-width="2.4" stroke-dasharray="9,6" fill="none" marker-end="url(#ahr)"/><text x="1438" y="1228">eviction logged</text>
    <path d="M1620,1222 L1686,1222" stroke="#6b7280" stroke-width="2.6" stroke-dasharray="9,7" fill="none" marker-end="url(#ahd)"/><text x="1698" y="1228">same log feeds replay</text>
    <circle cx="1970" cy="1222" r="12" fill="none" stroke="#ea580c" stroke-width="2.4"/><text x="1970" y="1227" text-anchor="middle" fill="#ea580c" font-weight="bold" font-size="13">n</text>
    <text x="1996" y="1228">story step</text>
  </g>
  <text x="262" y="1262" font-family="Chalkboard SE" font-size="12.5" fill="#6b7280">KV store — WAL-first durability, LRU eviction under one write lock, lazy + swept TTL, snapshot + replay crash recovery — LLD</text>
</svg>
