<svg xmlns="http://www.w3.org/2000/svg" width="2140" height="1360" viewBox="0 0 2140 1360">
  <defs>
    <marker id="ah" markerWidth="12" markerHeight="10" refX="10" refY="5" orient="auto"><path d="M0,0 L11,5 L0,10 z" fill="#111"/></marker>
    <marker id="ahb" markerWidth="12" markerHeight="10" refX="10" refY="5" orient="auto"><path d="M0,0 L11,5 L0,10 z" fill="#2563eb"/></marker>
    <marker id="ahg" markerWidth="12" markerHeight="10" refX="10" refY="5" orient="auto"><path d="M0,0 L11,5 L0,10 z" fill="#16a34a"/></marker>
    <marker id="aho" markerWidth="12" markerHeight="10" refX="10" refY="5" orient="auto"><path d="M0,0 L11,5 L0,10 z" fill="#ea580c"/></marker>
    <marker id="ahp" markerWidth="12" markerHeight="10" refX="10" refY="5" orient="auto"><path d="M0,0 L11,5 L0,10 z" fill="#db2777"/></marker>
    <marker id="ahv" markerWidth="12" markerHeight="10" refX="10" refY="5" orient="auto"><path d="M0,0 L11,5 L0,10 z" fill="#7e22ce"/></marker>
    <marker id="trig" markerWidth="17" markerHeight="15" refX="15" refY="7.5" orient="auto"><path d="M1,1 L15,7.5 L1,14 z" fill="#fff" stroke="#16a34a" stroke-width="2"/></marker>
    <marker id="trio" markerWidth="17" markerHeight="15" refX="15" refY="7.5" orient="auto"><path d="M1,1 L15,7.5 L1,14 z" fill="#fff" stroke="#ea580c" stroke-width="2"/></marker>
  </defs>

  <rect width="2140" height="1360" fill="#ffffff"/>

  <!-- ═════════ TITLE ═════════ -->
  <text x="1070" y="52" font-family="Marker Felt" font-size="45" fill="#1e40af" text-anchor="middle" font-weight="bold">LOGGING FRAMEWORK — CLASS DESIGN (LLD)</text>
  <path d="M560,68 Q1070,84 1580,66" stroke="#1e40af" stroke-width="3.5" fill="none" stroke-linecap="round"/>

  <!-- ═════════ 1: CALLER ═════════ -->
  <text x="116" y="92" font-family="Chalkboard SE" font-size="17" fill="#111" text-anchor="middle" font-weight="bold">APP CODE</text>
  <rect x="62" y="100" width="108" height="66" rx="6" fill="none" stroke="#111" stroke-width="3"/>
  <text x="116" y="142" font-family="Chalkboard SE" font-size="20" fill="#64748b" text-anchor="middle" font-weight="bold">log()</text>
  <path d="M52,166 L180,166 L168,184 L64,184 z" fill="none" stroke="#111" stroke-width="3"/>

  <circle cx="208" cy="112" r="14" fill="none" stroke="#2563eb" stroke-width="2.6"/>
  <text x="208" y="119" font-family="Chalkboard SE" font-size="16" fill="#2563eb" text-anchor="middle" font-weight="bold">1</text>
  <path d="M184,140 L236,140" stroke="#111" stroke-width="3" fill="none" marker-end="url(#ah)"/>

  <!-- ═════════ LogManager FACADE ═════════ -->
  <rect x="240" y="86" width="520" height="152" rx="12" fill="none" stroke="#7e22ce" stroke-width="3.2"/>
  <text x="500" y="114" font-family="Chalkboard SE" font-size="18" fill="#7e22ce" text-anchor="middle" font-weight="bold">LogManager — SINGLETON FACADE</text>
  <path d="M254,126 L746,126" stroke="#7e22ce" stroke-width="2"/>
  <text x="264" y="150" font-family="Chalkboard SE" font-size="14" fill="#111">+getLogger(Class): Logger</text>
  <text x="264" y="172" font-family="Chalkboard SE" font-size="14" fill="#111">+setRootLevel(level)&#160;&#160;+addAppender(a)</text>
  <text x="264" y="194" font-family="Chalkboard SE" font-size="14" fill="#111">+shutdown()&#160;&#160;— drains + flushes</text>
  <text x="264" y="220" font-family="Chalkboard SE" font-size="12.5" fill="#6b7280">one per JVM · double-checked volatile · interviewer reads first</text>

  <!-- ═════════ STICKY A: HOT PATH ═════════ -->
  <g transform="rotate(-2 960 178)">
    <rect x="798" y="118" width="338" height="122" fill="#fef9c3" stroke="#eab308" stroke-width="2.5" rx="4"/>
    <text x="816" y="148" font-family="Chalkboard SE" font-size="15" fill="#713f12" font-weight="bold">KEY INSIGHT — ZERO-COST OFF:</text>
    <text x="816" y="174" font-family="Chalkboard SE" font-size="14" fill="#713f12">level check runs BEFORE the</text>
    <text x="816" y="196" font-family="Chalkboard SE" font-size="14" fill="#713f12">LogMessage is built. Disabled</text>
    <text x="816" y="218" font-family="Chalkboard SE" font-size="14" fill="#713f12">level = 1 int compare, 0 alloc.</text>
  </g>
  <circle cx="960" cy="122" r="7" fill="#dc2626"/>

  <!-- ═════════ STICKY B: PATTERNS ═════════ -->
  <g transform="rotate(2 1400 176)">
    <rect x="1240" y="116" width="332" height="130" fill="#fef9c3" stroke="#eab308" stroke-width="2.5" rx="4"/>
    <text x="1258" y="146" font-family="Chalkboard SE" font-size="15" fill="#7f1d1d" font-weight="bold">PATTERNS TO NAME:</text>
    <text x="1258" y="172" font-family="Chalkboard SE" font-size="13.5" fill="#14532d">Chain of Responsibility (filters)</text>
    <text x="1258" y="194" font-family="Chalkboard SE" font-size="13.5" fill="#14532d">Strategy (formatter + appender)</text>
    <text x="1258" y="216" font-family="Chalkboard SE" font-size="13.5" fill="#14532d">Singleton (LogManager) · Decorator</text>
    <text x="1258" y="238" font-family="Chalkboard SE" font-size="13.5" fill="#14532d">(AsyncAppender) · Producer/Consumer</text>
  </g>
  <circle cx="1400" cy="120" r="7" fill="#dc2626"/>

  <!-- ═════════ STICKY C: SHUTDOWN ═════════ -->
  <g transform="rotate(-1.5 1830 176)">
    <rect x="1678" y="116" width="330" height="130" fill="#fef9c3" stroke="#eab308" stroke-width="2.5" rx="4"/>
    <text x="1696" y="146" font-family="Chalkboard SE" font-size="15" fill="#7f1d1d" font-weight="bold">NO LOSS ON SHUTDOWN:</text>
    <text x="1696" y="172" font-family="Chalkboard SE" font-size="13.5" fill="#713f12">async ⇒ queue may hold events.</text>
    <text x="1696" y="194" font-family="Chalkboard SE" font-size="13.5" fill="#713f12">shutdown() stops intake, drains</text>
    <text x="1696" y="216" font-family="Chalkboard SE" font-size="13.5" fill="#713f12">the queue, flush()es appenders.</text>
    <text x="1696" y="238" font-family="Chalkboard SE" font-size="13" fill="#92710c">register a JVM shutdown hook</text>
  </g>
  <circle cx="1830" cy="120" r="7" fill="#dc2626"/>

  <!-- ═════════ 2: THE MODEL GROUP ═════════ -->
  <rect x="50" y="270" width="560" height="588" rx="16" fill="none" stroke="#2563eb" stroke-width="3" stroke-dasharray="14,9"/>
  <circle cx="80" cy="298" r="14" fill="none" stroke="#2563eb" stroke-width="2.6"/>
  <text x="80" y="305" font-family="Chalkboard SE" font-size="16" fill="#2563eb" text-anchor="middle" font-weight="bold">2</text>
  <text x="102" y="305" font-family="Marker Felt" font-size="20" fill="#2563eb" font-weight="bold">THE MODEL — event + severity</text>

  <!-- LogMessage -->
  <rect x="90" y="330" width="290" height="188" rx="10" fill="none" stroke="#2563eb" stroke-width="3"/>
  <text x="235" y="358" font-family="Chalkboard SE" font-size="17" fill="#111" text-anchor="middle" font-weight="bold">LogMessage «VO»</text>
  <path d="M102,370 L368,370" stroke="#2563eb" stroke-width="2"/>
  <text x="108" y="394" font-family="Chalkboard SE" font-size="14" fill="#111">level: LogLevel</text>
  <text x="108" y="416" font-family="Chalkboard SE" font-size="14" fill="#111">message: String</text>
  <text x="108" y="438" font-family="Chalkboard SE" font-size="14" fill="#111">className: String</text>
  <text x="108" y="460" font-family="Chalkboard SE" font-size="14" fill="#111">timestamp: LocalDateTime</text>
  <text x="108" y="482" font-family="Chalkboard SE" font-size="14" fill="#111">mdc: Map (snapshot)</text>
  <text x="108" y="506" font-family="Chalkboard SE" font-size="12.5" fill="#dc2626" font-weight="bold">all fields final ⇒ safe publish</text>

  <!-- LogLevel -->
  <rect x="400" y="330" width="190" height="188" rx="10" fill="none" stroke="#2563eb" stroke-width="3"/>
  <text x="495" y="358" font-family="Chalkboard SE" font-size="15" fill="#111" text-anchor="middle" font-weight="bold">«enum» LogLevel</text>
  <path d="M412,370 L578,370" stroke="#2563eb" stroke-width="2"/>
  <text x="418" y="394" font-family="Chalkboard SE" font-size="13.5" fill="#111">TRACE(0) DEBUG(1)</text>
  <text x="418" y="416" font-family="Chalkboard SE" font-size="13.5" fill="#111">INFO(2) WARN(3)</text>
  <text x="418" y="438" font-family="Chalkboard SE" font-size="13.5" fill="#111">ERROR(4) FATAL(5)</text>
  <text x="418" y="462" font-family="Chalkboard SE" font-size="13.5" fill="#111">+getValue(): int</text>
  <text x="418" y="490" font-family="Chalkboard SE" font-size="12" fill="#6b7280">ordinal compare</text>
  <text x="418" y="508" font-family="Chalkboard SE" font-size="12" fill="#6b7280">= O(1) gate</text>

  <!-- has-a -->
  <path d="M380,404 L396,404" stroke="#2563eb" stroke-width="2.8" fill="none" marker-end="url(#ahb)"/>
  <path d="M372,404 L382,399 L392,404 L382,409 z" fill="#2563eb"/>

  <!-- MDC -->
  <rect x="90" y="540" width="500" height="150" rx="10" fill="none" stroke="#2563eb" stroke-width="2.8"/>
  <text x="340" y="568" font-family="Chalkboard SE" font-size="16" fill="#111" text-anchor="middle" font-weight="bold">LogContext (MDC) — ThreadLocal</text>
  <path d="M102,580 L578,580" stroke="#2563eb" stroke-width="1.8"/>
  <text x="108" y="606" font-family="Chalkboard SE" font-size="14" fill="#111">context: Map&lt;String,String&gt;&#160;&#160;(per thread)</text>
  <text x="108" y="630" font-family="Chalkboard SE" font-size="14" fill="#111">put(k,v) · get(k) · clear() · getCopy()</text>
  <text x="108" y="656" font-family="Chalkboard SE" font-size="12.5" fill="#6b7280">requestId / userId / traceId — no contention</text>
  <text x="108" y="678" font-family="Chalkboard SE" font-size="12.5" fill="#dc2626" font-weight="bold">snapshot into event at log time (async-safe!) · clear() in finally</text>

  <text x="88" y="726" font-family="Chalkboard SE" font-size="14.5" fill="#15803d" font-weight="bold">immutable event ⇒ shareable across appenders + threads &#10003;</text>
  <text x="88" y="756" font-family="Chalkboard SE" font-size="13" fill="#6b7280">the model knows nothing about queues, filters or output — pure data</text>

  <!-- ═════════ 3: THE SEAMS ═════════ -->
  <circle cx="795" cy="298" r="14" fill="none" stroke="#16a34a" stroke-width="2.6"/>
  <text x="795" y="305" font-family="Chalkboard SE" font-size="16" fill="#16a34a" text-anchor="middle" font-weight="bold">3</text>
  <text x="817" y="305" font-family="Marker Felt" font-size="20" fill="#16a34a" font-weight="bold">THE SEAMS — interfaces</text>

  <rect x="780" y="330" width="320" height="112" rx="10" fill="none" stroke="#16a34a" stroke-width="3"/>
  <text x="940" y="358" font-family="Chalkboard SE" font-size="15.5" fill="#111" text-anchor="middle" font-weight="bold">«interface» Logger</text>
  <path d="M792,370 L1088,370" stroke="#16a34a" stroke-width="2"/>
  <text x="796" y="394" font-family="Chalkboard SE" font-size="14" fill="#111">log(level, msg) · debug/info/warn/error(msg)</text>
  <text x="796" y="420" font-family="Chalkboard SE" font-size="12.5" fill="#6b7280">the API app code compiles against</text>

  <rect x="780" y="458" width="320" height="104" rx="10" fill="none" stroke="#16a34a" stroke-width="3"/>
  <text x="940" y="486" font-family="Chalkboard SE" font-size="15.5" fill="#111" text-anchor="middle" font-weight="bold">«interface» LogFilter</text>
  <path d="M792,498 L1088,498" stroke="#16a34a" stroke-width="2"/>
  <text x="796" y="522" font-family="Chalkboard SE" font-size="14" fill="#111">shouldLog(msg): boolean</text>
  <text x="796" y="546" font-family="Chalkboard SE" font-size="12.5" fill="#6b7280">Chain of Responsibility link</text>

  <rect x="780" y="578" width="320" height="104" rx="10" fill="none" stroke="#16a34a" stroke-width="3"/>
  <text x="940" y="606" font-family="Chalkboard SE" font-size="15.5" fill="#111" text-anchor="middle" font-weight="bold">«interface» LogFormatter</text>
  <path d="M792,618 L1088,618" stroke="#16a34a" stroke-width="2"/>
  <text x="796" y="642" font-family="Chalkboard SE" font-size="14" fill="#111">format(msg): String</text>
  <text x="796" y="666" font-family="Chalkboard SE" font-size="12.5" fill="#6b7280">Strategy: text / JSON / pattern</text>

  <rect x="780" y="698" width="320" height="104" rx="10" fill="none" stroke="#16a34a" stroke-width="3"/>
  <text x="940" y="726" font-family="Chalkboard SE" font-size="15.5" fill="#111" text-anchor="middle" font-weight="bold">«interface» LogAppender</text>
  <path d="M792,738 L1088,738" stroke="#16a34a" stroke-width="2"/>
  <text x="796" y="762" font-family="Chalkboard SE" font-size="14" fill="#111">append(line: String)</text>
  <text x="796" y="786" font-family="Chalkboard SE" font-size="12.5" fill="#6b7280">Strategy: where output lands</text>

  <text x="782" y="828" font-family="Chalkboard SE" font-size="13.5" fill="#15803d" font-weight="bold">new filter / formatter / appender = new class — LoggerImpl untouched (Open/Closed)</text>

  <!-- getLogger arrow from facade to Logger -->
  <path d="M470,238 L470,258 L640,258 L640,360 L776,360" stroke="#7e22ce" stroke-width="2.8" fill="none" marker-end="url(#ahv)"/>
  <text x="648" y="300" font-family="Chalkboard SE" font-size="12.5" fill="#7e22ce">returns Logger</text>

  <!-- ═════════ 4: IMPLEMENTATIONS GROUP ═════════ -->
  <rect x="1130" y="270" width="960" height="588" rx="16" fill="none" stroke="#ea580c" stroke-width="3" stroke-dasharray="14,9"/>
  <circle cx="1160" cy="298" r="14" fill="none" stroke="#ea580c" stroke-width="2.6"/>
  <text x="1160" y="305" font-family="Chalkboard SE" font-size="16" fill="#ea580c" text-anchor="middle" font-weight="bold">4</text>
  <text x="1182" y="305" font-family="Marker Felt" font-size="20" fill="#ea580c" font-weight="bold">IMPLEMENTATIONS — filters (Chain) · formatters + appenders (Strategy)</text>

  <!-- FILTER CHAIN row -->
  <rect x="1160" y="330" width="270" height="118" rx="10" fill="none" stroke="#ea580c" stroke-width="3"/>
  <text x="1295" y="358" font-family="Chalkboard SE" font-size="16" fill="#111" text-anchor="middle" font-weight="bold">LevelFilter</text>
  <path d="M1172,368 L1418,368" stroke="#ea580c" stroke-width="1.8"/>
  <text x="1178" y="392" font-family="Chalkboard SE" font-size="13.5" fill="#111">ordinal &#8805; minLevel ?</text>
  <text x="1178" y="414" font-family="Chalkboard SE" font-size="13.5" fill="#111">pass : block</text>
  <text x="1178" y="438" font-family="Chalkboard SE" font-size="12.5" fill="#dc2626" font-weight="bold">the hot-path gate</text>

  <rect x="1478" y="330" width="270" height="118" rx="10" fill="none" stroke="#ea580c" stroke-width="3"/>
  <text x="1613" y="358" font-family="Chalkboard SE" font-size="16" fill="#111" text-anchor="middle" font-weight="bold">KeywordFilter</text>
  <path d="M1490,368 L1736,368" stroke="#ea580c" stroke-width="1.8"/>
  <text x="1496" y="392" font-family="Chalkboard SE" font-size="13.5" fill="#111">drop if matches</text>
  <text x="1496" y="414" font-family="Chalkboard SE" font-size="13.5" fill="#111">deny-list rule</text>
  <text x="1496" y="438" font-family="Chalkboard SE" font-size="12.5" fill="#6b7280">suppress noisy logs</text>

  <rect x="1796" y="330" width="254" height="118" rx="10" fill="none" stroke="#ea580c" stroke-width="3"/>
  <text x="1923" y="358" font-family="Chalkboard SE" font-size="16" fill="#111" text-anchor="middle" font-weight="bold">SamplingFilter</text>
  <path d="M1808,368 L2038,368" stroke="#ea580c" stroke-width="1.8"/>
  <text x="1814" y="392" font-family="Chalkboard SE" font-size="13.5" fill="#111">keep 1-in-N</text>
  <text x="1814" y="414" font-family="Chalkboard SE" font-size="13.5" fill="#111">AtomicLong count</text>
  <text x="1814" y="438" font-family="Chalkboard SE" font-size="12.5" fill="#6b7280">ERROR always kept</text>

  <!-- chain arrows -->
  <path d="M1430,389 L1474,389" stroke="#ea580c" stroke-width="2.8" fill="none" marker-end="url(#aho)"/>
  <path d="M1748,389 L1792,389" stroke="#ea580c" stroke-width="2.8" fill="none" marker-end="url(#aho)"/>
  <text x="1180" y="470" font-family="Chalkboard SE" font-size="13" fill="#db2777" font-weight="bold">CHAIN &#8594; short-circuit on first reject (no wasted format/write)</text>

  <!-- FORMATTERS row -->
  <rect x="1160" y="490" width="270" height="108" rx="10" fill="none" stroke="#ea580c" stroke-width="3"/>
  <text x="1295" y="518" font-family="Chalkboard SE" font-size="16" fill="#111" text-anchor="middle" font-weight="bold">JsonFormatter</text>
  <path d="M1172,528 L1418,528" stroke="#ea580c" stroke-width="1.8"/>
  <text x="1178" y="552" font-family="Chalkboard SE" font-size="12.5" fill="#111">{"level":"INFO",</text>
  <text x="1178" y="574" font-family="Chalkboard SE" font-size="12.5" fill="#111">&#160;"msg":"..","ts":".."}</text>

  <rect x="1478" y="490" width="272" height="108" rx="10" fill="none" stroke="#ea580c" stroke-width="3"/>
  <text x="1614" y="518" font-family="Chalkboard SE" font-size="16" fill="#111" text-anchor="middle" font-weight="bold">PatternFormatter</text>
  <path d="M1490,528 L1738,528" stroke="#ea580c" stroke-width="1.8"/>
  <text x="1496" y="552" font-family="Chalkboard SE" font-size="12.5" fill="#111">{ts} [{level}] [{class}]</text>
  <text x="1496" y="574" font-family="Chalkboard SE" font-size="12.5" fill="#111">{message}</text>

  <text x="1796" y="520" font-family="Chalkboard SE" font-size="13.5" fill="#15803d" font-weight="bold">swap format at</text>
  <text x="1796" y="542" font-family="Chalkboard SE" font-size="13.5" fill="#15803d" font-weight="bold">runtime — no</text>
  <text x="1796" y="564" font-family="Chalkboard SE" font-size="13.5" fill="#15803d" font-weight="bold">logger change &#10003;</text>

  <!-- APPENDERS row -->
  <rect x="1160" y="620" width="252" height="112" rx="10" fill="none" stroke="#ea580c" stroke-width="3"/>
  <text x="1286" y="648" font-family="Chalkboard SE" font-size="15" fill="#111" text-anchor="middle" font-weight="bold">ConsoleAppender</text>
  <path d="M1172,658 L1400,658" stroke="#ea580c" stroke-width="1.8"/>
  <text x="1178" y="682" font-family="Chalkboard SE" font-size="13" fill="#111">System.out</text>
  <text x="1178" y="704" font-family="Chalkboard SE" font-size="12.5" fill="#6b7280">dev / local</text>

  <rect x="1442" y="620" width="252" height="112" rx="10" fill="none" stroke="#ea580c" stroke-width="3"/>
  <text x="1568" y="648" font-family="Chalkboard SE" font-size="15" fill="#111" text-anchor="middle" font-weight="bold">FileAppender</text>
  <path d="M1454,658 L1682,658" stroke="#ea580c" stroke-width="1.8"/>
  <text x="1460" y="682" font-family="Chalkboard SE" font-size="13" fill="#111">BufferedWriter</text>
  <text x="1460" y="704" font-family="Chalkboard SE" font-size="12.5" fill="#6b7280">synchronized write()</text>

  <rect x="1724" y="620" width="326" height="112" rx="10" fill="none" stroke="#ea580c" stroke-width="3.4"/>
  <text x="1887" y="648" font-family="Chalkboard SE" font-size="15" fill="#111" text-anchor="middle" font-weight="bold">AsyncAppender — Decorator</text>
  <path d="M1736,658 L2038,658" stroke="#ea580c" stroke-width="1.8"/>
  <text x="1742" y="682" font-family="Chalkboard SE" font-size="13" fill="#111">wraps a delegate + own queue</text>
  <text x="1742" y="704" font-family="Chalkboard SE" font-size="12.5" fill="#7e22ce" font-weight="bold">adds async without touching sinks</text>

  <!-- implements arrows to seams -->
  <path d="M1160,389 L1104,510" stroke="#ea580c" stroke-width="2.4" stroke-dasharray="8,6" fill="none" marker-end="url(#trig)"/>
  <path d="M1160,544 L1104,628" stroke="#ea580c" stroke-width="2.4" stroke-dasharray="8,6" fill="none" marker-end="url(#trig)"/>
  <path d="M1160,676 L1104,748" stroke="#ea580c" stroke-width="2.4" stroke-dasharray="8,6" fill="none" marker-end="url(#trig)"/>
  <text x="1112" y="470" font-family="Chalkboard SE" font-size="12" fill="#16a34a" transform="rotate(-64 1112 470)">implements</text>

  <text x="1160" y="770" font-family="Chalkboard SE" font-size="13" fill="#6b7280">LoggerImpl holds these in a CopyOnWriteArrayList — lock-free fan-out on the log() path, rare copy on reconfigure</text>

  <!-- ═════════ 5: LoggerImpl ASYNC ENGINE ═════════ -->
  <circle cx="82" cy="908" r="14" fill="none" stroke="#db2777" stroke-width="2.6"/>
  <text x="82" y="915" font-family="Chalkboard SE" font-size="16" fill="#db2777" text-anchor="middle" font-weight="bold">5</text>
  <rect x="112" y="882" width="1978" height="150" rx="12" fill="none" stroke="#db2777" stroke-width="3"/>
  <text x="150" y="912" font-family="Chalkboard SE" font-size="17" fill="#111" font-weight="bold">LoggerImpl — async engine (Logger impl): the hot path</text>

  <g font-family="Chalkboard SE" font-size="13.5" fill="#111" text-anchor="middle" font-weight="bold">
    <rect x="150" y="936" width="230" height="46" rx="8" fill="none" stroke="#db2777" stroke-width="2.5"/>
    <text x="265" y="965">CHECK LEVEL</text>
    <rect x="440" y="936" width="240" height="46" rx="8" fill="none" stroke="#db2777" stroke-width="2.5"/>
    <text x="560" y="965">BUILD LogMessage</text>
    <rect x="740" y="936" width="230" height="46" rx="8" fill="none" stroke="#db2777" stroke-width="2.5"/>
    <text x="855" y="965">queue.offer()</text>
    <rect x="1230" y="936" width="230" height="46" rx="8" fill="none" stroke="#db2777" stroke-width="2.5"/>
    <text x="1345" y="965">FILTER CHAIN</text>
    <rect x="1520" y="936" width="210" height="46" rx="8" fill="none" stroke="#db2777" stroke-width="2.5"/>
    <text x="1625" y="965">FORMAT</text>
    <rect x="1790" y="936" width="270" height="46" rx="8" fill="none" stroke="#db2777" stroke-width="2.5"/>
    <text x="1925" y="965">WRITE &#8594; APPENDERS</text>
  </g>
  <path d="M380,959 L436,959" stroke="#db2777" stroke-width="2.5" fill="none" marker-end="url(#ahp)"/>
  <path d="M680,959 L736,959" stroke="#db2777" stroke-width="2.5" fill="none" marker-end="url(#ahp)"/>
  <path d="M1460,959 L1516,959" stroke="#db2777" stroke-width="2.5" fill="none" marker-end="url(#ahp)"/>
  <path d="M1730,959 L1786,959" stroke="#db2777" stroke-width="2.5" fill="none" marker-end="url(#ahp)"/>

  <!-- thread boundary -->
  <line x1="1090" y1="924" x2="1090" y2="1014" stroke="#6b7280" stroke-width="2.4" stroke-dasharray="7,6"/>
  <path d="M970,959 L1226,959" stroke="#db2777" stroke-width="2.5" fill="none" marker-end="url(#ahp)"/>
  <text x="1090" y="1006" font-family="Chalkboard SE" font-size="12" fill="#6b7280" text-anchor="middle">thread boundary</text>
  <text x="560" y="1010" font-family="Chalkboard SE" font-size="12.5" fill="#15803d" font-weight="bold">CALLER THREAD — int compare + offer() only, zero I/O</text>
  <text x="1560" y="1010" font-family="Chalkboard SE" font-size="12.5" fill="#ea580c" font-weight="bold">1 BACKGROUND CONSUMER — take() blocks, does all filter/format/I/O</text>

  <text x="1480" y="912" font-family="Chalkboard SE" font-size="13" fill="#16a34a" font-weight="bold">implements Logger — the impl behind the seam</text>

  <!-- ═════════ read-order strip ═════════ -->
  <text x="60" y="1090" font-family="Marker Felt" font-size="19" fill="#1e40af" font-weight="bold">WHITEBOARD ORDER:</text>
  <text x="270" y="1090" font-family="Chalkboard SE" font-size="15.5" fill="#111">&#9312; caller &#8594; LogManager.getLogger &#8594; &#9313; immutable event + LogLevel &#8594; &#9314; interface seams &#8594; &#9315; filter chain + formatter/appender strategies &#8594; &#9316; async engine hot path</text>

  <!-- ═════════ LEGEND ═════════ -->
  <rect x="50" y="1128" width="2040" height="150" rx="14" fill="none" stroke="#2563eb" stroke-width="2.6" stroke-dasharray="10,8"/>
  <text x="80" y="1188" font-family="Marker Felt" font-size="22" fill="#1e40af" font-weight="bold">LEGEND</text>
  <g font-family="Chalkboard SE" font-size="13.5" fill="#111">
    <rect x="230" y="1163" width="24" height="24" rx="5" fill="none" stroke="#2563eb" stroke-width="3"/>
    <text x="264" y="1181">model / event</text>
    <rect x="230" y="1208" width="24" height="24" rx="5" fill="none" stroke="#16a34a" stroke-width="3"/>
    <text x="264" y="1226">interfaces (seams)</text>
    <rect x="470" y="1163" width="24" height="24" rx="5" fill="none" stroke="#ea580c" stroke-width="3"/>
    <text x="504" y="1181">filter / strategy impls</text>
    <rect x="470" y="1208" width="24" height="24" rx="5" fill="none" stroke="#db2777" stroke-width="3"/>
    <text x="504" y="1226">async engine (hot path)</text>
    <rect x="720" y="1163" width="24" height="24" rx="5" fill="none" stroke="#7e22ce" stroke-width="3"/>
    <text x="754" y="1181">singleton facade</text>
    <rect x="720" y="1208" width="24" height="24" rx="5" fill="#fef9c3" stroke="#eab308" stroke-width="2.5"/>
    <text x="754" y="1226">interview insight</text>
    <path d="M960,1175 L1030,1175" stroke="#111" stroke-width="2.8" fill="none" marker-end="url(#ah)"/>
    <text x="1044" y="1181">flow / uses</text>
    <path d="M960,1220 L1030,1220" stroke="#ea580c" stroke-width="2.4" stroke-dasharray="8,6" fill="none" marker-end="url(#trig)"/>
    <text x="1044" y="1226">implements</text>
    <path d="M1210,1220 L1222,1214 L1234,1220 L1222,1226 z" fill="#2563eb"/>
    <text x="1248" y="1226">composition (owns)</text>
    <circle cx="1222" cy="1175" r="12" fill="none" stroke="#2563eb" stroke-width="2.4"/>
    <text x="1222" y="1181" text-anchor="middle" fill="#2563eb" font-weight="bold" font-size="13">n</text>
    <text x="1248" y="1181">story step (read &#9312;&#8594;&#9316;)</text>
    <text x="1480" y="1181" fill="#6b7280">Patterns: Chain of Responsibility · Strategy · Singleton · Decorator · Producer/Consumer</text>
    <text x="1480" y="1226" fill="#6b7280">Logging Framework (SLF4J/Logback-style) — machine-coding LLD</text>
  </g>
</svg>
