<svg xmlns="http://www.w3.org/2000/svg" width="2140" height="1190" viewBox="0 0 2140 1190">
  <defs>
    <marker id="ah" markerWidth="12" markerHeight="10" refX="10" refY="5" orient="auto"><path d="M0,0 L11,5 L0,10 z" fill="#111"/></marker>
    <marker id="ahb" markerWidth="12" markerHeight="10" refX="10" refY="5" orient="auto"><path d="M0,0 L11,5 L0,10 z" fill="#2563eb"/></marker>
    <marker id="ahg" markerWidth="12" markerHeight="10" refX="10" refY="5" orient="auto"><path d="M0,0 L11,5 L0,10 z" fill="#16a34a"/></marker>
    <marker id="aho" markerWidth="12" markerHeight="10" refX="10" refY="5" orient="auto"><path d="M0,0 L11,5 L0,10 z" fill="#ea580c"/></marker>
    <marker id="ahp" markerWidth="12" markerHeight="10" refX="10" refY="5" orient="auto"><path d="M0,0 L11,5 L0,10 z" fill="#db2777"/></marker>
    <marker id="ahv" markerWidth="12" markerHeight="10" refX="10" refY="5" orient="auto"><path d="M0,0 L11,5 L0,10 z" fill="#7e22ce"/></marker>
    <marker id="trig" markerWidth="17" markerHeight="15" refX="15" refY="7.5" orient="auto"><path d="M1,1 L15,7.5 L1,14 z" fill="#fff" stroke="#16a34a" stroke-width="2"/></marker>
  </defs>

  <rect width="2140" height="1190" fill="#ffffff"/>

  <!-- ═════════ TITLE ═════════ -->
  <text x="1070" y="52" font-family="Marker Felt" font-size="45" fill="#1e40af" text-anchor="middle" font-weight="bold">LOGGING SYSTEM — CLASS DESIGN (LLD)</text>
  <path d="M580,68 Q1070,84 1560,66" stroke="#1e40af" stroke-width="3.5" fill="none" stroke-linecap="round"/>

  <!-- ═════════ 1: SERVICES ═════════ -->
  <text x="116" y="92" font-family="Chalkboard SE" font-size="17" fill="#111" text-anchor="middle" font-weight="bold">SERVICES</text>
  <rect x="62" y="100" width="108" height="66" rx="6" fill="none" stroke="#111" stroke-width="3"/>
  <text x="116" y="142" font-family="Chalkboard SE" font-size="19" fill="#64748b" text-anchor="middle" font-weight="bold">log()</text>
  <path d="M52,166 L180,166 L168,184 L64,184 z" fill="none" stroke="#111" stroke-width="3"/>
  <circle cx="208" cy="112" r="14" fill="none" stroke="#2563eb" stroke-width="2.6"/>
  <text x="208" y="119" font-family="Chalkboard SE" font-size="16" fill="#2563eb" text-anchor="middle" font-weight="bold">1</text>
  <path d="M184,140 L236,140" stroke="#111" stroke-width="3" fill="none" marker-end="url(#ah)"/>

  <!-- LoggerImpl producer -->
  <rect x="240" y="86" width="540" height="152" rx="12" fill="none" stroke="#2563eb" stroke-width="3.2"/>
  <text x="510" y="114" font-family="Chalkboard SE" font-size="17" fill="#2563eb" text-anchor="middle" font-weight="bold">LoggerImpl — PRODUCER «implements Logger»</text>
  <path d="M254,126 L766,126" stroke="#2563eb" stroke-width="2"/>
  <text x="264" y="150" font-family="Chalkboard SE" font-size="14" fill="#111">name: String&#160;&#160;·&#160;&#160;level: LogLevel (volatile)</text>
  <text x="264" y="172" font-family="Chalkboard SE" font-size="14" fill="#111">appenders: CopyOnWriteArrayList&lt;LogAppender&gt;</text>
  <text x="264" y="194" font-family="Chalkboard SE" font-size="14" fill="#111">+info/warn/error(msg) · +setLevel(l) · +addAppender(a)</text>
  <text x="264" y="220" font-family="Chalkboard SE" font-size="12.5" fill="#db2777" font-weight="bold">level gate &#8594; fan-out to ALL appenders</text>

  <!-- ═════════ STICKY A: FAN-OUT ═════════ -->
  <g transform="rotate(-2 968 180)">
    <rect x="798" y="118" width="340" height="126" fill="#fef9c3" stroke="#eab308" stroke-width="2.5" rx="4"/>
    <text x="816" y="148" font-family="Chalkboard SE" font-size="15" fill="#713f12" font-weight="bold">FAN-OUT = OBSERVER:</text>
    <text x="816" y="174" font-family="Chalkboard SE" font-size="13.5" fill="#713f12">one log() passes the level gate,</text>
    <text x="816" y="196" font-family="Chalkboard SE" font-size="13.5" fill="#713f12">then broadcasts to EVERY appender.</text>
    <text x="816" y="220" font-family="Chalkboard SE" font-size="13.5" fill="#713f12">add / remove sinks at runtime.</text>
  </g>
  <circle cx="968" cy="122" r="7" fill="#dc2626"/>

  <!-- ═════════ STICKY B: PATTERNS ═════════ -->
  <g transform="rotate(2 1400 178)">
    <rect x="1180" y="116" width="340" height="130" fill="#fef9c3" stroke="#eab308" stroke-width="2.5" rx="4"/>
    <text x="1198" y="146" font-family="Chalkboard SE" font-size="15" fill="#7f1d1d" font-weight="bold">PATTERNS TO NAME:</text>
    <text x="1198" y="172" font-family="Chalkboard SE" font-size="13.5" fill="#14532d">Strategy (appender + formatter)</text>
    <text x="1198" y="194" font-family="Chalkboard SE" font-size="13.5" fill="#14532d">Observer (fan-out to appender list)</text>
    <text x="1198" y="216" font-family="Chalkboard SE" font-size="13.5" fill="#14532d">Chain (level routing) · Singleton</text>
    <text x="1198" y="238" font-family="Chalkboard SE" font-size="13.5" fill="#14532d">(central svc) · Decorator (Sampling)</text>
  </g>
  <circle cx="1400" cy="120" r="7" fill="#dc2626"/>

  <!-- ═════════ STICKY C: RETENTION ═════════ -->
  <g transform="rotate(-1.5 1830 178)">
    <rect x="1560" y="118" width="340" height="128" fill="#fef9c3" stroke="#eab308" stroke-width="2.5" rx="4"/>
    <text x="1578" y="148" font-family="Chalkboard SE" font-size="15" fill="#7f1d1d" font-weight="bold">BOUNDED STORE (RETENTION):</text>
    <text x="1578" y="174" font-family="Chalkboard SE" font-size="13.5" fill="#713f12">ConcurrentLinkedQueue capped at</text>
    <text x="1578" y="196" font-family="Chalkboard SE" font-size="13.5" fill="#713f12">maxLogSize. Overflow ⇒ evict oldest</text>
    <text x="1578" y="218" font-family="Chalkboard SE" font-size="13.5" fill="#713f12">(poll head) = ring buffer.</text>
    <text x="1578" y="240" font-family="Chalkboard SE" font-size="13" fill="#92710c">memory never grows unbounded</text>
  </g>
  <circle cx="1830" cy="122" r="7" fill="#dc2626"/>

  <!-- ═════════ 2: THE MODEL ═════════ -->
  <rect x="50" y="270" width="520" height="410" rx="16" fill="none" stroke="#2563eb" stroke-width="3" stroke-dasharray="14,9"/>
  <circle cx="80" cy="298" r="14" fill="none" stroke="#2563eb" stroke-width="2.6"/>
  <text x="80" y="305" font-family="Chalkboard SE" font-size="16" fill="#2563eb" text-anchor="middle" font-weight="bold">2</text>
  <text x="102" y="305" font-family="Marker Felt" font-size="20" fill="#2563eb" font-weight="bold">THE MODEL — immutable entry</text>

  <rect x="90" y="330" width="440" height="192" rx="10" fill="none" stroke="#2563eb" stroke-width="3"/>
  <text x="310" y="358" font-family="Chalkboard SE" font-size="17" fill="#111" text-anchor="middle" font-weight="bold">LogEntry «VO»</text>
  <path d="M102,370 L518,370" stroke="#2563eb" stroke-width="2"/>
  <text x="108" y="394" font-family="Chalkboard SE" font-size="14" fill="#111">level: LogLevel</text>
  <text x="108" y="416" font-family="Chalkboard SE" font-size="14" fill="#111">message: String</text>
  <text x="108" y="438" font-family="Chalkboard SE" font-size="14" fill="#111">timestamp: LocalDateTime</text>
  <text x="108" y="460" font-family="Chalkboard SE" font-size="14" fill="#111">thread: String&#160;&#160;(currentThread().getName())</text>
  <text x="108" y="482" font-family="Chalkboard SE" font-size="14" fill="#111">source / logger: String</text>
  <text x="108" y="508" font-family="Chalkboard SE" font-size="12.5" fill="#dc2626" font-weight="bold">all final · thread captured at log time (async-safe)</text>

  <rect x="90" y="542" width="440" height="120" rx="10" fill="none" stroke="#2563eb" stroke-width="3"/>
  <text x="310" y="570" font-family="Chalkboard SE" font-size="16" fill="#111" text-anchor="middle" font-weight="bold">«enum» LogLevel</text>
  <path d="M102,582 L518,582" stroke="#2563eb" stroke-width="2"/>
  <text x="108" y="606" font-family="Chalkboard SE" font-size="14" fill="#111">TRACE(0) DEBUG(1) INFO(2)</text>
  <text x="108" y="628" font-family="Chalkboard SE" font-size="14" fill="#111">WARN(3) ERROR(4) FATAL(5) · getPriority()</text>
  <text x="108" y="652" font-family="Chalkboard SE" font-size="12.5" fill="#6b7280">priority int ⇒ O(1) level routing</text>

  <!-- ═════════ 3: THE SEAMS ═════════ -->
  <circle cx="625" cy="298" r="14" fill="none" stroke="#16a34a" stroke-width="2.6"/>
  <text x="625" y="305" font-family="Chalkboard SE" font-size="16" fill="#16a34a" text-anchor="middle" font-weight="bold">3</text>
  <text x="647" y="305" font-family="Marker Felt" font-size="20" fill="#16a34a" font-weight="bold">THE SEAMS — API + Strategy hooks</text>

  <rect x="600" y="330" width="330" height="84" rx="10" fill="none" stroke="#16a34a" stroke-width="3"/>
  <text x="765" y="358" font-family="Chalkboard SE" font-size="15.5" fill="#111" text-anchor="middle" font-weight="bold">«interface» Logger</text>
  <path d="M612,370 L918,370" stroke="#16a34a" stroke-width="2"/>
  <text x="616" y="396" font-family="Chalkboard SE" font-size="13.5" fill="#111">trace..fatal(msg) · setLevel(l)&#160;&#160;<tspan fill="#6b7280">producer API</tspan></text>

  <rect x="600" y="430" width="330" height="96" rx="10" fill="none" stroke="#16a34a" stroke-width="3"/>
  <text x="765" y="458" font-family="Chalkboard SE" font-size="15.5" fill="#111" text-anchor="middle" font-weight="bold">«interface» LogAppender</text>
  <path d="M612,470 L918,470" stroke="#16a34a" stroke-width="2"/>
  <text x="616" y="494" font-family="Chalkboard SE" font-size="14" fill="#111">append(entry)</text>
  <text x="616" y="516" font-family="Chalkboard SE" font-size="12.5" fill="#6b7280">Strategy: WHERE output goes</text>

  <rect x="600" y="542" width="330" height="96" rx="10" fill="none" stroke="#16a34a" stroke-width="3"/>
  <text x="765" y="570" font-family="Chalkboard SE" font-size="15.5" fill="#111" text-anchor="middle" font-weight="bold">«interface» LogFormatter</text>
  <path d="M612,582 L918,582" stroke="#16a34a" stroke-width="2"/>
  <text x="616" y="606" font-family="Chalkboard SE" font-size="14" fill="#111">format(entry): String</text>
  <text x="616" y="628" font-family="Chalkboard SE" font-size="12.5" fill="#6b7280">Strategy: HOW it looks (compose Decorator-style)</text>

  <text x="600" y="662" font-family="Chalkboard SE" font-size="13" fill="#6b7280">LoggingService (backend query API) is shown in the store band below &#8595;</text>

  <!-- ═════════ 4: STRATEGIES ═════════ -->
  <rect x="1130" y="270" width="960" height="410" rx="16" fill="none" stroke="#ea580c" stroke-width="3" stroke-dasharray="14,9"/>
  <circle cx="1160" cy="298" r="14" fill="none" stroke="#ea580c" stroke-width="2.6"/>
  <text x="1160" y="305" font-family="Chalkboard SE" font-size="16" fill="#ea580c" text-anchor="middle" font-weight="bold">4</text>
  <text x="1182" y="305" font-family="Marker Felt" font-size="20" fill="#ea580c" font-weight="bold">APPENDER + FORMATTER STRATEGIES (the fan-out targets)</text>

  <!-- Row1 appenders -->
  <rect x="1170" y="330" width="290" height="104" rx="10" fill="none" stroke="#ea580c" stroke-width="3"/>
  <text x="1315" y="358" font-family="Chalkboard SE" font-size="15.5" fill="#111" text-anchor="middle" font-weight="bold">ConsoleAppender</text>
  <path d="M1182,368 L1448,368" stroke="#ea580c" stroke-width="1.8"/>
  <text x="1188" y="392" font-family="Chalkboard SE" font-size="13" fill="#111">System.out</text>
  <text x="1188" y="414" font-family="Chalkboard SE" font-size="12.5" fill="#6b7280">dev / local</text>

  <rect x="1490" y="330" width="290" height="104" rx="10" fill="none" stroke="#ea580c" stroke-width="3"/>
  <text x="1635" y="358" font-family="Chalkboard SE" font-size="15.5" fill="#111" text-anchor="middle" font-weight="bold">FileAppender</text>
  <path d="M1502,368 L1768,368" stroke="#ea580c" stroke-width="1.8"/>
  <text x="1508" y="392" font-family="Chalkboard SE" font-size="13" fill="#111">BufferedWriter · buffered/batched</text>
  <text x="1508" y="414" font-family="Chalkboard SE" font-size="12.5" fill="#6b7280">synchronized write()</text>

  <rect x="1810" y="330" width="270" height="104" rx="10" fill="none" stroke="#ea580c" stroke-width="3"/>
  <text x="1945" y="358" font-family="Chalkboard SE" font-size="15.5" fill="#111" text-anchor="middle" font-weight="bold">KafkaAppender</text>
  <path d="M1822,368 L2068,368" stroke="#ea580c" stroke-width="1.8"/>
  <text x="1828" y="392" font-family="Chalkboard SE" font-size="13" fill="#111">topic · async batch</text>
  <text x="1828" y="414" font-family="Chalkboard SE" font-size="12.5" fill="#6b7280">distributed transport</text>

  <!-- Row2 formatters + ES -->
  <rect x="1170" y="456" width="290" height="104" rx="10" fill="none" stroke="#ea580c" stroke-width="3"/>
  <text x="1315" y="484" font-family="Chalkboard SE" font-size="15.5" fill="#111" text-anchor="middle" font-weight="bold">JsonFormatter</text>
  <path d="M1182,494 L1448,494" stroke="#ea580c" stroke-width="1.8"/>
  <text x="1188" y="518" font-family="Chalkboard SE" font-size="12.5" fill="#111">{"level":..,"msg":..,</text>
  <text x="1188" y="540" font-family="Chalkboard SE" font-size="12.5" fill="#111">&#160;"ts":..,"thread":..}</text>

  <rect x="1490" y="456" width="290" height="104" rx="10" fill="none" stroke="#ea580c" stroke-width="3"/>
  <text x="1635" y="484" font-family="Chalkboard SE" font-size="15.5" fill="#111" text-anchor="middle" font-weight="bold">PatternFormatter</text>
  <path d="M1502,494 L1768,494" stroke="#ea580c" stroke-width="1.8"/>
  <text x="1508" y="518" font-family="Chalkboard SE" font-size="12.5" fill="#111">[{ts}] {level} [{thread}]</text>
  <text x="1508" y="540" font-family="Chalkboard SE" font-size="12.5" fill="#111">{logger} - {message}</text>

  <rect x="1810" y="456" width="270" height="104" rx="10" fill="none" stroke="#ea580c" stroke-width="3"/>
  <text x="1945" y="484" font-family="Chalkboard SE" font-size="15" fill="#111" text-anchor="middle" font-weight="bold">ElasticsearchAppender</text>
  <path d="M1822,494 L2068,494" stroke="#ea580c" stroke-width="1.8"/>
  <text x="1828" y="518" font-family="Chalkboard SE" font-size="13" fill="#111">bulk index · searchable</text>
  <text x="1828" y="540" font-family="Chalkboard SE" font-size="12.5" fill="#6b7280">central query backend</text>

  <text x="1170" y="600" font-family="Chalkboard SE" font-size="13.5" fill="#15803d" font-weight="bold">new destination = new class — LoggerImpl never changes (Open/Closed)</text>
  <text x="1170" y="626" font-family="Chalkboard SE" font-size="12.5" fill="#7e22ce" font-weight="bold">FormattedAppender / SamplingAppender wrap a sink (Decorator) to add format or 1-in-N sampling</text>
  <text x="1170" y="652" font-family="Chalkboard SE" font-size="12.5" fill="#6b7280">Console · File · Kafka · Elasticsearch all implement LogAppender; JsonFormatter · PatternFormatter implement LogFormatter</text>

  <!-- implements arrows (representative) -->
  <path d="M1170,392 L936,392" stroke="#ea580c" stroke-width="2.4" stroke-dasharray="8,6" fill="none" marker-end="url(#trig)"/>
  <path d="M1170,508 L936,540" stroke="#ea580c" stroke-width="2.4" stroke-dasharray="8,6" fill="none" marker-end="url(#trig)"/>
  <text x="960" y="384" font-family="Chalkboard SE" font-size="12" fill="#16a34a">implements</text>

  <!-- fan-out broadcast arrow -->
  <path d="M600,238 L600,260 L1200,260 L1200,268" stroke="#db2777" stroke-width="3" fill="none" marker-end="url(#ahp)"/>
  <text x="612" y="254" font-family="Chalkboard SE" font-size="13" fill="#db2777" font-weight="bold">fan-out (Observer): appenders.forEach(a &#8594; a.append(entry))</text>

  <!-- ═════════ 5: CENTRALIZED SERVICE ═════════ -->
  <rect x="50" y="730" width="2040" height="196" rx="16" fill="none" stroke="#7e22ce" stroke-width="3.2"/>
  <circle cx="82" cy="760" r="14" fill="none" stroke="#7e22ce" stroke-width="2.6"/>
  <text x="82" y="767" font-family="Chalkboard SE" font-size="16" fill="#7e22ce" text-anchor="middle" font-weight="bold">5</text>
  <text x="104" y="767" font-family="Marker Felt" font-size="20" fill="#7e22ce" font-weight="bold">CentralizedLoggingService — SINGLETON «implements LoggingService» (the backend)</text>

  <!-- store -->
  <rect x="150" y="788" width="560" height="112" rx="10" fill="none" stroke="#7e22ce" stroke-width="3"/>
  <text x="430" y="816" font-family="Chalkboard SE" font-size="15.5" fill="#7e22ce" text-anchor="middle" font-weight="bold">ConcurrentLinkedQueue&lt;LogEntry&gt;</text>
  <path d="M164,828 L696,828" stroke="#7e22ce" stroke-width="1.8"/>
  <text x="170" y="852" font-family="Chalkboard SE" font-size="13.5" fill="#111">bounded maxLogSize (10K) · offer() then</text>
  <text x="170" y="874" font-family="Chalkboard SE" font-size="13.5" fill="#111">evict oldest (poll head) = ring buffer</text>
  <text x="170" y="894" font-family="Chalkboard SE" font-size="12.5" fill="#15803d" font-weight="bold">lock-free O(1) ingest · never blocks producers</text>

  <!-- query ops -->
  <text x="742" y="806" font-family="Chalkboard SE" font-size="13.5" fill="#7e22ce" font-weight="bold">QUERY API (reads):</text>
  <g font-family="Chalkboard SE" font-size="13" fill="#111" text-anchor="middle" font-weight="bold">
    <rect x="742" y="818" width="220" height="52" rx="8" fill="none" stroke="#7e22ce" stroke-width="2.4"/><text x="852" y="850">getLogsByLevel</text>
    <rect x="978" y="818" width="230" height="52" rx="8" fill="none" stroke="#7e22ce" stroke-width="2.4"/><text x="1093" y="850">getLogsBySource</text>
    <rect x="1224" y="818" width="256" height="52" rx="8" fill="none" stroke="#7e22ce" stroke-width="2.4"/><text x="1352" y="850">searchLogs(keyword)</text>
    <rect x="1496" y="818" width="220" height="52" rx="8" fill="none" stroke="#7e22ce" stroke-width="2.4"/><text x="1606" y="850">getRecentLogs(n)</text>
    <rect x="1732" y="818" width="210" height="52" rx="8" fill="none" stroke="#7e22ce" stroke-width="2.4"/><text x="1837" y="850">clear / count</text>
  </g>
  <text x="742" y="894" font-family="Chalkboard SE" font-size="12.5" fill="#6b7280">reads are O(n) stream scans over the queue — add an inverted index (Elasticsearch/Lucene) for O(1) keyword search in prod</text>

  <!-- ingest arrow: appenders forward to store (routed via clear left margin) -->
  <path d="M1945,560 L1945,700 L34,700 L34,838 L146,838" stroke="#ea580c" stroke-width="2.8" fill="none" marker-end="url(#aho)"/>
  <text x="900" y="692" font-family="Chalkboard SE" font-size="13" fill="#ea580c" font-weight="bold">Kafka / ES appenders forward &#8594; central store (LoggingService.log)</text>

  <!-- ═════════ read-order strip ═════════ -->
  <text x="60" y="966" font-family="Marker Felt" font-size="19" fill="#1e40af" font-weight="bold">WHITEBOARD ORDER:</text>
  <text x="270" y="966" font-family="Chalkboard SE" font-size="15.5" fill="#111">&#9312; services &#8594; LoggerImpl (level gate) &#8594; &#9313; immutable LogEntry + LogLevel &#8594; &#9314; interface seams &#8594; &#9315; appender/formatter strategies (fan-out) &#8594; &#9316; centralized bounded store + query API</text>

  <!-- ═════════ LEGEND ═════════ -->
  <rect x="50" y="1004" width="2040" height="150" rx="14" fill="none" stroke="#2563eb" stroke-width="2.6" stroke-dasharray="10,8"/>
  <text x="80" y="1064" font-family="Marker Felt" font-size="22" fill="#1e40af" font-weight="bold">LEGEND</text>
  <g font-family="Chalkboard SE" font-size="13.5" fill="#111">
    <rect x="230" y="1039" width="24" height="24" rx="5" fill="none" stroke="#2563eb" stroke-width="3"/>
    <text x="264" y="1057">producer / model</text>
    <rect x="230" y="1084" width="24" height="24" rx="5" fill="none" stroke="#16a34a" stroke-width="3"/>
    <text x="264" y="1102">interfaces (seams)</text>
    <rect x="490" y="1039" width="24" height="24" rx="5" fill="none" stroke="#ea580c" stroke-width="3"/>
    <text x="524" y="1057">appender / formatter</text>
    <rect x="490" y="1084" width="24" height="24" rx="5" fill="none" stroke="#7e22ce" stroke-width="3"/>
    <text x="524" y="1102">centralized store (Singleton)</text>
    <rect x="800" y="1039" width="24" height="24" rx="5" fill="#fef9c3" stroke="#eab308" stroke-width="2.5"/>
    <text x="834" y="1057">interview insight</text>
    <path d="M800,1096 L870,1096" stroke="#db2777" stroke-width="2.8" fill="none" marker-end="url(#ahp)"/>
    <text x="884" y="1102">fan-out (Observer)</text>
    <path d="M1120,1051 L1190,1051" stroke="#ea580c" stroke-width="2.4" stroke-dasharray="8,6" fill="none" marker-end="url(#trig)"/>
    <text x="1204" y="1057">implements</text>
    <path d="M1120,1096 L1190,1096" stroke="#ea580c" stroke-width="2.8" fill="none" marker-end="url(#aho)"/>
    <text x="1204" y="1102">ingest / flow</text>
    <circle cx="1440" cy="1051" r="12" fill="none" stroke="#2563eb" stroke-width="2.4"/>
    <text x="1440" y="1056" text-anchor="middle" fill="#2563eb" font-weight="bold" font-size="13">n</text>
    <text x="1466" y="1057">story step (read &#9312;&#8594;&#9316;)</text>
    <text x="1440" y="1102" fill="#6b7280">Patterns: Strategy · Observer · Chain · Singleton · Decorator</text>
    <text x="1720" y="1057" fill="#6b7280">Logging System (distributed) — LLD</text>
  </g>
</svg>
