<svg xmlns="http://www.w3.org/2000/svg" width="2140" height="1240" viewBox="0 0 2140 1240">
  <defs>
    <marker id="ah" markerWidth="12" markerHeight="10" refX="10" refY="5" orient="auto"><path d="M0,0 L11,5 L0,10 z" fill="#111"/></marker>
    <marker id="ahb" markerWidth="12" markerHeight="10" refX="10" refY="5" orient="auto"><path d="M0,0 L11,5 L0,10 z" fill="#2563eb"/></marker>
    <marker id="aho" markerWidth="12" markerHeight="10" refX="10" refY="5" orient="auto"><path d="M0,0 L11,5 L0,10 z" fill="#ea580c"/></marker>
    <marker id="ahg" markerWidth="12" markerHeight="10" refX="10" refY="5" orient="auto"><path d="M0,0 L11,5 L0,10 z" fill="#16a34a"/></marker>
    <marker id="ahr" markerWidth="12" markerHeight="10" refX="10" refY="5" orient="auto"><path d="M0,0 L11,5 L0,10 z" fill="#dc2626"/></marker>
    <marker id="ahp" markerWidth="12" markerHeight="10" refX="10" refY="5" orient="auto"><path d="M0,0 L11,5 L0,10 z" fill="#db2777"/></marker>
    <marker id="ahv" markerWidth="12" markerHeight="10" refX="10" refY="5" orient="auto"><path d="M0,0 L11,5 L0,10 z" fill="#7e22ce"/></marker>
    <marker id="trip" markerWidth="17" markerHeight="15" refX="15" refY="7.5" orient="auto"><path d="M1,1 L15,7.5 L1,14 z" fill="#fff" stroke="#db2777" stroke-width="2"/></marker>
  </defs>

  <rect width="2140" height="1240" fill="#ffffff"/>

  <!-- ═════════ TITLE ═════════ -->
  <text x="1070" y="52" font-family="Marker Felt" font-size="45" fill="#1e40af" text-anchor="middle" font-weight="bold">NOTIFICATION — DELIVERY LIFECYCLE &amp; FAN-OUT</text>
  <path d="M540,68 Q1070,86 1600,66" stroke="#1e40af" stroke-width="3.5" fill="none" stroke-linecap="round"/>

  <!-- ═════════ STORY CIRCLES ═════════ -->
  <circle cx="90" cy="150" r="15" fill="none" stroke="#2563eb" stroke-width="2.6"/><text x="90" y="157" font-family="Chalkboard SE" font-size="16" fill="#2563eb" text-anchor="middle" font-weight="bold">1</text>
  <circle cx="378" cy="150" r="15" fill="none" stroke="#7e22ce" stroke-width="2.6"/><text x="378" y="157" font-family="Chalkboard SE" font-size="16" fill="#7e22ce" text-anchor="middle" font-weight="bold">2</text>
  <circle cx="1060" cy="150" r="15" fill="none" stroke="#16a34a" stroke-width="2.6"/><text x="1060" y="157" font-family="Chalkboard SE" font-size="16" fill="#16a34a" text-anchor="middle" font-weight="bold">3</text>
  <circle cx="1470" cy="150" r="15" fill="none" stroke="#ea580c" stroke-width="2.6"/><text x="1470" y="157" font-family="Chalkboard SE" font-size="16" fill="#ea580c" text-anchor="middle" font-weight="bold">4</text>

  <!-- CLIENT -->
  <rect x="60" y="170" width="250" height="118" rx="12" fill="none" stroke="#2563eb" stroke-width="3.2"/>
  <text x="185" y="202" font-family="Chalkboard SE" font-size="16" fill="#2563eb" text-anchor="middle" font-weight="bold">CLIENT</text>
  <path d="M74,214 L296,214" stroke="#2563eb" stroke-width="2"/>
  <text x="80" y="242" font-family="Chalkboard SE" font-size="13.5" fill="#111">send(user, msg, channels, pri)</text>
  <text x="80" y="270" font-family="Chalkboard SE" font-size="12" fill="#6b7280">returns tracking id &#183; O(log n)</text>

  <!-- GATEWAY / SERVICE -->
  <rect x="360" y="170" width="330" height="118" rx="12" fill="none" stroke="#7e22ce" stroke-width="3.2"/>
  <text x="525" y="202" font-family="Chalkboard SE" font-size="16" fill="#7e22ce" text-anchor="middle" font-weight="bold">NotificationGateway — FACADE</text>
  <path d="M374,214 L676,214" stroke="#7e22ce" stroke-width="2"/>
  <text x="380" y="242" font-family="Chalkboard SE" font-size="13.5" fill="#111">FACTORY: build Notification (UUID,</text>
  <text x="380" y="264" font-family="Chalkboard SE" font-size="13.5" fill="#111">PENDING, retryCount=0) &#8594; enqueue</text>

  <!-- PRIORITY QUEUE -->
  <rect x="730" y="170" width="270" height="118" rx="12" fill="none" stroke="#2563eb" stroke-width="3.2"/>
  <text x="865" y="200" font-family="Chalkboard SE" font-size="15" fill="#2563eb" text-anchor="middle" font-weight="bold">PriorityBlockingQueue</text>
  <path d="M744,210 L986,210" stroke="#2563eb" stroke-width="2"/>
  <rect x="752" y="224" width="46" height="34" rx="5" fill="#fee2e2" stroke="#dc2626" stroke-width="2"/><text x="775" y="247" font-family="Chalkboard SE" font-size="12" fill="#dc2626" text-anchor="middle" font-weight="bold">U</text>
  <rect x="806" y="224" width="46" height="34" rx="5" fill="#ffedd5" stroke="#ea580c" stroke-width="2"/><text x="829" y="247" font-family="Chalkboard SE" font-size="12" fill="#ea580c" text-anchor="middle" font-weight="bold">H</text>
  <rect x="860" y="224" width="46" height="34" rx="5" fill="#dbeafe" stroke="#2563eb" stroke-width="2"/><text x="883" y="247" font-family="Chalkboard SE" font-size="12" fill="#2563eb" text-anchor="middle" font-weight="bold">M</text>
  <rect x="914" y="224" width="46" height="34" rx="5" fill="#dcfce7" stroke="#16a34a" stroke-width="2"/><text x="937" y="247" font-family="Chalkboard SE" font-size="12" fill="#16a34a" text-anchor="middle" font-weight="bold">L</text>
  <text x="865" y="280" font-family="Chalkboard SE" font-size="12" fill="#6b7280" text-anchor="middle">max-heap on priority</text>

  <!-- WORKER -->
  <rect x="1030" y="170" width="330" height="118" rx="12" fill="none" stroke="#16a34a" stroke-width="3.2"/>
  <text x="1195" y="200" font-family="Chalkboard SE" font-size="16" fill="#16a34a" text-anchor="middle" font-weight="bold">WORKER POOL — ExecutorService</text>
  <path d="M1044,210 L1346,210" stroke="#16a34a" stroke-width="2"/>
  <text x="1050" y="236" font-family="Chalkboard SE" font-size="13.5" fill="#111">poll() highest-priority (URGENT first)</text>
  <text x="1050" y="258" font-family="Chalkboard SE" font-size="13.5" fill="#111">ChannelSenderFactory.get(channel)</text>
  <text x="1050" y="280" font-family="Chalkboard SE" font-size="12" fill="#6b7280">4 threads &#183; enqueue fast, deliver slow (I/O)</text>

  <!-- flow arrows -->
  <path d="M310,229 L358,229" stroke="#111" stroke-width="3" fill="none" marker-end="url(#ah)"/>
  <text x="334" y="218" font-family="Chalkboard SE" font-size="11.5" fill="#111" text-anchor="middle">send</text>
  <path d="M690,229 L728,229" stroke="#111" stroke-width="3" fill="none" marker-end="url(#ah)"/>
  <text x="709" y="218" font-family="Chalkboard SE" font-size="11.5" fill="#111" text-anchor="middle">offer</text>
  <path d="M1000,229 L1028,229" stroke="#111" stroke-width="3" fill="none" marker-end="url(#ah)"/>
  <text x="1014" y="218" font-family="Chalkboard SE" font-size="11.5" fill="#111" text-anchor="middle">take</text>

  <!-- FAN-OUT -->
  <text x="1385" y="200" font-family="Chalkboard SE" font-size="12.5" fill="#ea580c" font-weight="bold">STRATEGY fan-out</text>
  <path d="M1360,216 C1440,180 1520,138 1596,132" stroke="#ea580c" stroke-width="2.8" fill="none" marker-end="url(#aho)"/>
  <path d="M1360,224 C1440,214 1520,214 1596,214" stroke="#ea580c" stroke-width="2.8" fill="none" marker-end="url(#aho)"/>
  <path d="M1360,238 C1440,270 1520,296 1596,298" stroke="#ea580c" stroke-width="2.8" fill="none" marker-end="url(#aho)"/>
  <path d="M1360,246 C1440,330 1520,378 1596,382" stroke="#ea580c" stroke-width="2.8" fill="none" marker-end="url(#aho)"/>

  <!-- CHANNEL SENDERS -->
  <rect x="1600" y="106" width="470" height="60" rx="10" fill="none" stroke="#ea580c" stroke-width="3"/>
  <text x="1616" y="132" font-family="Chalkboard SE" font-size="15" fill="#ea580c" font-weight="bold">EmailChannelSender</text>
  <text x="1616" y="154" font-family="Chalkboard SE" font-size="12.5" fill="#6b7280">rich HTML, adds subject line</text>

  <rect x="1600" y="188" width="470" height="60" rx="10" fill="none" stroke="#ea580c" stroke-width="3"/>
  <text x="1616" y="214" font-family="Chalkboard SE" font-size="15" fill="#ea580c" font-weight="bold">SmsChannelSender</text>
  <text x="1616" y="236" font-family="Chalkboard SE" font-size="12.5" fill="#6b7280">truncates body to 160 chars</text>

  <rect x="1600" y="270" width="470" height="60" rx="10" fill="none" stroke="#ea580c" stroke-width="3"/>
  <text x="1616" y="296" font-family="Chalkboard SE" font-size="15" fill="#ea580c" font-weight="bold">PushChannelSender</text>
  <text x="1616" y="318" font-family="Chalkboard SE" font-size="12.5" fill="#6b7280">device token &#183; FCM / APNs</text>

  <rect x="1600" y="352" width="470" height="60" rx="10" fill="none" stroke="#ea580c" stroke-width="3"/>
  <text x="1616" y="378" font-family="Chalkboard SE" font-size="15" fill="#ea580c" font-weight="bold">InAppChannelSender</text>
  <text x="1616" y="400" font-family="Chalkboard SE" font-size="12.5" fill="#6b7280">persisted, read / unread tracking</text>

  <!-- ═════════ CLUSTER 1: STATE LIFECYCLE ═════════ -->
  <rect x="50" y="450" width="920" height="330" rx="16" fill="none" stroke="#2563eb" stroke-width="3" stroke-dasharray="14,9"/>
  <text x="80" y="486" font-family="Marker Felt" font-size="20" fill="#1e40af" font-weight="bold">STATUS LIFECYCLE — the state machine per notification</text>

  <!-- start dot -->
  <circle cx="92" cy="560" r="13" fill="#111"/>
  <path d="M106,560 L146,560" stroke="#111" stroke-width="3" fill="none" marker-end="url(#ah)"/>
  <text x="150" y="546" font-family="Chalkboard SE" font-size="12" fill="#111">send()</text>

  <!-- PENDING -->
  <rect x="150" y="516" width="185" height="92" rx="12" fill="none" stroke="#2563eb" stroke-width="3"/>
  <text x="242" y="548" font-family="Chalkboard SE" font-size="17" fill="#2563eb" text-anchor="middle" font-weight="bold">PENDING</text>
  <path d="M164,558 L322,558" stroke="#2563eb" stroke-width="1.8"/>
  <text x="242" y="584" font-family="Chalkboard SE" font-size="12.5" fill="#6b7280" text-anchor="middle">queued, awaiting</text>
  <text x="242" y="600" font-family="Chalkboard SE" font-size="12.5" fill="#6b7280" text-anchor="middle">a worker</text>

  <!-- SENT -->
  <rect x="450" y="498" width="180" height="80" rx="12" fill="none" stroke="#16a34a" stroke-width="3.2"/>
  <text x="540" y="530" font-family="Chalkboard SE" font-size="17" fill="#16a34a" text-anchor="middle" font-weight="bold">SENT</text>
  <path d="M464,540 L616,540" stroke="#16a34a" stroke-width="1.8"/>
  <text x="540" y="566" font-family="Chalkboard SE" font-size="12.5" fill="#6b7280" text-anchor="middle">terminal &#10003; delivered</text>

  <!-- FAILED -->
  <rect x="450" y="666" width="180" height="80" rx="12" fill="none" stroke="#dc2626" stroke-width="3.2"/>
  <text x="540" y="698" font-family="Chalkboard SE" font-size="17" fill="#dc2626" text-anchor="middle" font-weight="bold">FAILED</text>
  <path d="M464,708 L616,708" stroke="#dc2626" stroke-width="1.8"/>
  <text x="540" y="732" font-family="Chalkboard SE" font-size="12.5" fill="#6b7280" text-anchor="middle">channel threw / down</text>

  <!-- RETRYING -->
  <rect x="710" y="666" width="200" height="80" rx="12" fill="none" stroke="#ea580c" stroke-width="3.2"/>
  <text x="810" y="698" font-family="Chalkboard SE" font-size="16" fill="#ea580c" text-anchor="middle" font-weight="bold">RETRYING</text>
  <path d="M724,708 L896,708" stroke="#ea580c" stroke-width="1.8"/>
  <text x="810" y="732" font-family="Chalkboard SE" font-size="12.5" fill="#6b7280" text-anchor="middle">re-enqueued w/ backoff</text>

  <!-- transitions -->
  <path d="M335,540 C390,528 400,528 448,528" stroke="#16a34a" stroke-width="2.8" fill="none" marker-end="url(#ahg)"/>
  <text x="360" y="518" font-family="Chalkboard SE" font-size="12.5" fill="#16a34a" font-weight="bold">success</text>
  <path d="M335,584 C390,620 400,660 448,690" stroke="#dc2626" stroke-width="2.8" fill="none" marker-end="url(#ahr)"/>
  <text x="352" y="648" font-family="Chalkboard SE" font-size="12.5" fill="#dc2626" font-weight="bold">error</text>
  <path d="M630,706 L706,706" stroke="#ea580c" stroke-width="2.8" fill="none" marker-end="url(#aho)"/>
  <text x="668" y="696" font-family="Chalkboard SE" font-size="11.5" fill="#ea580c" text-anchor="middle" font-weight="bold">retryFailed()</text>
  <text x="668" y="732" font-family="Chalkboard SE" font-size="11" fill="#6b7280" text-anchor="middle">[count &lt; MAX]</text>
  <!-- RETRYING -> SENT -->
  <path d="M812,666 C822,614 700,588 624,574" stroke="#16a34a" stroke-width="2.8" fill="none" marker-end="url(#ahg)"/>
  <text x="800" y="606" font-family="Chalkboard SE" font-size="12.5" fill="#16a34a" font-weight="bold">retry ok</text>
  <!-- RETRYING -> FAILED (fails again) -->
  <path d="M760,666 C720,636 690,636 648,662" stroke="#dc2626" stroke-width="2.4" stroke-dasharray="8,5" fill="none" marker-end="url(#ahr)"/>
  <text x="690" y="628" font-family="Chalkboard SE" font-size="11.5" fill="#dc2626" text-anchor="middle" font-weight="bold">fails again</text>

  <!-- terminal notes -->
  <circle cx="700" cy="538" r="12" fill="none" stroke="#111" stroke-width="3"/><circle cx="700" cy="538" r="6" fill="#111"/>
  <path d="M630,538 L684,538" stroke="#111" stroke-width="2.6" fill="none" marker-end="url(#ah)"/>
  <text x="716" y="542" font-family="Chalkboard SE" font-size="12.5" fill="#111">done</text>
  <text x="452" y="770" font-family="Chalkboard SE" font-size="12.5" fill="#dc2626" font-weight="bold">count = MAX &#8594; FAILED is terminal (give up, alert)</text>

  <!-- ═════════ CLUSTER 2: TEMPLATE METHOD ═════════ -->
  <rect x="990" y="450" width="560" height="330" rx="16" fill="none" stroke="#db2777" stroke-width="3" stroke-dasharray="14,9"/>
  <text x="1018" y="486" font-family="Marker Felt" font-size="20" fill="#db2777" font-weight="bold">TEMPLATE METHOD — the send skeleton</text>

  <rect x="1016" y="502" width="508" height="150" rx="10" fill="none" stroke="#db2777" stroke-width="3"/>
  <text x="1032" y="530" font-family="Chalkboard SE" font-size="16" fill="#111" font-weight="bold">&#171;abstract&#187; AbstractChannelSender</text>
  <path d="M1028,540 L1512,540" stroke="#db2777" stroke-width="1.8"/>
  <text x="1032" y="566" font-family="Chalkboard SE" font-size="14" fill="#111" font-weight="bold">send() &#123;final&#125;  &#8212;  fixed pipeline:</text>
  <text x="1044" y="590" font-family="Chalkboard SE" font-size="13.5" fill="#111">1. validate(n)      &#8212; shared in base</text>
  <text x="1044" y="612" font-family="Chalkboard SE" font-size="13.5" fill="#111">2. formatMessage(n) &#8212; hook, overridable</text>
  <text x="1044" y="634" font-family="Chalkboard SE" font-size="13.5" fill="#dc2626" font-weight="bold">3. deliver(n)       &#8212; abstract, per channel</text>

  <!-- concrete senders row -->
  <rect x="1016" y="686" width="160" height="66" rx="9" fill="none" stroke="#ea580c" stroke-width="2.6"/>
  <text x="1096" y="714" font-family="Chalkboard SE" font-size="13.5" fill="#ea580c" text-anchor="middle" font-weight="bold">Email</text>
  <text x="1096" y="736" font-family="Chalkboard SE" font-size="11" fill="#6b7280" text-anchor="middle">override deliver</text>
  <rect x="1190" y="686" width="160" height="66" rx="9" fill="none" stroke="#ea580c" stroke-width="2.6"/>
  <text x="1270" y="714" font-family="Chalkboard SE" font-size="13.5" fill="#ea580c" text-anchor="middle" font-weight="bold">SMS</text>
  <text x="1270" y="736" font-family="Chalkboard SE" font-size="11" fill="#6b7280" text-anchor="middle">+ format 160c</text>
  <rect x="1364" y="686" width="160" height="66" rx="9" fill="none" stroke="#ea580c" stroke-width="2.6"/>
  <text x="1444" y="714" font-family="Chalkboard SE" font-size="13.5" fill="#ea580c" text-anchor="middle" font-weight="bold">Push / InApp</text>
  <text x="1444" y="736" font-family="Chalkboard SE" font-size="11" fill="#6b7280" text-anchor="middle">override deliver</text>

  <path d="M1096,686 L1096,656" stroke="#db2777" stroke-width="2.4" stroke-dasharray="8,5" fill="none" marker-end="url(#trip)"/>
  <path d="M1270,686 L1270,656" stroke="#db2777" stroke-width="2.4" stroke-dasharray="8,5" fill="none" marker-end="url(#trip)"/>
  <path d="M1444,686 L1444,656" stroke="#db2777" stroke-width="2.4" stroke-dasharray="8,5" fill="none" marker-end="url(#trip)"/>

  <!-- ═════════ CLUSTER 3: THREAD SAFETY + RETRY ═════════ -->
  <rect x="1570" y="450" width="500" height="330" rx="16" fill="none" stroke="#7e22ce" stroke-width="3" stroke-dasharray="14,9"/>
  <text x="1598" y="486" font-family="Marker Felt" font-size="20" fill="#7e22ce" font-weight="bold">THREAD SAFETY &amp; RETRY</text>

  <text x="1596" y="522" font-family="Chalkboard SE" font-size="14" fill="#111">PriorityBlockingQueue — thread-safe,</text>
  <text x="1596" y="544" font-family="Chalkboard SE" font-size="14" fill="#111">priority order, no manual wait/notify</text>
  <text x="1596" y="572" font-family="Chalkboard SE" font-size="14" fill="#111">ConcurrentHashMap&lt;id, Notification&gt;</text>
  <text x="1596" y="594" font-family="Chalkboard SE" font-size="14" fill="#111">&#8594; O(1) status lookup, safe under sends</text>
  <text x="1596" y="622" font-family="Chalkboard SE" font-size="14" fill="#111">ExecutorService — deliver off the hot path</text>

  <text x="1596" y="656" font-family="Chalkboard SE" font-size="14" fill="#ea580c" font-weight="bold">RetryPolicy.getDelayForAttempt(n):</text>
  <text x="1596" y="680" font-family="Chalkboard SE" font-size="14" fill="#111">delay = baseDelay &#215; 2&#8319;   (1s, 2s, 4s...)</text>
  <text x="1596" y="702" font-family="Chalkboard SE" font-size="14" fill="#111">max 3 attempts, then FAILED terminal</text>
  <text x="1596" y="734" font-family="Chalkboard SE" font-size="13" fill="#7e22ce" font-weight="bold">each channel retries INDEPENDENTLY</text>
  <text x="1596" y="756" font-family="Chalkboard SE" font-size="12.5" fill="#6b7280">multi-channel fan-out = N independent notifications</text>

  <!-- ═════════ STICKY A: BACKOFF ═════════ -->
  <g transform="rotate(-2 320 890)">
    <rect x="60" y="810" width="500" height="158" fill="#fef9c3" stroke="#eab308" stroke-width="2.5" rx="4"/>
    <text x="80" y="842" font-family="Chalkboard SE" font-size="15.5" fill="#7f1d1d" font-weight="bold">EXPONENTIAL BACKOFF + JITTER:</text>
    <text x="80" y="872" font-family="Chalkboard SE" font-size="14" fill="#713f12">delay &#215; 2&#8319; spreads retries over time.</text>
    <text x="80" y="896" font-family="Chalkboard SE" font-size="14" fill="#713f12">add random jitter &#8594; no thundering herd</text>
    <text x="80" y="920" font-family="Chalkboard SE" font-size="14" fill="#713f12">(synchronized retry storm).</text>
    <text x="80" y="948" font-family="Chalkboard SE" font-size="13.5" fill="#713f12">cap max backoff &#183; circuit-break a dead channel.</text>
  </g>
  <circle cx="320" cy="814" r="7" fill="#dc2626"/>

  <!-- ═════════ STICKY B: PRIORITY ═════════ -->
  <g transform="rotate(1.5 800 890)">
    <rect x="600" y="810" width="440" height="158" fill="#fef9c3" stroke="#eab308" stroke-width="2.5" rx="4"/>
    <text x="620" y="842" font-family="Chalkboard SE" font-size="15.5" fill="#7f1d1d" font-weight="bold">PRIORITY ORDERING:</text>
    <text x="620" y="872" font-family="Chalkboard SE" font-size="14" fill="#713f12">URGENT(4) &gt; HIGH(3) &gt; MEDIUM(2) &gt; LOW(1)</text>
    <text x="620" y="896" font-family="Chalkboard SE" font-size="14" fill="#713f12">Comparator reversed &#8594; max-heap on value.</text>
    <text x="620" y="920" font-family="Chalkboard SE" font-size="14" fill="#713f12">an OTP jumps the line ahead of a</text>
    <text x="620" y="944" font-family="Chalkboard SE" font-size="14" fill="#713f12">marketing digest — every time.</text>
  </g>
  <circle cx="800" cy="814" r="7" fill="#dc2626"/>

  <!-- ═════════ STICKY C: IDEMPOTENCY ═════════ -->
  <g transform="rotate(-1.5 1300 890)">
    <rect x="1080" y="810" width="440" height="158" fill="#fef9c3" stroke="#eab308" stroke-width="2.5" rx="4"/>
    <text x="1100" y="842" font-family="Chalkboard SE" font-size="15.5" fill="#7f1d1d" font-weight="bold">IDEMPOTENCY — dedupe:</text>
    <text x="1100" y="872" font-family="Chalkboard SE" font-size="14" fill="#713f12">retries mean at-least-once delivery, so</text>
    <text x="1100" y="896" font-family="Chalkboard SE" font-size="14" fill="#713f12">consumers must dedupe. Key =</text>
    <text x="1100" y="920" font-family="Chalkboard SE" font-size="14" fill="#713f12">hash(userId + msg + channel + window)</text>
    <text x="1100" y="944" font-family="Chalkboard SE" font-size="13.5" fill="#713f12">in a ConcurrentHashMap / Redis SET w/ TTL.</text>
  </g>
  <circle cx="1300" cy="814" r="7" fill="#dc2626"/>

  <!-- ═════════ SCALE note ═════════ -->
  <text x="1560" y="842" font-family="Chalkboard SE" font-size="15" fill="#db2777" font-weight="bold">At scale:</text>
  <text x="1560" y="870" font-family="Chalkboard SE" font-size="14" fill="#111">swap the in-memory queue for Kafka / RabbitMQ,</text>
  <text x="1560" y="894" font-family="Chalkboard SE" font-size="14" fill="#111">partition by userId for ordering, scale consumers.</text>
  <text x="1560" y="922" font-family="Chalkboard SE" font-size="14" fill="#111">The NotificationService interface never changes —</text>
  <text x="1560" y="946" font-family="Chalkboard SE" font-size="14" fill="#111">only the implementation behind it does.</text>

  <!-- ═════════ WHITEBOARD ORDER ═════════ -->
  <text x="60" y="1020" font-family="Marker Felt" font-size="19" fill="#1e40af" font-weight="bold">WHITEBOARD ORDER:</text>
  <text x="270" y="1020" font-family="Chalkboard SE" font-size="15.5" fill="#111">&#9312; client send &#8594; &#9313; gateway builds + enqueues (priority) &#8594; &#9314; worker polls highest-priority &#8594; &#9315; Strategy fan-out to channels (Template Method skeleton) &#8594; status walks PENDING &#8594; SENT / FAILED &#8594; RETRYING</text>

  <!-- ═════════ LEGEND ═════════ -->
  <rect x="50" y="1060" width="2020" height="150" rx="14" fill="none" stroke="#2563eb" stroke-width="2.6" stroke-dasharray="10,8"/>
  <text x="80" y="1122" font-family="Marker Felt" font-size="22" fill="#1e40af" font-weight="bold">LEGEND</text>
  <g font-family="Chalkboard SE" font-size="13.5" fill="#111">
    <rect x="230" y="1096" width="24" height="24" rx="5" fill="none" stroke="#2563eb" stroke-width="3"/><text x="264" y="1114">client / queue / PENDING</text>
    <rect x="230" y="1142" width="24" height="24" rx="5" fill="none" stroke="#7e22ce" stroke-width="3"/><text x="264" y="1160">facade / thread-safety</text>
    <rect x="540" y="1096" width="24" height="24" rx="5" fill="none" stroke="#16a34a" stroke-width="3"/><text x="574" y="1114">worker / SENT</text>
    <rect x="540" y="1142" width="24" height="24" rx="5" fill="none" stroke="#ea580c" stroke-width="3"/><text x="574" y="1160">channels / RETRYING</text>
    <rect x="800" y="1096" width="24" height="24" rx="5" fill="none" stroke="#dc2626" stroke-width="3"/><text x="834" y="1114">FAILED / error path</text>
    <rect x="800" y="1142" width="24" height="24" rx="5" fill="#fef9c3" stroke="#eab308" stroke-width="2.5"/><text x="834" y="1160">interview insight</text>
    <path d="M1060,1108 L1130,1108" stroke="#111" stroke-width="2.8" fill="none" marker-end="url(#ah)"/><text x="1144" y="1114">flow / transition</text>
    <path d="M1060,1150 C1100,1138 1125,1162 1160,1150" stroke="#ea580c" stroke-width="2.8" fill="none" marker-end="url(#aho)"/><text x="1174" y="1156">fan-out (parallel)</text>
    <path d="M1400,1150 L1470,1150" stroke="#db2777" stroke-width="2.4" stroke-dasharray="8,5" fill="none" marker-end="url(#trip)"/><text x="1484" y="1156">extends (Template Method)</text>
    <circle cx="1412" cy="1108" r="12" fill="none" stroke="#2563eb" stroke-width="2.4"/><text x="1412" y="1113" text-anchor="middle" fill="#2563eb" font-weight="bold" font-size="12">n</text><text x="1434" y="1114">story step</text>
    <text x="1700" y="1114" fill="#6b7280">Patterns: Strategy &#183; Template Method &#183; Factory &#183; Observer</text>
    <text x="1700" y="1160" fill="#6b7280">Notification System — LLD (multi-channel, priority, retry)</text>
  </g>
</svg>
