<svg xmlns="http://www.w3.org/2000/svg" width="2140" height="1360" viewBox="0 0 2140 1360">
  <defs>
    <marker id="ah" markerWidth="12" markerHeight="10" refX="10" refY="5" orient="auto">
      <path d="M0,0 L11,5 L0,10 z" fill="#111"/>
    </marker>
    <marker id="ahb" markerWidth="12" markerHeight="10" refX="10" refY="5" orient="auto">
      <path d="M0,0 L11,5 L0,10 z" fill="#2563eb"/>
    </marker>
    <marker id="aho" markerWidth="12" markerHeight="10" refX="10" refY="5" orient="auto">
      <path d="M0,0 L11,5 L0,10 z" fill="#ea580c"/>
    </marker>
    <marker id="ahp" markerWidth="12" markerHeight="10" refX="10" refY="5" orient="auto">
      <path d="M0,0 L11,5 L0,10 z" fill="#db2777"/>
    </marker>
    <marker id="ahv" markerWidth="12" markerHeight="10" refX="10" refY="5" orient="auto">
      <path d="M0,0 L11,5 L0,10 z" fill="#7e22ce"/>
    </marker>
    <marker id="trib" markerWidth="17" markerHeight="15" refX="15" refY="7.5" orient="auto">
      <path d="M1,1 L15,7.5 L1,14 z" fill="#fff" stroke="#2563eb" stroke-width="2"/>
    </marker>
    <marker id="trio" markerWidth="17" markerHeight="15" refX="15" refY="7.5" orient="auto">
      <path d="M1,1 L15,7.5 L1,14 z" fill="#fff" stroke="#ea580c" stroke-width="2"/>
    </marker>
    <marker id="trip" markerWidth="17" markerHeight="15" refX="15" refY="7.5" orient="auto">
      <path d="M1,1 L15,7.5 L1,14 z" fill="#fff" stroke="#db2777" stroke-width="2"/>
    </marker>
  </defs>

  <rect width="2140" height="1360" fill="#ffffff"/>

  <!-- ═════════ TITLE ═════════ -->
  <text x="1070" y="52" font-family="Marker Felt" font-size="46" fill="#1e40af" text-anchor="middle" font-weight="bold">QUERY DSL — CLASS DESIGN (LLD)</text>
  <path d="M660,68 Q1070,84 1480,66" stroke="#1e40af" stroke-width="3.5" fill="none" stroke-linecap="round"/>

  <!-- ═════════ 1: CALLER + FLUENT BUILDER ═════════ -->
  <text x="115" y="92" font-family="Chalkboard SE" font-size="17" fill="#111" text-anchor="middle" font-weight="bold">CALLER</text>
  <rect x="62" y="100" width="108" height="66" rx="6" fill="none" stroke="#111" stroke-width="3"/>
  <text x="116" y="142" font-family="Chalkboard SE" font-size="24" fill="#64748b" text-anchor="middle" font-weight="bold">{ }</text>
  <path d="M52,166 L180,166 L168,184 L64,184 z" fill="none" stroke="#111" stroke-width="3"/>

  <circle cx="208" cy="112" r="14" fill="none" stroke="#2563eb" stroke-width="2.6"/>
  <text x="208" y="119" font-family="Chalkboard SE" font-size="16" fill="#2563eb" text-anchor="middle" font-weight="bold">1</text>
  <path d="M184,140 L236,140" stroke="#111" stroke-width="3" fill="none" marker-end="url(#ah)"/>

  <rect x="240" y="86" width="500" height="136" rx="12" fill="none" stroke="#2563eb" stroke-width="3"/>
  <text x="254" y="114" font-family="Chalkboard SE" font-size="17" fill="#2563eb" font-weight="bold">FLUENT BUILDER — Criteria DSL</text>
  <text x="254" y="140" font-family="Chalkboard SE" font-size="13.5" fill="#111">Query.from("deployments")</text>
  <text x="254" y="162" font-family="Chalkboard SE" font-size="13.5" fill="#111">.where(and(eq("status","FAILED"),</text>
  <text x="254" y="184" font-family="Chalkboard SE" font-size="13.5" fill="#111">&#160;&#160;&#160;&#160;&#160;&#160;gt("durationMs", 30000)))</text>
  <text x="254" y="206" font-family="Chalkboard SE" font-size="13.5" fill="#111">.orderBy("durationMs", DESC).page(20,0)</text>

  <path d="M300,222 L300,248 L226,248 L226,326" stroke="#2563eb" stroke-width="2.6" fill="none" marker-end="url(#ahb)"/>
  <text x="312" y="244" font-family="Chalkboard SE" font-size="12.5" fill="#2563eb">build()</text>

  <!-- ═════════ STICKY A: JSON ≡ AST ═════════ -->
  <g transform="rotate(-2 965 180)">
    <rect x="800" y="122" width="330" height="118" fill="#fef9c3" stroke="#eab308" stroke-width="2.5" rx="4"/>
    <text x="818" y="152" font-family="Chalkboard SE" font-size="15" fill="#713f12" font-weight="bold">KEY INSIGHT:</text>
    <text x="818" y="178" font-family="Chalkboard SE" font-size="14" fill="#713f12">JSON filter tree &#8801; this AST —</text>
    <text x="818" y="200" font-family="Chalkboard SE" font-size="14" fill="#713f12">same recursive shape. Parsing</text>
    <text x="818" y="222" font-family="Chalkboard SE" font-size="14" fill="#713f12">= direct recursive descent.</text>
  </g>
  <circle cx="965" cy="126" r="7" fill="#dc2626"/>

  <!-- ═════════ FACADE: QueryEngine ═════════ -->
  <rect x="1420" y="80" width="560" height="150" rx="12" fill="none" stroke="#7e22ce" stroke-width="3.2"/>
  <text x="1700" y="110" font-family="Chalkboard SE" font-size="19" fill="#7e22ce" text-anchor="middle" font-weight="bold">QueryEngine — FACADE</text>
  <text x="1444" y="140" font-family="Chalkboard SE" font-size="14" fill="#111">+registerTable(schema, rows)</text>
  <text x="1444" y="164" font-family="Chalkboard SE" font-size="14" fill="#111">+execute(request): QueryResponse</text>
  <text x="1444" y="188" font-family="Chalkboard SE" font-size="14" fill="#111">+toSql(query)&#160;&#160;/&#160;&#160;+toMongo(query)</text>
  <text x="1444" y="214" font-family="Chalkboard SE" font-size="12.5" fill="#6b7280">what the interviewer reads first</text>

  <!-- facade arrows -->
  <path d="M1560,230 L1560,252 L1118,252 L1118,738 L1106,738" stroke="#7e22ce" stroke-width="3" fill="none" marker-end="url(#ahv)"/>
  <text x="1131" y="650" font-family="Chalkboard SE" font-size="12.5" fill="#7e22ce" transform="rotate(-90 1131 650)">execute</text>
  <path d="M1660,230 L1660,252 L1500,252 L1500,326" stroke="#7e22ce" stroke-width="3" fill="none" marker-end="url(#ahv)"/>
  <text x="1512" y="306" font-family="Chalkboard SE" font-size="12.5" fill="#7e22ce">toSql</text>
  <path d="M1790,230 L1790,326" stroke="#7e22ce" stroke-width="3" fill="none" marker-end="url(#ahv)"/>
  <text x="1802" y="300" font-family="Chalkboard SE" font-size="12.5" fill="#7e22ce">toMongo</text>

  <!-- ═════════ 2: THE AST GROUP ═════════ -->
  <rect x="50" y="270" width="660" height="590" rx="16" fill="none" stroke="#2563eb" stroke-width="3" stroke-dasharray="14,9"/>
  <circle cx="80" cy="298" r="14" fill="none" stroke="#2563eb" stroke-width="2.6"/>
  <text x="80" y="305" font-family="Chalkboard SE" font-size="16" fill="#2563eb" text-anchor="middle" font-weight="bold">2</text>
  <text x="102" y="305" font-family="Marker Felt" font-size="20" fill="#2563eb" font-weight="bold">THE AST — MODEL (Composite)</text>

  <!-- Query -->
  <rect x="90" y="330" width="260" height="162" rx="10" fill="none" stroke="#2563eb" stroke-width="3"/>
  <text x="220" y="358" font-family="Chalkboard SE" font-size="18" fill="#111" text-anchor="middle" font-weight="bold">Query</text>
  <path d="M102,370 L338,370" stroke="#2563eb" stroke-width="2"/>
  <text x="106" y="394" font-family="Chalkboard SE" font-size="14" fill="#111">source: String</text>
  <text x="106" y="416" font-family="Chalkboard SE" font-size="14" fill="#111">select: List&lt;String&gt;</text>
  <text x="106" y="438" font-family="Chalkboard SE" font-size="14" fill="#111">where: Condition</text>
  <text x="106" y="460" font-family="Chalkboard SE" font-size="14" fill="#111">sorts: List&lt;SortSpec&gt;</text>
  <text x="106" y="482" font-family="Chalkboard SE" font-size="14" fill="#111">page: Page (cap 1000)</text>

  <!-- Condition -->
  <rect x="420" y="330" width="264" height="122" rx="10" fill="none" stroke="#2563eb" stroke-width="3"/>
  <text x="552" y="360" font-family="Chalkboard SE" font-size="16" fill="#111" text-anchor="middle" font-weight="bold">&#171;interface&#187; Condition</text>
  <path d="M432,372 L672,372" stroke="#2563eb" stroke-width="2"/>
  <text x="438" y="398" font-family="Chalkboard SE" font-size="14" fill="#111">accept(visitor): T</text>
  <text x="438" y="424" font-family="Chalkboard SE" font-size="12" fill="#6b7280">the ONLY method — visitors do the rest</text>

  <!-- where composition -->
  <path d="M358,404 L416,404" stroke="#111" stroke-width="2.8" fill="none" marker-end="url(#ah)"/>
  <path d="M350,404 L360,399 L370,404 L360,409 z" fill="#2563eb"/>
  <text x="366" y="394" font-family="Chalkboard SE" font-size="12.5" fill="#2563eb">where</text>

  <!-- children -->
  <rect x="85" y="560" width="205" height="142" rx="10" fill="none" stroke="#2563eb" stroke-width="2.8"/>
  <text x="187" y="588" font-family="Chalkboard SE" font-size="16" fill="#111" text-anchor="middle" font-weight="bold">Comparison</text>
  <path d="M97,598 L278,598" stroke="#2563eb" stroke-width="1.8"/>
  <text x="100" y="620" font-family="Chalkboard SE" font-size="13.5" fill="#111">field: String</text>
  <text x="100" y="641" font-family="Chalkboard SE" font-size="13.5" fill="#111">op: Operator</text>
  <text x="100" y="662" font-family="Chalkboard SE" font-size="13.5" fill="#111">values: List&lt;Obj&gt;</text>
  <text x="100" y="688" font-family="Chalkboard SE" font-size="12.5" fill="#dc2626" font-weight="bold">ctor checks arity!</text>

  <rect x="318" y="560" width="212" height="118" rx="10" fill="none" stroke="#2563eb" stroke-width="2.8"/>
  <text x="424" y="588" font-family="Chalkboard SE" font-size="15" fill="#111" text-anchor="middle" font-weight="bold">LogicalCondition</text>
  <path d="M330,598 L518,598" stroke="#2563eb" stroke-width="1.8"/>
  <text x="333" y="620" font-family="Chalkboard SE" font-size="13.5" fill="#111">op: AND / OR</text>
  <text x="333" y="642" font-family="Chalkboard SE" font-size="13" fill="#111">children: List&lt;Condition&gt;</text>

  <rect x="558" y="560" width="140" height="100" rx="10" fill="none" stroke="#2563eb" stroke-width="2.8"/>
  <text x="628" y="588" font-family="Chalkboard SE" font-size="14" fill="#111" text-anchor="middle" font-weight="bold">NotCondition</text>
  <path d="M568,598 L688,598" stroke="#2563eb" stroke-width="1.8"/>
  <text x="572" y="622" font-family="Chalkboard SE" font-size="12.5" fill="#111">child: Condition</text>

  <!-- implements fan-in -->
  <path d="M187,560 L480,456" stroke="#2563eb" stroke-width="2.4" stroke-dasharray="8,6" fill="none" marker-end="url(#trib)"/>
  <path d="M424,560 L540,456" stroke="#2563eb" stroke-width="2.4" stroke-dasharray="8,6" fill="none" marker-end="url(#trib)"/>
  <path d="M628,560 L612,456" stroke="#2563eb" stroke-width="2.4" stroke-dasharray="8,6" fill="none" marker-end="url(#trib)"/>

  <!-- recursion note -->
  <text x="318" y="730" font-family="Chalkboard SE" font-size="14.5" fill="#db2777" font-weight="bold">children point BACK to Condition &#8634; (recursive!)</text>
  <path d="M530,678 C600,712 660,540 686,462" stroke="#db2777" stroke-width="2.6" fill="none" marker-end="url(#ahp)" stroke-dasharray="2,6" stroke-linecap="round"/>

  <text x="88" y="790" font-family="Chalkboard SE" font-size="14.5" fill="#15803d" font-weight="bold">immutable &#8658; thread-safe, shareable, natural cache key &#10003;</text>
  <text x="88" y="826" font-family="Chalkboard SE" font-size="13" fill="#6b7280">no toSql() here — the model knows ZERO backends (that's the whole point)</text>

  <!-- ═════════ 3: THE SEAMS ═════════ -->
  <circle cx="795" cy="298" r="14" fill="none" stroke="#16a34a" stroke-width="2.6"/>
  <text x="795" y="305" font-family="Chalkboard SE" font-size="16" fill="#16a34a" text-anchor="middle" font-weight="bold">3</text>
  <text x="817" y="305" font-family="Marker Felt" font-size="20" fill="#16a34a" font-weight="bold">THE SEAMS</text>

  <rect x="780" y="330" width="320" height="172" rx="10" fill="none" stroke="#16a34a" stroke-width="3"/>
  <text x="940" y="358" font-family="Chalkboard SE" font-size="15.5" fill="#111" text-anchor="middle" font-weight="bold">&#171;interface&#187; ConditionVisitor&lt;T&gt;</text>
  <path d="M792,370 L1088,370" stroke="#16a34a" stroke-width="2"/>
  <text x="796" y="394" font-family="Chalkboard SE" font-size="14" fill="#111">visitComparison(c): T</text>
  <text x="796" y="416" font-family="Chalkboard SE" font-size="14" fill="#111">visitLogical(l): T</text>
  <text x="796" y="438" font-family="Chalkboard SE" font-size="14" fill="#111">visitNot(n): T</text>
  <text x="796" y="466" font-family="Chalkboard SE" font-size="12.5" fill="#6b7280">new node type &#8658; every visitor</text>
  <text x="796" y="486" font-family="Chalkboard SE" font-size="12.5" fill="#6b7280">FAILS TO COMPILE (exhaustive!)</text>

  <path d="M684,428 L776,428" stroke="#111" stroke-width="2.8" fill="none" marker-end="url(#ah)"/>
  <text x="692" y="420" font-family="Chalkboard SE" font-size="12" fill="#111">accept(v)</text>

  <rect x="780" y="544" width="320" height="106" rx="10" fill="none" stroke="#16a34a" stroke-width="3"/>
  <text x="940" y="572" font-family="Chalkboard SE" font-size="15.5" fill="#111" text-anchor="middle" font-weight="bold">&#171;interface&#187; QueryTranslator&lt;T&gt;</text>
  <path d="M792,584 L1088,584" stroke="#16a34a" stroke-width="2"/>
  <text x="796" y="608" font-family="Chalkboard SE" font-size="14" fill="#111">translate(q: Query): T</text>
  <text x="796" y="632" font-family="Chalkboard SE" font-size="12.5" fill="#6b7280">Strategy: SQL / Mongo / ES / ...</text>

  <rect x="780" y="692" width="320" height="106" rx="10" fill="none" stroke="#16a34a" stroke-width="3"/>
  <text x="940" y="720" font-family="Chalkboard SE" font-size="15.5" fill="#111" text-anchor="middle" font-weight="bold">&#171;interface&#187; QueryService</text>
  <path d="M792,732 L1088,732" stroke="#16a34a" stroke-width="2"/>
  <text x="796" y="756" font-family="Chalkboard SE" font-size="14" fill="#111">execute(req): QueryResponse</text>
  <text x="796" y="780" font-family="Chalkboard SE" font-size="12.5" fill="#6b7280">errors are DATA, not exceptions</text>

  <path d="M940,798 L940,846" stroke="#16a34a" stroke-width="2.4" stroke-dasharray="8,6" fill="none" marker-end="url(#ahb)"/>

  <rect x="780" y="850" width="320" height="140" rx="10" fill="none" stroke="#16a34a" stroke-width="2.6" stroke-dasharray="10,7"/>
  <text x="940" y="878" font-family="Chalkboard SE" font-size="15" fill="#16a34a" text-anchor="middle" font-weight="bold">WIRE (api/) — POST /v1/query</text>
  <text x="796" y="906" font-family="Chalkboard SE" font-size="13" fill="#111">req: {source, filter, select,</text>
  <text x="796" y="928" font-family="Chalkboard SE" font-size="13" fill="#111">&#160;&#160;&#160;&#160;&#160;sort, page, options}</text>
  <text x="796" y="952" font-family="Chalkboard SE" font-size="13" fill="#111">res: {rows, totalCount, hasMore,</text>
  <text x="796" y="974" font-family="Chalkboard SE" font-size="13" fill="#111">&#160;&#160;&#160;&#160;&#160;stats, errors[]}</text>

  <!-- ═════════ 4: BACKENDS GROUP ═════════ -->
  <rect x="1130" y="270" width="960" height="648" rx="16" fill="none" stroke="#ea580c" stroke-width="3" stroke-dasharray="14,9"/>
  <circle cx="1160" cy="298" r="14" fill="none" stroke="#ea580c" stroke-width="2.6"/>
  <text x="1160" y="305" font-family="Chalkboard SE" font-size="16" fill="#ea580c" text-anchor="middle" font-weight="bold">4</text>
  <text x="1182" y="305" font-family="Marker Felt" font-size="20" fill="#ea580c" font-weight="bold">BACKENDS — one visitor each</text>

  <!-- SqlTranslator -->
  <rect x="1170" y="330" width="410" height="172" rx="10" fill="none" stroke="#ea580c" stroke-width="3"/>
  <text x="1188" y="358" font-family="Chalkboard SE" font-size="17" fill="#111" font-weight="bold">SqlTranslator</text>
  <ellipse cx="1540" cy="348" rx="20" ry="8" fill="none" stroke="#ea580c" stroke-width="2.2"/>
  <path d="M1520,348 L1520,368 M1560,348 L1560,368 M1520,368 A20,8 0 0 0 1560,368" stroke="#ea580c" stroke-width="2.2" fill="none"/>
  <path d="M1182,368 L1568,368" stroke="#ea580c" stroke-width="1.8"/>
  <text x="1188" y="392" font-family="Chalkboard SE" font-size="13.5" fill="#111">SELECT ... WHERE status = ? AND</text>
  <text x="1188" y="414" font-family="Chalkboard SE" font-size="13.5" fill="#111">(env IN (?,?) OR durationMs &gt; ?)</text>
  <text x="1188" y="440" font-family="Chalkboard SE" font-size="13" fill="#111">params: [FAILED, prod, staging, 30000]</text>
  <text x="1188" y="468" font-family="Chalkboard SE" font-size="12.5" fill="#dc2626" font-weight="bold">values NEVER in SQL &#183; identifiers whitelisted</text>

  <!-- MongoTranslator -->
  <rect x="1630" y="330" width="420" height="150" rx="10" fill="none" stroke="#ea580c" stroke-width="3"/>
  <text x="1648" y="358" font-family="Chalkboard SE" font-size="17" fill="#111" font-weight="bold">MongoTranslator</text>
  <path d="M1642,368 L2038,368" stroke="#ea580c" stroke-width="1.8"/>
  <text x="1648" y="392" font-family="Chalkboard SE" font-size="13.5" fill="#111">db.deployments.find({"$and":[...]})</text>
  <text x="1648" y="414" font-family="Chalkboard SE" font-size="13.5" fill="#111">.sort({durationMs:-1}).skip(0).limit(20)</text>
  <text x="1648" y="444" font-family="Chalkboard SE" font-size="12.5" fill="#15803d" font-weight="bold">new backend = 1 visitor, 0 model edits &#10003;</text>

  <!-- PredicateBuilder -->
  <rect x="1170" y="560" width="410" height="134" rx="10" fill="none" stroke="#ea580c" stroke-width="3"/>
  <text x="1188" y="588" font-family="Chalkboard SE" font-size="17" fill="#111" font-weight="bold">PredicateBuilder</text>
  <path d="M1182,598 L1568,598" stroke="#ea580c" stroke-width="1.8"/>
  <text x="1188" y="622" font-family="Chalkboard SE" font-size="13.5" fill="#111">AST &#8594; Predicate&lt;Map&lt;String,Object&gt;&gt;</text>
  <text x="1188" y="644" font-family="Chalkboard SE" font-size="13.5" fill="#111">compiled once, evaluated per row</text>
  <text x="1188" y="672" font-family="Chalkboard SE" font-size="12.5" fill="#7e22ce" font-weight="bold">textbook INTERPRETER pattern — name it!</text>

  <!-- QueryValidator -->
  <rect x="1630" y="560" width="420" height="134" rx="10" fill="none" stroke="#ea580c" stroke-width="3"/>
  <text x="1648" y="588" font-family="Chalkboard SE" font-size="17" fill="#111" font-weight="bold">QueryValidator</text>
  <path d="M1642,598 L2038,598" stroke="#ea580c" stroke-width="1.8"/>
  <text x="1648" y="622" font-family="Chalkboard SE" font-size="13.5" fill="#111">UNKNOWN_FIELD &#183; INCOMPATIBLE_OPERATOR</text>
  <text x="1648" y="644" font-family="Chalkboard SE" font-size="13.5" fill="#111">walks tree with the schema</text>
  <text x="1648" y="672" font-family="Chalkboard SE" font-size="12.5" fill="#15803d" font-weight="bold">collects ALL errors &#8594; one round-trip</text>

  <!-- implements arrows to visitor -->
  <path d="M1170,420 L1108,420" stroke="#ea580c" stroke-width="2.4" stroke-dasharray="8,6" fill="none" marker-end="url(#trio)"/>
  <path d="M1170,616 L1108,472" stroke="#ea580c" stroke-width="2.4" stroke-dasharray="8,6" fill="none" marker-end="url(#trio)"/>

  <!-- InMemoryQueryService pipeline -->
  <circle cx="1192" cy="764" r="13" fill="none" stroke="#db2777" stroke-width="2.6"/>
  <text x="1192" y="771" font-family="Chalkboard SE" font-size="15" fill="#db2777" text-anchor="middle" font-weight="bold">5</text>
  <rect x="1170" y="740" width="880" height="150" rx="12" fill="none" stroke="#db2777" stroke-width="3"/>
  <text x="1216" y="771" font-family="Chalkboard SE" font-size="17" fill="#111" font-weight="bold">InMemoryQueryService — reference backend</text>
  <g font-family="Chalkboard SE" font-size="14" fill="#111" text-anchor="middle" font-weight="bold">
    <rect x="1200" y="796" width="140" height="44" rx="8" fill="none" stroke="#db2777" stroke-width="2.5"/>
    <text x="1270" y="824">FILTER</text>
    <rect x="1372" y="796" width="130" height="44" rx="8" fill="none" stroke="#db2777" stroke-width="2.5"/>
    <text x="1437" y="824">SORT</text>
    <rect x="1534" y="796" width="130" height="44" rx="8" fill="none" stroke="#db2777" stroke-width="2.5"/>
    <text x="1599" y="824">COUNT</text>
    <rect x="1696" y="796" width="150" height="44" rx="8" fill="none" stroke="#db2777" stroke-width="2.5"/>
    <text x="1771" y="824">PAGINATE</text>
    <rect x="1878" y="796" width="150" height="44" rx="8" fill="none" stroke="#db2777" stroke-width="2.5"/>
    <text x="1953" y="824">PROJECT</text>
  </g>
  <path d="M1340,818 L1368,818" stroke="#db2777" stroke-width="2.5" fill="none" marker-end="url(#ahp)"/>
  <path d="M1502,818 L1530,818" stroke="#db2777" stroke-width="2.5" fill="none" marker-end="url(#ahp)"/>
  <path d="M1664,818 L1692,818" stroke="#db2777" stroke-width="2.5" fill="none" marker-end="url(#ahp)"/>
  <path d="M1846,818 L1874,818" stroke="#db2777" stroke-width="2.5" fill="none" marker-end="url(#ahp)"/>
  <text x="1200" y="872" font-family="Chalkboard SE" font-size="13" fill="#6b7280">tables: ConcurrentHashMap &#183; stateless per request &#183; count BEFORE paginate, project LAST</text>

  <!-- InMemory relations -->
  <path d="M1170,770 L1108,750" stroke="#db2777" stroke-width="2.4" stroke-dasharray="8,6" fill="none" marker-end="url(#trip)"/>
  <path d="M1300,740 L1300,698" stroke="#db2777" stroke-width="2.4" fill="none" marker-end="url(#ahp)"/>
  <text x="1310" y="722" font-family="Chalkboard SE" font-size="12" fill="#db2777">compile filter</text>
  <path d="M1800,740 L1800,698" stroke="#db2777" stroke-width="2.4" fill="none" marker-end="url(#ahp)"/>
  <text x="1810" y="722" font-family="Chalkboard SE" font-size="12" fill="#db2777">validate first</text>

  <!-- ═════════ STICKY B: INJECTION ═════════ -->
  <g transform="rotate(2 225 985)">
    <rect x="60" y="920" width="336" height="130" fill="#fef9c3" stroke="#eab308" stroke-width="2.5" rx="4"/>
    <text x="78" y="950" font-family="Chalkboard SE" font-size="15" fill="#7f1d1d" font-weight="bold">INJECTION DEFENSE (2 kinds!):</text>
    <text x="78" y="978" font-family="Chalkboard SE" font-size="14" fill="#713f12">values &#8594; '?' bind params</text>
    <text x="78" y="1002" font-family="Chalkboard SE" font-size="14" fill="#713f12">identifiers can't be bound &#8594;</text>
    <text x="78" y="1026" font-family="Chalkboard SE" font-size="13.5" fill="#713f12">whitelist [A-Za-z_][A-Za-z0-9_]*</text>
  </g>
  <circle cx="228" cy="924" r="7" fill="#dc2626"/>

  <!-- ═════════ STICKY C: DESIGN WINS ═════════ -->
  <g transform="rotate(-2 610 985)">
    <rect x="450" y="920" width="320" height="150" fill="#fef9c3" stroke="#eab308" stroke-width="2.5" rx="4"/>
    <text x="468" y="950" font-family="Chalkboard SE" font-size="15" fill="#713f12" font-weight="bold">DESIGN WINS:</text>
    <text x="468" y="977" font-family="Chalkboard SE" font-size="13.5" fill="#14532d">&#10003; new backend = 1 visitor</text>
    <text x="468" y="1000" font-family="Chalkboard SE" font-size="13.5" fill="#14532d">&#10003; zero model edits (Open/Closed)</text>
    <text x="468" y="1023" font-family="Chalkboard SE" font-size="13.5" fill="#14532d">&#10003; arity fails fast in the ctor</text>
    <text x="468" y="1046" font-family="Chalkboard SE" font-size="13.5" fill="#14532d">&#10003; page cap = DoS guard</text>
  </g>
  <circle cx="610" cy="924" r="7" fill="#dc2626"/>

  <!-- ═════════ read-order strip ═════════ -->
  <text x="60" y="1130" font-family="Marker Felt" font-size="19" fill="#1e40af" font-weight="bold">WHITEBOARD ORDER:</text>
  <text x="270" y="1130" font-family="Chalkboard SE" font-size="15.5" fill="#111">&#9312; fluent builder &#8594; &#9313; immutable AST (Composite) &#8594; &#9314; visitor seam (double dispatch) &#8594; &#9315; one backend per visitor &#8594; &#9316; execution pipeline + wire envelope</text>

  <!-- ═════════ LEGEND ═════════ -->
  <rect x="50" y="1170" width="2040" height="150" rx="14" fill="none" stroke="#2563eb" stroke-width="2.6" stroke-dasharray="10,8"/>
  <text x="80" y="1230" font-family="Marker Felt" font-size="22" fill="#1e40af" font-weight="bold">LEGEND</text>
  <g font-family="Chalkboard SE" font-size="13.5" fill="#111">
    <rect x="230" y="1205" width="24" height="24" rx="5" fill="none" stroke="#2563eb" stroke-width="3"/>
    <text x="264" y="1223">model / AST</text>
    <rect x="230" y="1250" width="24" height="24" rx="5" fill="none" stroke="#16a34a" stroke-width="3"/>
    <text x="264" y="1268">interfaces (seams)</text>
    <rect x="470" y="1205" width="24" height="24" rx="5" fill="none" stroke="#ea580c" stroke-width="3"/>
    <text x="504" y="1223">backend visitors</text>
    <rect x="470" y="1250" width="24" height="24" rx="5" fill="none" stroke="#db2777" stroke-width="3"/>
    <text x="504" y="1268">execution pipeline</text>
    <rect x="720" y="1205" width="24" height="24" rx="5" fill="none" stroke="#7e22ce" stroke-width="3"/>
    <text x="754" y="1223">facade</text>
    <rect x="720" y="1250" width="24" height="24" rx="5" fill="#fef9c3" stroke="#eab308" stroke-width="2.5"/>
    <text x="754" y="1268">interview insight</text>
    <path d="M960,1217 L1030,1217" stroke="#111" stroke-width="2.8" fill="none" marker-end="url(#ah)"/>
    <text x="1044" y="1223">flow / uses</text>
    <path d="M960,1262 L1030,1262" stroke="#2563eb" stroke-width="2.4" stroke-dasharray="8,6" fill="none" marker-end="url(#trib)"/>
    <text x="1044" y="1268">implements</text>
    <path d="M1210,1262 L1222,1256 L1234,1262 L1222,1268 z" fill="#2563eb"/>
    <text x="1248" y="1268">composition (owns)</text>
    <circle cx="1222" cy="1217" r="12" fill="none" stroke="#2563eb" stroke-width="2.4"/>
    <text x="1222" y="1223" text-anchor="middle" fill="#2563eb" font-weight="bold" font-size="13">n</text>
    <text x="1248" y="1223">story step (read &#9312;&#8594;&#9316;)</text>
    <text x="1480" y="1223" fill="#6b7280">Patterns: Composite &#183; Builder &#183; Visitor &#183; Strategy &#183; Interpreter &#183; Facade</text>
    <text x="1480" y="1268" fill="#6b7280">Query DSL / database query abstraction API — machine-coding LLD</text>
  </g>
</svg>
