<svg xmlns="http://www.w3.org/2000/svg" width="2140" height="1380" viewBox="0 0 2140 1380">
  <defs>
    <marker id="ah" markerWidth="12" markerHeight="10" refX="10" refY="5" orient="auto"><path d="M0,0 L11,5 L0,10 z" fill="#111"/></marker>
    <marker id="ahb" markerWidth="12" markerHeight="10" refX="10" refY="5" orient="auto"><path d="M0,0 L11,5 L0,10 z" fill="#2563eb"/></marker>
    <marker id="ahg" markerWidth="12" markerHeight="10" refX="10" refY="5" orient="auto"><path d="M0,0 L11,5 L0,10 z" fill="#15803d"/></marker>
    <marker id="aho" markerWidth="12" markerHeight="10" refX="10" refY="5" orient="auto"><path d="M0,0 L11,5 L0,10 z" fill="#ea580c"/></marker>
    <marker id="ahp" markerWidth="12" markerHeight="10" refX="10" refY="5" orient="auto"><path d="M0,0 L11,5 L0,10 z" fill="#db2777"/></marker>
    <marker id="ahr" markerWidth="12" markerHeight="10" refX="10" refY="5" orient="auto"><path d="M0,0 L11,5 L0,10 z" fill="#dc2626"/></marker>
    <marker id="ahv" markerWidth="12" markerHeight="10" refX="10" refY="5" orient="auto"><path d="M0,0 L11,5 L0,10 z" fill="#7e22ce"/></marker>
  </defs>

  <rect width="2140" height="1380" fill="#ffffff"/>

  <!-- TITLE -->
  <text x="1070" y="52" font-family="Marker Felt" font-size="45" fill="#1e40af" text-anchor="middle" font-weight="bold">ORDER BOOK — PRICE-TIME PRIORITY MATCHING</text>
  <path d="M560,68 Q1070,84 1580,66" stroke="#1e40af" stroke-width="3.5" fill="none" stroke-linecap="round"/>

  <!-- ═════════ (1) THE ORDER BOOK — depth ladder ═════════ -->
  <rect x="60" y="95" width="880" height="480" rx="14" fill="none" stroke="#2563eb" stroke-width="3.2"/>
  <circle cx="88" cy="123" r="14" fill="none" stroke="#2563eb" stroke-width="2.6"/>
  <text x="88" y="130" font-family="Chalkboard SE" font-size="16" fill="#2563eb" text-anchor="middle" font-weight="bold">1</text>
  <text x="112" y="130" font-family="Marker Felt" font-size="19" fill="#2563eb" font-weight="bold">THE ORDER BOOK — depth ladder (one per symbol: AAPL)</text>

  <!-- column headers -->
  <text x="315" y="164" font-family="Chalkboard SE" font-size="15.5" fill="#16a34a" text-anchor="middle" font-weight="bold">BIDS · buyers</text>
  <text x="500" y="164" font-family="Chalkboard SE" font-size="14" fill="#6b7280" text-anchor="middle" font-weight="bold">PRICE</text>
  <text x="690" y="164" font-family="Chalkboard SE" font-size="15.5" fill="#dc2626" text-anchor="middle" font-weight="bold">ASKS · sellers</text>

  <!-- cross-row highlight (150.50) -->
  <rect x="150" y="250" width="740" height="36" rx="6" fill="#fef9c3" stroke="#eab308" stroke-width="2" opacity="0.9"/>

  <!-- price boxes (center column), high price at top -->
  <g font-family="Chalkboard SE" font-size="15" fill="#111" text-anchor="middle" font-weight="bold">
    <rect x="440" y="162" width="120" height="36" rx="6" fill="none" stroke="#6b7280" stroke-width="2"/><text x="500" y="186">151.00</text>
    <rect x="440" y="206" width="120" height="36" rx="6" fill="none" stroke="#6b7280" stroke-width="2"/><text x="500" y="230">150.75</text>
    <rect x="440" y="250" width="120" height="36" rx="6" fill="none" stroke="#b45309" stroke-width="2.6"/><text x="500" y="274">150.50</text>
    <rect x="440" y="294" width="120" height="36" rx="6" fill="none" stroke="#6b7280" stroke-width="2"/><text x="500" y="318">150.25</text>
    <rect x="440" y="338" width="120" height="36" rx="6" fill="none" stroke="#6b7280" stroke-width="2"/><text x="500" y="362">150.00</text>
  </g>

  <!-- ASK bars (extend right from x=566), red -->
  <g fill="#fca5a5" stroke="#dc2626" stroke-width="1.6">
    <rect x="566" y="166" width="120" height="28" rx="3"/>
    <rect x="566" y="210" width="60" height="28" rx="3"/>
    <rect x="566" y="254" width="32" height="28" rx="3"/>
  </g>
  <g font-family="Chalkboard SE" font-size="13.5" fill="#dc2626" font-weight="bold">
    <text x="694" y="185">300</text>
    <text x="634" y="229">150</text>
    <text x="606" y="273">80</text>
  </g>

  <!-- BID bars (extend left, right edge at x=434), green -->
  <g fill="#86efac" stroke="#16a34a" stroke-width="1.6">
    <rect x="394" y="254" width="40" height="28" rx="3"/>
    <rect x="354" y="298" width="80" height="28" rx="3"/>
    <rect x="234" y="342" width="200" height="28" rx="3"/>
  </g>
  <g font-family="Chalkboard SE" font-size="13.5" fill="#15803d" font-weight="bold" text-anchor="end">
    <text x="386" y="273">100</text>
    <text x="346" y="317">200</text>
    <text x="226" y="361">500</text>
  </g>

  <!-- best markers on cross row -->
  <text x="315" y="273" font-family="Chalkboard SE" font-size="12.5" fill="#15803d" text-anchor="middle" font-weight="bold">← best bid</text>
  <text x="770" y="273" font-family="Chalkboard SE" font-size="12.5" fill="#dc2626" text-anchor="middle" font-weight="bold">best ask →</text>

  <!-- heap peek labels -->
  <text x="80" y="404" font-family="Chalkboard SE" font-size="13" fill="#15803d" font-weight="bold">max-heap · peek() = highest bid = best</text>
  <text x="900" y="404" font-family="Chalkboard SE" font-size="13" fill="#dc2626" text-anchor="end" font-weight="bold">min-heap · peek() = lowest ask = best</text>

  <!-- notes -->
  <text x="80" y="446" font-family="Chalkboard SE" font-size="14.5" fill="#b45309" font-weight="bold">best bid 150.50 &#8805; best ask 150.50 &#8594; they CROSS &#8594; matching fires (trade @ 150.50)</text>
  <text x="80" y="474" font-family="Chalkboard SE" font-size="13.5" fill="#111">spread = bestAsk &#8722; bestBid;  normally &gt; 0 (rest on book);  here 0 &#8658; trade</text>
  <text x="80" y="500" font-family="Chalkboard SE" font-size="13.5" fill="#db2777" font-weight="bold">within ONE price level &#8594; FIFO by arrival time (that is the "time" in price-time)</text>
  <text x="80" y="526" font-family="Chalkboard SE" font-size="12.5" fill="#6b7280">PriorityQueue&lt;Order&gt; buyOrders (cmp: b.price&#8722;a.price) · sellOrders (cmp: a.price&#8722;b.price)</text>
  <text x="80" y="550" font-family="Chalkboard SE" font-size="12.5" fill="#6b7280">O(log n) offer / poll · O(1) peek best · one book isolates one symbol</text>

  <!-- ═════════ (2) MATCHING ENGINE ═════════ -->
  <rect x="970" y="95" width="640" height="300" rx="14" fill="none" stroke="#2563eb" stroke-width="3.2"/>
  <circle cx="998" cy="123" r="14" fill="none" stroke="#2563eb" stroke-width="2.6"/>
  <text x="998" y="130" font-family="Chalkboard SE" font-size="16" fill="#2563eb" text-anchor="middle" font-weight="bold">2</text>
  <text x="1022" y="130" font-family="Marker Felt" font-size="19" fill="#2563eb" font-weight="bold">MATCHING ENGINE — matchOrders(symbol)</text>
  <path d="M984,144 L1596,144" stroke="#2563eb" stroke-width="1.6"/>
  <g font-family="Chalkboard SE" font-size="14.5" fill="#111">
    <text x="990" y="172"><tspan fill="#7e22ce" font-weight="bold">while</tspan> (true) {</text>
    <text x="1014" y="196">bid = book.peekBestBuy()   <tspan fill="#6b7280">// max-heap top</tspan></text>
    <text x="1014" y="220">ask = book.peekBestSell()  <tspan fill="#6b7280">// min-heap top</tspan></text>
    <text x="1014" y="246"><tspan fill="#7e22ce" font-weight="bold">if</tspan> (bid==null || ask==null) <tspan fill="#dc2626" font-weight="bold">break</tspan>;</text>
    <text x="1014" y="270"><tspan fill="#7e22ce" font-weight="bold">if</tspan> (bid.price &lt; ask.price) <tspan fill="#dc2626" font-weight="bold">break</tspan>;  <tspan fill="#6b7280">// no cross</tspan></text>
    <text x="1014" y="296">qty  = min(bid.remaining, ask.remaining)</text>
    <text x="1014" y="320">price = <tspan fill="#15803d" font-weight="bold">ask.price</tspan>   <tspan fill="#6b7280">// resting maker price</tspan></text>
    <text x="1014" y="344">executeTrade(bid, ask, qty, price)</text>
    <text x="1014" y="368">filled? &#8594; poll from heap, status = FILLED</text>
    <text x="990" y="392">}   <tspan fill="#15803d" font-weight="bold">loops until the book no longer crosses &#10003;</tspan></text>
  </g>

  <!-- book -> engine arrow -->
  <path d="M940,268 L966,268" stroke="#2563eb" stroke-width="2.8" fill="none" marker-end="url(#ahb)"/>

  <!-- ═════════ (3) ORDER LIFECYCLE ═════════ -->
  <rect x="1640" y="95" width="440" height="480" rx="14" fill="none" stroke="#7e22ce" stroke-width="3.2"/>
  <circle cx="1668" cy="123" r="14" fill="none" stroke="#7e22ce" stroke-width="2.6"/>
  <text x="1668" y="130" font-family="Chalkboard SE" font-size="16" fill="#7e22ce" text-anchor="middle" font-weight="bold">3</text>
  <text x="1692" y="130" font-family="Marker Felt" font-size="19" fill="#7e22ce" font-weight="bold">ORDER LIFECYCLE</text>

  <!-- start dot -->
  <circle cx="1870" cy="168" r="9" fill="#111"/>
  <path d="M1870,177 L1870,197" stroke="#111" stroke-width="2.6" fill="none" marker-end="url(#ah)"/>
  <text x="1885" y="192" font-family="Chalkboard SE" font-size="12" fill="#111">placeOrder()</text>

  <!-- OPEN -->
  <rect x="1785" y="200" width="170" height="50" rx="10" fill="none" stroke="#2563eb" stroke-width="3"/>
  <text x="1870" y="231" font-family="Chalkboard SE" font-size="17" fill="#2563eb" text-anchor="middle" font-weight="bold">OPEN</text>

  <!-- OPEN -> PARTIALLY_FILLED (center) -->
  <path d="M1870,250 L1870,318" stroke="#ea580c" stroke-width="2.6" fill="none" marker-end="url(#aho)"/>
  <text x="1885" y="292" font-family="Chalkboard SE" font-size="11.5" fill="#ea580c" font-weight="bold">partial match</text>

  <!-- PARTIALLY_FILLED -->
  <rect x="1750" y="322" width="240" height="50" rx="10" fill="none" stroke="#ea580c" stroke-width="3"/>
  <text x="1870" y="353" font-family="Chalkboard SE" font-size="14" fill="#ea580c" text-anchor="middle" font-weight="bold">PARTIALLY_FILLED</text>

  <!-- OPEN -> FILLED (full match) down-left, clears PARTIALLY -->
  <path d="M1810,250 C1710,300 1700,400 1755,440" stroke="#15803d" stroke-width="2.6" fill="none" marker-end="url(#ahg)"/>
  <text x="1655" y="308" font-family="Chalkboard SE" font-size="11.5" fill="#15803d" font-weight="bold">full match</text>

  <!-- PARTIALLY_FILLED -> FILLED -->
  <path d="M1800,372 L1775,438" stroke="#15803d" stroke-width="2.6" fill="none" marker-end="url(#ahg)"/>

  <!-- FILLED -->
  <rect x="1690" y="442" width="150" height="50" rx="10" fill="none" stroke="#16a34a" stroke-width="3.2"/>
  <text x="1765" y="473" font-family="Chalkboard SE" font-size="16" fill="#16a34a" text-anchor="middle" font-weight="bold">FILLED</text>

  <!-- OPEN -> CANCELLED (right), clears PARTIALLY -->
  <path d="M1930,250 C2030,300 2040,400 1985,440" stroke="#dc2626" stroke-width="2.6" stroke-dasharray="8,5" fill="none" marker-end="url(#ahr)"/>
  <text x="2058" y="330" font-family="Chalkboard SE" font-size="11.5" fill="#dc2626" font-weight="bold" text-anchor="middle" transform="rotate(90 2058 330)">cancelOrder()</text>

  <!-- PARTIALLY_FILLED -> CANCELLED -->
  <path d="M1950,372 L1975,438" stroke="#dc2626" stroke-width="2.6" stroke-dasharray="8,5" fill="none" marker-end="url(#ahr)"/>

  <!-- CANCELLED -->
  <rect x="1900" y="442" width="170" height="50" rx="10" fill="none" stroke="#dc2626" stroke-width="3.2"/>
  <text x="1985" y="473" font-family="Chalkboard SE" font-size="16" fill="#dc2626" text-anchor="middle" font-weight="bold">CANCELLED</text>

  <!-- terminal dots -->
  <path d="M1765,492 L1765,510" stroke="#111" stroke-width="2.4" fill="none"/>
  <circle cx="1765" cy="518" r="9" fill="none" stroke="#111" stroke-width="2.4"/><circle cx="1765" cy="518" r="4" fill="#111"/>
  <path d="M1985,492 L1985,510" stroke="#111" stroke-width="2.4" fill="none"/>
  <circle cx="1985" cy="518" r="9" fill="none" stroke="#111" stroke-width="2.4"/><circle cx="1985" cy="518" r="4" fill="#111"/>

  <text x="1660" y="556" font-family="Chalkboard SE" font-size="12.5" fill="#6b7280">filled qty accrues · remainder rests on book</text>

  <!-- ═════════ (4) ORDER TYPES ═════════ -->
  <rect x="60" y="610" width="600" height="300" rx="14" fill="none" stroke="#6b7280" stroke-width="3"/>
  <circle cx="88" cy="638" r="14" fill="none" stroke="#6b7280" stroke-width="2.6"/>
  <text x="88" y="645" font-family="Chalkboard SE" font-size="16" fill="#6b7280" text-anchor="middle" font-weight="bold">4</text>
  <text x="112" y="645" font-family="Marker Felt" font-size="19" fill="#111" font-weight="bold">ORDER TYPES</text>

  <rect x="82" y="666" width="556" height="98" rx="10" fill="none" stroke="#2563eb" stroke-width="2.6"/>
  <text x="100" y="692" font-family="Chalkboard SE" font-size="16" fill="#2563eb" font-weight="bold">LIMIT</text>
  <text x="100" y="716" font-family="Chalkboard SE" font-size="13.5" fill="#111">has a price · matches only if it crosses the book</text>
  <text x="100" y="738" font-family="Chalkboard SE" font-size="13.5" fill="#111">unfilled remainder RESTS on book (price-time priority)</text>
  <text x="100" y="758" font-family="Chalkboard SE" font-size="12.5" fill="#15803d" font-weight="bold">the resting order = the "maker" (provides liquidity)</text>

  <rect x="82" y="776" width="556" height="112" rx="10" fill="none" stroke="#ea580c" stroke-width="2.6"/>
  <text x="100" y="802" font-family="Chalkboard SE" font-size="16" fill="#ea580c" font-weight="bold">MARKET</text>
  <text x="100" y="826" font-family="Chalkboard SE" font-size="13.5" fill="#111">no price · takes BEST available now, sweeps levels</text>
  <text x="100" y="848" font-family="Chalkboard SE" font-size="13.5" fill="#111">never rests — unfilled remainder is cancelled</text>
  <text x="100" y="870" font-family="Chalkboard SE" font-size="12.5" fill="#dc2626" font-weight="bold">the incoming order = the "taker" (removes liquidity)</text>

  <!-- ═════════ (5) TRADE EXECUTION (worked example) ═════════ -->
  <rect x="690" y="610" width="640" height="300" rx="14" fill="none" stroke="#db2777" stroke-width="3.2"/>
  <circle cx="718" cy="638" r="14" fill="none" stroke="#db2777" stroke-width="2.6"/>
  <text x="718" y="645" font-family="Chalkboard SE" font-size="16" fill="#db2777" text-anchor="middle" font-weight="bold">5</text>
  <text x="742" y="645" font-family="Marker Felt" font-size="19" fill="#db2777" font-weight="bold">TRADE EXECUTION — worked example</text>
  <path d="M704,660 L1316,660" stroke="#db2777" stroke-width="1.6"/>
  <g font-family="Chalkboard SE" font-size="14.5" fill="#111">
    <text x="710" y="690">best bid  B1: <tspan fill="#15803d" font-weight="bold">150.50 &#215; 100</tspan>   (earliest at level)</text>
    <text x="710" y="716">best ask  S1: <tspan fill="#dc2626" font-weight="bold">150.50 &#215; 80</tspan></text>
    <text x="710" y="746">&#8594; cross! trade @ <tspan fill="#db2777" font-weight="bold">150.50</tspan> (S1 = resting maker price)</text>
    <text x="710" y="770">&#8594; qty = min(100, 80) = <tspan font-weight="bold">80</tspan></text>
    <text x="710" y="800">&#8594; S1 remaining 0 &#8658; <tspan fill="#16a34a" font-weight="bold">FILLED</tspan>, poll off min-heap</text>
    <text x="710" y="824">&#8594; B1 remaining 20 &#8658; <tspan fill="#ea580c" font-weight="bold">PARTIALLY_FILLED</tspan>, stays on book</text>
    <text x="710" y="854">&#8594; next loop: B1 150.50 vs S2 150.75 &#8594; 150.50 &lt; 150.75</text>
    <text x="710" y="878"><tspan fill="#dc2626" font-weight="bold">&#8594; break</tspan>; Trade{buy=B1, sell=S1, 80, 150.50} recorded</text>
  </g>

  <!-- ═════════ (6) CONCURRENCY ═════════ -->
  <rect x="1360" y="610" width="720" height="300" rx="14" fill="none" stroke="#7e22ce" stroke-width="3.2"/>
  <circle cx="1388" cy="638" r="14" fill="none" stroke="#7e22ce" stroke-width="2.6"/>
  <text x="1388" y="645" font-family="Chalkboard SE" font-size="16" fill="#7e22ce" text-anchor="middle" font-weight="bold">6</text>
  <text x="1412" y="645" font-family="Marker Felt" font-size="19" fill="#7e22ce" font-weight="bold">CONCURRENCY &amp; INTEGRITY</text>
  <path d="M1374,660 L2066,660" stroke="#7e22ce" stroke-width="1.6"/>
  <g font-family="Chalkboard SE" font-size="14.5" fill="#111">
    <text x="1380" y="692">synchronized methods on OrderBook (add / match / remove)</text>
    <text x="1380" y="718">ConcurrentHashMap&lt;symbol, OrderBook&gt; — the registry</text>
    <text x="1380" y="744">ConcurrentHashMap&lt;orderId, Order&gt; · &lt;symbol, List&lt;Trade&gt;&gt;</text>
    <text x="1380" y="770">one lock PER book &#8658; different symbols match in parallel</text>
    <text x="1380" y="796">update filledQty / record trade in the same critical section</text>
    <text x="1380" y="826" fill="#dc2626" font-weight="bold">race if unsynced: two takers poll the same resting order &#8594;</text>
    <text x="1380" y="850" fill="#dc2626" font-weight="bold">double-fill (sell 80 twice). The lock serialises the match loop.</text>
    <text x="1380" y="882" fill="#6b7280">scale-out: shard by symbol across engines (shared-nothing)</text>
  </g>

  <!-- ═════════ STICKIES ═════════ -->
  <g transform="rotate(-2 360 1040)">
    <rect x="120" y="960" width="500" height="150" fill="#fef9c3" stroke="#eab308" stroke-width="2.5" rx="4"/>
    <text x="142" y="994" font-family="Chalkboard SE" font-size="15.5" fill="#7f1d1d" font-weight="bold">PRICE-TIME PRIORITY:</text>
    <text x="142" y="1024" font-family="Chalkboard SE" font-size="14" fill="#713f12">1) best PRICE wins (highest bid / lowest ask)</text>
    <text x="142" y="1048" font-family="Chalkboard SE" font-size="14" fill="#713f12">2) tie on price &#8594; earliest arrival wins (FIFO)</text>
    <text x="142" y="1074" font-family="Chalkboard SE" font-size="13.5" fill="#713f12">heap comparator: price, then createdAt.</text>
  </g>
  <circle cx="360" cy="964" r="7" fill="#dc2626"/>

  <g transform="rotate(1.5 1035 1040)">
    <rect x="770" y="960" width="530" height="150" fill="#fef9c3" stroke="#eab308" stroke-width="2.5" rx="4"/>
    <text x="792" y="994" font-family="Chalkboard SE" font-size="15.5" fill="#7f1d1d" font-weight="bold">TRADE @ MAKER PRICE:</text>
    <text x="792" y="1024" font-family="Chalkboard SE" font-size="14" fill="#713f12">execute at the RESTING order's price, not the</text>
    <text x="792" y="1048" font-family="Chalkboard SE" font-size="14" fill="#713f12">incoming one — rewards the liquidity provider &amp;</text>
    <text x="792" y="1074" font-family="Chalkboard SE" font-size="13.5" fill="#713f12">gives the taker price improvement.</text>
  </g>
  <circle cx="1035" cy="964" r="7" fill="#dc2626"/>

  <g transform="rotate(-1.5 1670 1040)">
    <rect x="1450" y="960" width="500" height="150" fill="#fef9c3" stroke="#eab308" stroke-width="2.5" rx="4"/>
    <text x="1472" y="994" font-family="Chalkboard SE" font-size="15.5" fill="#7f1d1d" font-weight="bold">PARTIAL FILLS:</text>
    <text x="1472" y="1024" font-family="Chalkboard SE" font-size="14" fill="#713f12">qty = min(remaining) each match. Leftover stays</text>
    <text x="1472" y="1048" font-family="Chalkboard SE" font-size="14" fill="#713f12">on the book as PARTIALLY_FILLED until fully</text>
    <text x="1472" y="1074" font-family="Chalkboard SE" font-size="13.5" fill="#713f12">matched or cancelled. One order &#8594; many trades.</text>
  </g>
  <circle cx="1670" cy="964" r="7" fill="#dc2626"/>

  <!-- WHITEBOARD ORDER -->
  <text x="60" y="1178" font-family="Marker Felt" font-size="19" fill="#1e40af" font-weight="bold">WHITEBOARD ORDER:</text>
  <text x="270" y="1178" font-family="Chalkboard SE" font-size="15" fill="#111">&#9312; one OrderBook / symbol: bid max-heap + ask min-heap &#8594; &#9313; match while bestBid &#8805; bestAsk (FIFO within a level) &#8594; &#9314; trade @ maker price, min qty, partial fills &#8594; order states</text>

  <!-- LEGEND -->
  <rect x="60" y="1208" width="2020" height="120" rx="14" fill="none" stroke="#2563eb" stroke-width="2.6" stroke-dasharray="10,8"/>
  <text x="88" y="1256" font-family="Marker Felt" font-size="21" fill="#1e40af" font-weight="bold">LEGEND</text>
  <g font-family="Chalkboard SE" font-size="13.5" fill="#111">
    <rect x="250" y="1236" width="24" height="22" rx="4" fill="#86efac" stroke="#16a34a" stroke-width="2.2"/><text x="284" y="1253">bid / buyer (green)</text>
    <rect x="490" y="1236" width="24" height="22" rx="4" fill="#fca5a5" stroke="#dc2626" stroke-width="2.2"/><text x="524" y="1253">ask / seller (red)</text>
    <rect x="720" y="1236" width="24" height="22" rx="5" fill="none" stroke="#2563eb" stroke-width="3"/><text x="754" y="1253">book / matching</text>
    <rect x="950" y="1236" width="24" height="22" rx="5" fill="none" stroke="#7e22ce" stroke-width="3"/><text x="984" y="1253">lifecycle / concurrency</text>
    <rect x="1250" y="1236" width="24" height="22" rx="5" fill="none" stroke="#db2777" stroke-width="3"/><text x="1284" y="1253">trade pipeline</text>
    <rect x="1470" y="1236" width="24" height="22" rx="4" fill="#fef9c3" stroke="#eab308" stroke-width="2.4"/><text x="1504" y="1253">interview insight</text>
    <path d="M1690,1247 L1750,1247" stroke="#111" stroke-width="2.6" fill="none" marker-end="url(#ah)"/><text x="1764" y="1253">flow</text>
    <path d="M1850,1247 L1910,1247" stroke="#dc2626" stroke-width="2.6" stroke-dasharray="8,5" fill="none" marker-end="url(#ahr)"/><text x="1924" y="1253">cancel</text>
  </g>
  <text x="250" y="1300" font-family="Chalkboard SE" font-size="12.5" fill="#6b7280">Patterns: Priority Queue (heaps) · Callback (match) · Facade (StockExchange) · State (order lifecycle)</text>
  <text x="1250" y="1300" font-family="Chalkboard SE" font-size="12.5" fill="#6b7280">Stock Exchange — LLD · price-time priority matching engine</text>
</svg>
